<mxfile host="Electron" modified="2024-03-17T22:02:17.397Z" agent="Mozilla/5.0 (Windows NT 10.0; Win64; x64) AppleWebKit/537.36 (KHTML, like Gecko) draw.io/24.0.4 Chrome/120.0.6099.109 Electron/28.1.0 Safari/537.36" etag="iWvBNYGegBqGTi9O1fva" version="24.0.4" type="device">
  <diagram name="PÃ¡gina-1" id="mGDGzmVwLB0dje2Nzvlm">
    <mxGraphModel dx="2021" dy="806" grid="1" gridSize="10" guides="1" tooltips="1" connect="1" arrows="1" fold="1" page="1" pageScale="1" pageWidth="827" pageHeight="1169" math="0" shadow="0">
      <root>
        <mxCell id="0" />
        <mxCell id="1" parent="0" />
        <mxCell id="LvfuuKePgPZG7jUSQBum-1" value="" style="strokeColor=#666666;html=1;verticalLabelPosition=bottom;labelBackgroundColor=#ffffff;verticalAlign=top;outlineConnect=0;shadow=0;dashed=0;shape=mxgraph.rackGeneral.rackCabinet3;fillColor2=#f4f4f4;container=1;collapsible=0;childLayout=rack;allowGaps=1;marginLeft=9;marginRight=9;marginTop=21;marginBottom=22;textColor=#666666;numDisp=off;strokeWidth=4;" parent="1" vertex="1">
          <mxGeometry x="90" y="150" width="280" height="410" as="geometry" />
        </mxCell>
        <mxCell id="LvfuuKePgPZG7jUSQBum-23" value="" style="shape=mxgraph.rack.cisco.cisco_ucs_c420_m3_server;html=1;labelPosition=right;align=left;spacingLeft=15;dashed=0;shadow=0;fillColor=#ffffff;" parent="LvfuuKePgPZG7jUSQBum-1" vertex="1">
          <mxGeometry x="9" y="21" width="262" height="30" as="geometry" />
        </mxCell>
        <mxCell id="LvfuuKePgPZG7jUSQBum-22" value="" style="shape=mxgraph.rack.cisco.cisco_ucs_c24_m3_server;html=1;labelPosition=right;align=left;spacingLeft=15;dashed=0;shadow=0;fillColor=#ffffff;" parent="LvfuuKePgPZG7jUSQBum-1" vertex="1">
          <mxGeometry x="9" y="51" width="262" height="30" as="geometry" />
        </mxCell>
        <mxCell id="LvfuuKePgPZG7jUSQBum-6" value="" style="strokeColor=#666666;html=1;labelPosition=right;align=left;spacingLeft=15;shadow=0;dashed=0;outlineConnect=0;shape=mxgraph.rack.dell.poweredge_r7415;" parent="LvfuuKePgPZG7jUSQBum-1" vertex="1">
          <mxGeometry x="9" y="81" width="262" height="30" as="geometry" />
        </mxCell>
        <mxCell id="LvfuuKePgPZG7jUSQBum-5" value="" style="strokeColor=#666666;html=1;labelPosition=right;align=left;spacingLeft=15;shadow=0;dashed=0;outlineConnect=0;shape=mxgraph.rack.dell.poweredge_r740;" parent="LvfuuKePgPZG7jUSQBum-1" vertex="1">
          <mxGeometry x="9" y="111" width="262" height="30" as="geometry" />
        </mxCell>
        <mxCell id="LvfuuKePgPZG7jUSQBum-42" value="" style="shape=image;verticalLabelPosition=bottom;labelBackgroundColor=default;verticalAlign=top;aspect=fixed;imageAspect=0;image=data:image/png,iVBORw0KGgoAAAANSUhEUgAAAS0AAAAiCAYAAAAKwo+PAAAAAXNSR0IArs4c6QAAAARnQU1BAACxjwv8YQUAAAAJcEhZcwAADsMAAA7DAcdvqGQAAB8aSURBVHhe7Z1pkF3Fdcf7zapZNNp3CZDEIggICYpFFmCS2ChUYhvHgO0PqcRf7bIdJ5VUvJa/xcTfHCdVdpwUdhU2MYuxkI0NRghhCEiA5MTI2JhNCIS22dc3y0v/zn3/mTNX9715s0ky6A9H3bdvL6dP9zn3dL++d3J//Vd/Uzhy5EjYtOmKMDIyEsahqhBaW1vDiRMnwksvvWTU2NgY6urqwrx584qZYraqqpDL5SzkXm1trcVFAnkgH/dpHoVCoRgbH58Muru7re7q6mrjg1BxtenbTvPBtfqguPL49FLo6uoqxk5GJX3ydZdrpxzSdeg6HU+DuTA8PGx80k8vO0h5Jjs2lbYPSO/p6bF4U1OThenrchgaGrKQvPSlt7c3LFq0yObwsWPH7J4wODhYjAXrZz6ft76V420i/leuXFmMnYyJ5Eud3IOUV8Q196VnaYg31QNlgT4vXLgw9Pf3h/r6+tDX12dzdvHixdZGTU2NyZB8isMPccrMmTPH8qPzHW2tYWBgIDQ3N1s+ZN2fH7T7/QODVkd+aNjyUBb5gvraGqtvy5YtYcXypWHZsmVhxYoV1j7yoI+0Qxu//vWvw/e///2Q+7u//fvCjTfeGD7wwb8IA/3JIAuDw/nw5ptvhtdeey08/vjj4Re/+EXCTGyUCqmIzspQ0bgElB4AT0orJ1SEI/j4TMO3neZDPKb5BZpQIkH3CUW6Lod0OR/31z6sBD7vZMpNFZ5Hka7PZKSNFoatra3NrjW+fqwV99d/KPC8i7Lgx465j6HRgwCjUlVdO2p85s6da0YaG0BarrrG8gwOQ4UwNFJIDFe8BxHv6+kOI0P5SIPhwx/6YFi/7rywYcOGcM455xhP1BWbHcXhw0fCZz/72ZC745//pbBt27ZwySWXhNq6muLtIiLPHR1dZrh27NgR7r33XrOcWGQYksECiqtjDLwEosnrjZSPZ8ELspRQs6D6VLe/zoJPz8qTVb5UXZXA15eOV0oqUwl8vkrLlIPGQmPrryuB51+k69MJb7SWLFlic5gVSLp/vs8TgQc5Xl5DQ4PpC14iD315Eb7NUwn1wVMWSGdczPhEXjVG5nGFqtA3kA8NTc1hYHA4rL/gwnD99deHmto6y9fY3GJ5o72KHtdQ6OntG+0/3tbI8FDo7mwPPR2tYWRwIPz5tveFzZdvDBecvy4sXDA/DNNGsf1CLrFcb7/9dvjSl74Ucv/2r/9euPrqq8MVV1wRk8dPnEKuYI0weBgsXDMZLNxUnkYMCCCO4WJJRhkGDOYADYtkrCSocgITSuWZCcCL4OPA8+uNbDrfZJEun1U3afJclZbOUwl83nQcQrYQcR46jKe2AHgA+SUJisYY465raXL8+HGrj/yMN+nUxfJr/vz5dq8U9ORdsGCBKTdzizaoo7Oz00ImqpYg4glekqdw1YzNDW9Ali9fbu3SluqXnESVgDpbWlpMHkuXLo0OQIf14ejRoybT6QIjwPKOOpGXlnlcZ9UPHwJ90LgC5MnYs7yDGGP1FZ2mft2jncGhkXDk2PFQ39QS3j56LKxYuSb86fu3hfqGOaG6tt74CNHYUH1v30Bo7+oMbR2dxvNQfiDkCsOhJ6b1tLeGxtpceN+NW8Mfv/eGsGb1ytDcmBh5YHO0aLQOHz4cvvCFL4TqWz50y1cR6KpVqyKD45UhV5WzjsHkCy+8EPbv3z/qHpJOJxkUOsLEI6Qx8tAYxCSEmGAKSVc400S9agtiMBROh9J9UHgqiH7NdHvqF3FNECY7bj5jiTKwb8nkZZ8BA4QScs18YezJi6EhTh6uMXjMCYi6qQcjoL0kJjMGirrXrFljc4U09lEozxzinkKUBdAuRhFZcA95zCRJxhB9Ys4jFymuSGlZ9zzRdz24uZZRoe/IkmvN2akS9SBX6m1vb7dxQE5eR8kHH+JL8HHy0G/yMRYQcd3Tw4V06qfvcbUXBmLanMbm6EX1xrGbFy7acHFontscV2z1Vl8VVFUd8xdCnjoimWxinXW1NaErymBwIBramqpw3jmrwoaLLgwtlI/zEiBD2o//8H80eL1h586dIfef//FfhcsuuyxceeWVsGiZRxENHALhaXrfffeFu+66ywYUoTAYDACTk44w4Zj0WGWejHRMwvOQsEoJUJjofilYJ4uhSNdZ8Oml8vj2fX0iXU8GKquBSRPpoqz7UCXw+Sopozxqw1+fCkjWhCJdzya8p0VcXkg541QO/j5jKINoylwcU/2oUArwgaGQ44CxxtBj4KlDhqUU0FF0EeNGP5599tnincoBn/QFXsQ3es3ycCTai7nz5ofu3v5w3rr14aabbgot8Zq2qmqSbSP2srp6+sKJ1jbbI8Q+mKwLI6G99XjI9/aEhrqqcP2Wq8PN224Ky5ctiQ+3uHqLddici46TcOTIMfO0cnfe+b3Cxo0bw+bNl8d1ZPGuEJeHNMIviA8//LDta9EBKoMxhIZ115OTUJ3SgENAA+1J6Vnw6aXyRPZOgnVUYezwuOsM+PSsPKSJdF0OPl+5clz7CSyq9LpS+LyTKXe6IB4JRbquBFMt740WMsaz0DzWfIV0fSqAfsEL8wQ9pF22Xs4999zw29/+1oxe4myEsHv3bvO20MObb77Z0p555hnrww033GAh2zyVIC0r2scrR0bUw314qa2bY/fhEcMIX6OeXvSwAEYLo9ba3mGnEOCRPlAXdiXfPxCNVm3Ycu3V4b3Xb40e+9JotOLSMorY2HCsHDt6PHzxi18Mubvu+kHh0ksvDRs3XppptLDU0J49e0wIWg7iVdEZubssKfC2YBrAuAZa5CeAj2fBp5fKk2W0PArl56nBD1B6sLjOIt2bLtL1egPl46XSKoHPV2mZdyO80cJgAS8vzddTabTwsNQWzgGeE8uj6667zhwIjNZtt90WvvnNb4Z77rnH8sD77bffHj7/+c+HO++80/T11ltvDb///e9tCQ80fzyloblG++gyBlTLTQwYvOAFsvJiC4B2+/GaIg9JuVhndBpGYkgejBYrthMn2pKlcn7AjCjl5sTl5DXXXBOuunKz8djYWBfLw2eRmQjiGK2vfOUrofpjH/v4V8m4dOmSREBkLFJVbJTBhFk2VmEUY4WRQhgwTag9CK65Twc9af/Ep5GP/IorXfl8WFcT70WqqY5ppBdJ9ZYin7cUUecYxXV9MY32fJvcq45Pj+o4mFBVLpuUh/zZdSb11dHf0XRRkqZ7yf2xdtkL4L8kTIZJaaX/80Oavj7zKKs/iWyTfs8EJW3Ff4vTHQ0ZG9eolHFMiKt97os3yOeFN/LonsjqJSzSVCAPBwOCjrBEfPnllwNOBrrBhj7HkR588MFR7wWPDF1FHzE2nAxYv3695cXBQMdxLMhLnVkPR88vcfgAhORXHMAHRxaimQrVtXFJGOVh0or/V+VqLISPwWik+qPxyg/0h6FBfkwZDn3RyBXiQ4CzWqtXrbQjE01NjbHOZE9rlI04TqwS2dN64okn2CtLNiGzQLLvFHF/jUAp70l5PKXTff5RA4OiOkKgp4PUvu+b530ikpwkI0+JTLPjgAkFTeSFnsXsQ2MDpcc2TVlzJD13dD1Z0lykDh7yhMwP0u6//377RR+ngnwYIzbm8Wy+/vWvj+5By3MkD+BXTJDV3kxSrnq8PGi/Li4FIQxVQ32dEdfVUbY1MR87/H4FhQpIDwitvlz8h6Qs8iCzDIyYggmR7um+v4Z8Xk/pfJOhuvhELEdZZU4FST4iDdxE5BUlbbD8PcHHz2LmIDlrXNLjqTHNSk9T1vyYDKke2sMoEcdIcY8tGYwSXpN+OcSwiUgnDQ8NEPdItzVVwsOCTkov8i0izet+XW11qK+LuhrDaN+M4oIS58w8K8KsGW6e1kRgAMnnGYIJa7jonShd+dL5RT5vqet3CiEDT/RvojiEbAmlPNBZzBwkTy9fEbJXqHFQ6Ck9ZlxXRNVRuaGse47SdSuENxktDJau2U/GcJHOcozlIr80clA27WmxnQPIO5skmULi3+sHtqM+Gju2fxJ5R2epwD5eYriyQF0xb7JGLQcNmhoTUz4OScieWVHC1PiJoLgnn+90U5q3yVBWeV/vRHHJ7SxOPfy8hbLGR9fpNE8YD3RE9dTVN4SB6P20tbWH4aFC9DIaopbGvFFFk33b+tDYkJxBY19KdUu/5H2zX8VbKuxvcYwA48XBS/atuMZg0fYbb7wRXn31VfOwxBNn7NiHJhT/s0W05+U3ZiuQXbK9hHzq8bTimpDlobdGOZaDtuZLTiAIE3paCIqGyadGCGFCjInIBxQC4lnky/g6ziRK8zwZKlXep5eKi2Ya6SXnWZRHejwgxik9VkpL32OJxv6TpefwgJID2YuWLI5eRr0ZFukQ+SB+7AK8NMx4QapXcTwrDuryjh7EUYPzzjsvrFu3zjbdzz//fCM8LQwceQnT4696Z4skGy8j+mu2JFJtcQtHMiBfFjzfJtuf/fyRwurVq8Mll2yIwhjfqZpoDbu6ekyQL774Ynj99detEL9CmGsXB4W4TkKTBhO+cd9gWmigkvvamEvfrzo5+ziMTEPvJ+ILlBJyFnwdKufLZ9VVqt3pYjJ8n2pk8TZb/FYq38mOA/nhuZArGqL8UFyi8bWEoTBcSByA+uhZsZ9TWxcVOXaPMrxcnB8Yit5YchqfX4/xkiDK4FE99NBDdu4Kb4mzWh7ooQcOBsYMI+dfq5I8JyvXUmMjwiMay1Nlr/rQNnyzr9bZ2W7HHThC1Re9wbYTrYk3GgWAkb3qqqvMqDdw3jMasSgUq2loZNj6f/To8fC1r31tzGjxdnV6cGS0WBNjtA4ePGhMYbURCEYKoyVrTho0xniCrEFXGoNDfq6hrLKn02il2/RI81opfLlScd9uOR6miqnyPtvI4mu2eK1ErtORfS4uYpjfRPY+vy/sePAnUUkTY4ISf+gDN4et77nGzjexXHvltdfD3T+4J7x95ER8+FdFxe4K73v/n9hJczwRynDI+9prr7XjAeifR1NT8h4woFnpFobi0KFDtr/FtZen4pXMcx+SHyKOQUmuk3NcygMPGC6cnt7e5P1FDJad04qGrCMuk/mxIHbVPESMFo5QY7QnZrRArBejRf+PHTsR7rjjjmQJqfMbpaB7YlAkl06hKOu6XB7VrbiH0iHVc6oozU+aj3J86V5WHp/uoYkgefv4TGO26n2nwY9V5YQyJ0s5gIfz1ltvhR/ee1/Ys3dvePa5feHACy+GpsboGRWqQlNzQ1TugdDT3Rd+9MBPw47tO8OLBw6FR3c+bqfGqTPOGiP2vmqqopGIXlk15wId5fsHw/DgSLwXH+hxarFHNBKXpMPRw+PBr3yqqxLy+anDHIjisYR8f19ML8Q8pMVGY/o4sl8C8Rhju8z92A9CnCGMci17WTGei7aEXSvRKKiXjsRWEkrGo2jOkgsq8NC8xsWT1ZaxShsukA7TIF2kcj48k0h9gzzfWZSFUumTQbqdNE0X73bDlSVTT1nIyleO4mrQPP5EhUNYd8GF0as4314ih05CLLBsxblh46arw6JFS2x5hwHQWLHUYrnIVyg4He/pscceG6Odu8Lu3U9YfvQXaF5n8SlKgzTpATzgGUHYA51+Z4nn8ykv6fQ6Xsb7Y15Z2nZAE4H6JINYLrFbxWAcinlGoQZ8Y4orFHTfkwcMkEY5X99sk0D7CJ4BhRCwJ9LI7/vlr31dui5HZyo0Ec7iZGSNYynSPPaU8hsikgOifLqluYUvYWR/ugfPjEOiKDZbL5qjkJT9V7/6VfjMZz4zjj796U+HT33qU+GTn/yk0ec+97nAPjT1UY5lqTa+s/qQJtpRnDL8Grlv377wy1/+0t51hPg46O4ndkXvcU/4n6efDLse3xl+9vPoLf5ke9iz5+nYm8R/Suoa80AT+VQOzVPjC2YmAgUgNZbulEKgMAsqJxIUT9+fCgmljJKuuecVNl2PyhPXIPv8QHn/0JHu11kk0Ph6KpWeRVno7esP3d29yYb7AO87npwPTwYPiZC5iqEB0lX2hUjniIMnvC+OPrAU5UgE1+wncY/6mM9CFo/MA0h67nUdvPLKK/YaDa8N3X333eHb3/62ncjni8aPPPJI2LVrV3jqqafC888/b59Gps0xJLokou6pwMqWM1qazIS+Md8hhUDhVKD6zxSSUDXQSj+V8Pykyd+fCbwbDZeXZxalkU5P5/XXSdrJitnYmLyjOxiNlg59sq/lwZxj/pFPP3jpRy6MEMQxB35x4zt4vDvMNcck8NDYoyYvP7CRJsMHEZdhSvMLkZ7ljQHqJJ3yEC9AX7bxj8yTY3+qoaE+LnmXxnZXhi1brjEvMQH9m5qREjQ/jUcZLaz+0FDanU0gJumQOktIWd+5yULl0uXT6aeTAAOtvvun1TsNmhhnkQ3pgZCWV5b82LD2v3LXVke9id5VXX3N+F//nOFir0iGhjrl8eN5YTj0cUT2xHiVh18eyadDpZTj13zeMcQrw/hxD88HQ6k9KQ/qpxw8pee/gK5TTh4dxpE/dnPo0EEzYPxoQN3sufHiNvdnAmm5Rj1MhIX11jtKaaiQOkIZ3ynFdT0dZNVJ+wwGPCJ4PsnBYOz/v/8Nx9ta43jnwlBhJPTlB0J+eCj0DvSH1o52W4OT3/OL4Okn7jOEkAGDRTsy4qzVf/e739k16RrMs4br3QNk4Unw1z4d6F46XWC+5fP9cR6hfMXEFDAeMizJlgZxvu01FI3RnOjBNMZ53RPb4JApZ7j4OinzlnnpKZgxoT4MIQbP6wK6wReJ+VIESz+IPTBCdE08aL6jCxhT7lPmwIED4emnn7bw0UcfteXh9u3bbfnIspElYoIxfmYCVTAPZIE9EDz3xbiUVp1OXyu/yk5E5aA2qR9BqX7iGBAMCsL7zW9+Y3xzj8GhDE8WXmfA8jPolKUchOBJ4x7Gj0Hlmv5TB/c5j8YT5LnnnrN61EfuEXKtPqTpnYAzrR+nS8aMtSfBX/v0NJgn8V+Lkys+7uyrBrV1/FGL8fo2HB+6BTJF12xwqCc0NfOeYDKX+VoC81oeGAbloosuCp/4xCfCRz7yEeMBz4Z7eFd4Ynws78tf/nK44IILRuVGPs1lQvTnu9/9bvjOd74TvvWtb1n8G9/4hh1gRR9oU2WJY/TQMRyGnp7kD9zAC3/8hvbRJ4zg3r17TXfQMZAlo6y0SmC88w+CwZ2kI1htEfdw9RAWIdd0BkbphJgmLqNAGnkqgQQiSqdJaJzViLFQVVMdFixaaIfNeBWCA3a8uuDLyDNind8yf56VZULYeY9iPXVz6sOSZUuNV1xY+obhoj2INToH3ThwyyAB+uah9gRdIyNccT66Nl2ozizyoM2ZptOFifoKyt2bDHw9ntIoJ5uscvwhBqiqKpk7fX0cruw1vXj55ZfCq6+8FI4dP2LLKj7Lwkl4PprHHGtoqA0dXYfDM3sfDQP53vDWW4dMLxuaGkfnbk9fb1i1ZnW45S8/HLbd/GfhPddtDStWrQzzFy4IzS1zw6233xY++vGPhY9+9LbQ0tIcjUyH6TPemX7Bq6urifO8JT6gX4ve0lPRw3o1ri4eC7t374rLzcXmzfm+qn/YCfat2Ctjedrc1FLUm2CGiwOs7KtxYl/gHibby4gy9Is0bAiGkPLIyQ6hRuru7Al9Pf1hoK8/dLZ32Al6zp1V33LLh79KASrhU6iHDr0Zl1WHYjxmipYSj4bT8LiDVMrmGpacxvB4UGpZbyyxXucBfqCzKCtPGjIW6jBPJ9rjlYUVy1dYe2mQF77mRaMFL/RNoD7awVgtXbLU7mOwBOL0g30CvVxKfWpfIfD8YixlMDFY/IqyadOm4t2zmEl4uWfNmelCdfoxnwyNFEPqIYw1hr7i1gsnv+dH/VkTjc7mTRujR9Vkf+SB+RpLxPmXjwZpWVi6eGFYvmyxbbZjCACeDEcd0Ek8mieffNJOuvPwRdEBD3L+HCBzcP++ffaqD8s09IX3FNEF5inznLmPt4U+8eBmrmOMtm7dahv7xroD7fJL5MJoHNnkh2fqa4594Lv1hLSPF8h7j/yhi82bN0dD1Ge2A6ON/rE9A88j0VjzCWbsC0RfMGDoODbp4ME3RvfKsE3ETX95jYcOoMQkUAhho7id0dVEGAiAAhx043vyGC0pP0YMkutIKOUtBd1Lh6ca0dQWYydDExcgRPoG4LUUvww+fUfAbFQyQacDz8NZjMHLZTZlpIfdZOdndJoMzAXmTS56XMPRJHXGZZQ2xcGiBQuiMndFnUm2HWpq6uxeTX00BoNDoTAyZHOqvj751DGE4UDRSU+Dtqgf48b9uprkc8joNkaI1Qfp9Ie8GAYMAgYFXgFtoM98QnnOnPEOAdsmbMLjhSEbytmfRYv8Up5XdSjLjwPYkXnzF0aje6HxQ1vypuCffvZ299gnl7nGoNGmfgXFyK5bd77xhw2iPXlvZrSoQANE4xRAiK2xMu39mBCiZWapSMh9vBwEQmPJz57J93qoA5poQs2GsVKdhCJdp8EvO+UA/5RDNuqzr9PDp5Gfa2SWNbkqxUTye7fCy2U2ZKSxTIeVwhstdIK/+0ecP6UlvcC48N0olJjNdJSWJSLzBSNmcy6GeCWDg8mfIcMgoH9ZP5jJqFGeuomPDJV+wALpNA9lfc0UhwSe4adoEgySM+lMafoxipwyugLRJejp7bdylMHp4fyYDBR88XoRxo04/SVOH9nysT8eXVtv3hdGi35zD8OXu/9HPy7AMIxCVADjdIbvN/MLmyw7LiTpUkRCGiM/50V0ihdocNJQGqGPzxQ0SIQiXYNxbdn7UaXhyyIbytLfLH5lqADCZ5BwlacCX/9MyuadglMlH43nZCGjlQuJ0cIo4BiwtIJf0vAatE+MTjFnMDTo2kgh+fGI9/NQVBkJ+CGdlZH6TTp18xUH6qUunAni1bmxb3BlgbIQhlOb5jggtAkv/u+gUo9Ixgn+KdvT22XpXGMwATzysjTpxKkfAwTfGCDzvjo6TTbiG8eH1RweIdcHDrxo9zFyeF/UQ3257Q/+pIAwcRepjEQqsYzLlxsjWDoahEHdJy/36Bwha1q8LpQXKme0RMoj0n2FpdIVZt33SN9PX5czWvTThyoHfFxQ3fSdhwCTz94bmwImauvdjjNdPtL1Y0dPmO6gLxgWlkIoNQ970jBcxOkDhgZiW6G3r9vKs4nOUktGC8XHW0Hf2FNSWQweRoA86DEKD9VUnfzFlUqgevkhIQnHNtGT0HtUEaOe1njEtYbxShl4TAOjhSGCV/LBP0aKX+zxqPhUljdaxOEn9+COnxb0l3YoiDGiIrPcUQBYXTbV8KLIg2sqQTAAEOVIo3IaQ2kRIo2kYY2WoEqgfOlyWeURdilCQPYGezotEnEEDfn7GG3Fs9oDMtjIJOtHgkrg685uJ3uSnPmY+lLZY2L5TA/jFXQsrBQyWmwu43GjU/CJPjAvmD/EecijT8wZNtvxckjHwGHUVq1aYfrHL3/wwH4Sr8hw7/LLL7fy6r/mLdD8zKVO2lcK1ZnLjTkVXhZ6+Vl08jei0u1mz9f2aJzoP7xjuDBW6AzXJ463hdcOvm7y4FtkGC1gffvx9h0FlJENOxIQBN4Twq4vWmztW7HXRYUIjTiGTO4r6O/P2yY0n4GFyJcF62hGOFvIqp+09WvX2dOPPujJlQxKcmwBgWkyEOKREnKffLZvECecwIRkEDD6Mv5Tgec3i/ezRmsi+UwdXjk1tsSVXglktJgvlGMu8ECnPq6ZQ8RZncgDQZfQF5wAHvjMpXPPXVNU4qRC9JS/Pwr07SnKUydzWPWL16l6WmNlimElVaTyTCQtsqN73V0dxi8eIs4OMkFeyO7gG8nhbxkt5GNG679/eK/9eogCkkBhrlFavn1DOoaL9SaGCiERsodFGi6uhAp4HYifY3nKMDhAQvRAMBLOTE+8UmDiMBno09q1a+2cCS43E4Pr6mqMVpIPGWD5xSf9RsjilT4xSTSxAWnUz3e5OWDHJJsM0nIaux5TnmxMzoipnpmXf2KURvl0n1QpzfvMwvepVP88TxPxl84rAhPJbcOGS+zYDOcKycu8Qr8AusE9gH6hR+gThogT8zz81qxabbrGfSBPi3o4ToNyzy7KP2SGC8keE/rEhw4lD/gdjGOf6EfySWn6RYhe4SChT33dPaGvl7NZySs/7R2tZnyxPe1tndFwHbe60CkMlh4CuX/4x38qYGTYTGcZiAIjWCzc3FgBjNAY6Sg56TTAkwGhS6gIEqDYGAJ+ms3ytCYaaN0nFOl6stDk0kSD6AeCu/jii63PGBb6s2rVytiGZY99TL4KIaOFMUfIeJH+aaZfXATVv3///vDAAw/YvlalSPdvfL9LGyXaTN8nTQ8g1eP5TsqMlzFp8hx9uqgyjJ/kE/06O10wdvSR+SdjwLgxF/UQZg5m3ae/3NODNQv0W7KS3ERCOdlgtDBGXT3dprQgUeRExswV6pJ+sZoh1HKwcc7Yqzc6i6UVEX2iTvWHEEge5KEO2poq+BpFKfkSYrSqqhP+olkOg3xSejg5psE20WA01tgLQB/hh2tbxUSjnI86hXHO93fbgVUMVldnu5U9/NYR0zk/p1j9rV27Nvw/SkrJ64ghZD0AAAAASUVORK5CYII=;" parent="LvfuuKePgPZG7jUSQBum-1" vertex="1">
          <mxGeometry x="9" y="141" width="262" height="34" as="geometry" />
        </mxCell>
        <mxCell id="LvfuuKePgPZG7jUSQBum-43" value="" style="shape=image;verticalLabelPosition=bottom;labelBackgroundColor=default;verticalAlign=top;aspect=fixed;imageAspect=0;image=data:image/png,iVBORw0KGgoAAAANSUhEUgAAAS0AAAAiCAYAAAAKwo+PAAAAAXNSR0IArs4c6QAAAARnQU1BAACxjwv8YQUAAAAJcEhZcwAADsMAAA7DAcdvqGQAAB8aSURBVHhe7Z1pkF3Fdcf7zapZNNp3CZDEIggICYpFFmCS2ChUYhvHgO0PqcRf7bIdJ5VUvJa/xcTfHCdVdpwUdhU2MYuxkI0NRghhCEiA5MTI2JhNCIS22dc3y0v/zn3/mTNX9715s0ky6A9H3bdvL6dP9zn3dL++d3J//Vd/Uzhy5EjYtOmKMDIyEsahqhBaW1vDiRMnwksvvWTU2NgY6urqwrx584qZYraqqpDL5SzkXm1trcVFAnkgH/dpHoVCoRgbH58Muru7re7q6mrjg1BxtenbTvPBtfqguPL49FLo6uoqxk5GJX3ydZdrpxzSdeg6HU+DuTA8PGx80k8vO0h5Jjs2lbYPSO/p6bF4U1OThenrchgaGrKQvPSlt7c3LFq0yObwsWPH7J4wODhYjAXrZz6ft76V420i/leuXFmMnYyJ5Eud3IOUV8Q196VnaYg31QNlgT4vXLgw9Pf3h/r6+tDX12dzdvHixdZGTU2NyZB8isMPccrMmTPH8qPzHW2tYWBgIDQ3N1s+ZN2fH7T7/QODVkd+aNjyUBb5gvraGqtvy5YtYcXypWHZsmVhxYoV1j7yoI+0Qxu//vWvw/e///2Q+7u//fvCjTfeGD7wwb8IA/3JIAuDw/nw5ptvhtdeey08/vjj4Re/+EXCTGyUCqmIzspQ0bgElB4AT0orJ1SEI/j4TMO3neZDPKb5BZpQIkH3CUW6Lod0OR/31z6sBD7vZMpNFZ5Hka7PZKSNFoatra3NrjW+fqwV99d/KPC8i7Lgx465j6HRgwCjUlVdO2p85s6da0YaG0BarrrG8gwOQ4UwNFJIDFe8BxHv6+kOI0P5SIPhwx/6YFi/7rywYcOGcM455xhP1BWbHcXhw0fCZz/72ZC745//pbBt27ZwySWXhNq6muLtIiLPHR1dZrh27NgR7r33XrOcWGQYksECiqtjDLwEosnrjZSPZ8ELspRQs6D6VLe/zoJPz8qTVb5UXZXA15eOV0oqUwl8vkrLlIPGQmPrryuB51+k69MJb7SWLFlic5gVSLp/vs8TgQc5Xl5DQ4PpC14iD315Eb7NUwn1wVMWSGdczPhEXjVG5nGFqtA3kA8NTc1hYHA4rL/gwnD99deHmto6y9fY3GJ5o72KHtdQ6OntG+0/3tbI8FDo7mwPPR2tYWRwIPz5tveFzZdvDBecvy4sXDA/DNNGsf1CLrFcb7/9dvjSl74Ucv/2r/9euPrqq8MVV1wRk8dPnEKuYI0weBgsXDMZLNxUnkYMCCCO4WJJRhkGDOYADYtkrCSocgITSuWZCcCL4OPA8+uNbDrfZJEun1U3afJclZbOUwl83nQcQrYQcR46jKe2AHgA+SUJisYY465raXL8+HGrj/yMN+nUxfJr/vz5dq8U9ORdsGCBKTdzizaoo7Oz00ImqpYg4glekqdw1YzNDW9Ali9fbu3SluqXnESVgDpbWlpMHkuXLo0OQIf14ejRoybT6QIjwPKOOpGXlnlcZ9UPHwJ90LgC5MnYs7yDGGP1FZ2mft2jncGhkXDk2PFQ39QS3j56LKxYuSb86fu3hfqGOaG6tt74CNHYUH1v30Bo7+oMbR2dxvNQfiDkCsOhJ6b1tLeGxtpceN+NW8Mfv/eGsGb1ytDcmBh5YHO0aLQOHz4cvvCFL4TqWz50y1cR6KpVqyKD45UhV5WzjsHkCy+8EPbv3z/qHpJOJxkUOsLEI6Qx8tAYxCSEmGAKSVc400S9agtiMBROh9J9UHgqiH7NdHvqF3FNECY7bj5jiTKwb8nkZZ8BA4QScs18YezJi6EhTh6uMXjMCYi6qQcjoL0kJjMGirrXrFljc4U09lEozxzinkKUBdAuRhFZcA95zCRJxhB9Ys4jFymuSGlZ9zzRdz24uZZRoe/IkmvN2akS9SBX6m1vb7dxQE5eR8kHH+JL8HHy0G/yMRYQcd3Tw4V06qfvcbUXBmLanMbm6EX1xrGbFy7acHFontscV2z1Vl8VVFUd8xdCnjoimWxinXW1NaErymBwIBramqpw3jmrwoaLLgwtlI/zEiBD2o//8H80eL1h586dIfef//FfhcsuuyxceeWVsGiZRxENHALhaXrfffeFu+66ywYUoTAYDACTk44w4Zj0WGWejHRMwvOQsEoJUJjofilYJ4uhSNdZ8Oml8vj2fX0iXU8GKquBSRPpoqz7UCXw+Sopozxqw1+fCkjWhCJdzya8p0VcXkg541QO/j5jKINoylwcU/2oUArwgaGQ44CxxtBj4KlDhqUU0FF0EeNGP5599tnincoBn/QFXsQ3es3ycCTai7nz5ofu3v5w3rr14aabbgot8Zq2qmqSbSP2srp6+sKJ1jbbI8Q+mKwLI6G99XjI9/aEhrqqcP2Wq8PN224Ky5ctiQ+3uHqLddici46TcOTIMfO0cnfe+b3Cxo0bw+bNl8d1ZPGuEJeHNMIviA8//LDta9EBKoMxhIZ115OTUJ3SgENAA+1J6Vnw6aXyRPZOgnVUYezwuOsM+PSsPKSJdF0OPl+5clz7CSyq9LpS+LyTKXe6IB4JRbquBFMt740WMsaz0DzWfIV0fSqAfsEL8wQ9pF22Xs4999zw29/+1oxe4myEsHv3bvO20MObb77Z0p555hnrww033GAh2zyVIC0r2scrR0bUw314qa2bY/fhEcMIX6OeXvSwAEYLo9ba3mGnEOCRPlAXdiXfPxCNVm3Ycu3V4b3Xb40e+9JotOLSMorY2HCsHDt6PHzxi18Mubvu+kHh0ksvDRs3XppptLDU0J49e0wIWg7iVdEZubssKfC2YBrAuAZa5CeAj2fBp5fKk2W0PArl56nBD1B6sLjOIt2bLtL1egPl46XSKoHPV2mZdyO80cJgAS8vzddTabTwsNQWzgGeE8uj6667zhwIjNZtt90WvvnNb4Z77rnH8sD77bffHj7/+c+HO++80/T11ltvDb///e9tCQ80fzyloblG++gyBlTLTQwYvOAFsvJiC4B2+/GaIg9JuVhndBpGYkgejBYrthMn2pKlcn7AjCjl5sTl5DXXXBOuunKz8djYWBfLw2eRmQjiGK2vfOUrofpjH/v4V8m4dOmSREBkLFJVbJTBhFk2VmEUY4WRQhgwTag9CK65Twc9af/Ep5GP/IorXfl8WFcT70WqqY5ppBdJ9ZYin7cUUecYxXV9MY32fJvcq45Pj+o4mFBVLpuUh/zZdSb11dHf0XRRkqZ7yf2xdtkL4L8kTIZJaaX/80Oavj7zKKs/iWyTfs8EJW3Ff4vTHQ0ZG9eolHFMiKt97os3yOeFN/LonsjqJSzSVCAPBwOCjrBEfPnllwNOBrrBhj7HkR588MFR7wWPDF1FHzE2nAxYv3695cXBQMdxLMhLnVkPR88vcfgAhORXHMAHRxaimQrVtXFJGOVh0or/V+VqLISPwWik+qPxyg/0h6FBfkwZDn3RyBXiQ4CzWqtXrbQjE01NjbHOZE9rlI04TqwS2dN64okn2CtLNiGzQLLvFHF/jUAp70l5PKXTff5RA4OiOkKgp4PUvu+b530ikpwkI0+JTLPjgAkFTeSFnsXsQ2MDpcc2TVlzJD13dD1Z0lykDh7yhMwP0u6//377RR+ngnwYIzbm8Wy+/vWvj+5By3MkD+BXTJDV3kxSrnq8PGi/Li4FIQxVQ32dEdfVUbY1MR87/H4FhQpIDwitvlz8h6Qs8iCzDIyYggmR7um+v4Z8Xk/pfJOhuvhELEdZZU4FST4iDdxE5BUlbbD8PcHHz2LmIDlrXNLjqTHNSk9T1vyYDKke2sMoEcdIcY8tGYwSXpN+OcSwiUgnDQ8NEPdItzVVwsOCTkov8i0izet+XW11qK+LuhrDaN+M4oIS58w8K8KsGW6e1kRgAMnnGYIJa7jonShd+dL5RT5vqet3CiEDT/RvojiEbAmlPNBZzBwkTy9fEbJXqHFQ6Ck9ZlxXRNVRuaGse47SdSuENxktDJau2U/GcJHOcozlIr80clA27WmxnQPIO5skmULi3+sHtqM+Gju2fxJ5R2epwD5eYriyQF0xb7JGLQcNmhoTUz4OScieWVHC1PiJoLgnn+90U5q3yVBWeV/vRHHJ7SxOPfy8hbLGR9fpNE8YD3RE9dTVN4SB6P20tbWH4aFC9DIaopbGvFFFk33b+tDYkJxBY19KdUu/5H2zX8VbKuxvcYwA48XBS/atuMZg0fYbb7wRXn31VfOwxBNn7NiHJhT/s0W05+U3ZiuQXbK9hHzq8bTimpDlobdGOZaDtuZLTiAIE3paCIqGyadGCGFCjInIBxQC4lnky/g6ziRK8zwZKlXep5eKi2Ya6SXnWZRHejwgxik9VkpL32OJxv6TpefwgJID2YuWLI5eRr0ZFukQ+SB+7AK8NMx4QapXcTwrDuryjh7EUYPzzjsvrFu3zjbdzz//fCM8LQwceQnT4696Z4skGy8j+mu2JFJtcQtHMiBfFjzfJtuf/fyRwurVq8Mll2yIwhjfqZpoDbu6ekyQL774Ynj99detEL9CmGsXB4W4TkKTBhO+cd9gWmigkvvamEvfrzo5+ziMTEPvJ+ILlBJyFnwdKufLZ9VVqt3pYjJ8n2pk8TZb/FYq38mOA/nhuZArGqL8UFyi8bWEoTBcSByA+uhZsZ9TWxcVOXaPMrxcnB8Yit5YchqfX4/xkiDK4FE99NBDdu4Kb4mzWh7ooQcOBsYMI+dfq5I8JyvXUmMjwiMay1Nlr/rQNnyzr9bZ2W7HHThC1Re9wbYTrYk3GgWAkb3qqqvMqDdw3jMasSgUq2loZNj6f/To8fC1r31tzGjxdnV6cGS0WBNjtA4ePGhMYbURCEYKoyVrTho0xniCrEFXGoNDfq6hrLKn02il2/RI81opfLlScd9uOR6miqnyPtvI4mu2eK1ErtORfS4uYpjfRPY+vy/sePAnUUkTY4ISf+gDN4et77nGzjexXHvltdfD3T+4J7x95ER8+FdFxe4K73v/n9hJczwRynDI+9prr7XjAeifR1NT8h4woFnpFobi0KFDtr/FtZen4pXMcx+SHyKOQUmuk3NcygMPGC6cnt7e5P1FDJad04qGrCMuk/mxIHbVPESMFo5QY7QnZrRArBejRf+PHTsR7rjjjmQJqfMbpaB7YlAkl06hKOu6XB7VrbiH0iHVc6oozU+aj3J86V5WHp/uoYkgefv4TGO26n2nwY9V5YQyJ0s5gIfz1ltvhR/ee1/Ys3dvePa5feHACy+GpsboGRWqQlNzQ1TugdDT3Rd+9MBPw47tO8OLBw6FR3c+bqfGqTPOGiP2vmqqopGIXlk15wId5fsHw/DgSLwXH+hxarFHNBKXpMPRw+PBr3yqqxLy+anDHIjisYR8f19ML8Q8pMVGY/o4sl8C8Rhju8z92A9CnCGMci17WTGei7aEXSvRKKiXjsRWEkrGo2jOkgsq8NC8xsWT1ZaxShsukA7TIF2kcj48k0h9gzzfWZSFUumTQbqdNE0X73bDlSVTT1nIyleO4mrQPP5EhUNYd8GF0as4314ih05CLLBsxblh46arw6JFS2x5hwHQWLHUYrnIVyg4He/pscceG6Odu8Lu3U9YfvQXaF5n8SlKgzTpATzgGUHYA51+Z4nn8ykv6fQ6Xsb7Y15Z2nZAE4H6JINYLrFbxWAcinlGoQZ8Y4orFHTfkwcMkEY5X99sk0D7CJ4BhRCwJ9LI7/vlr31dui5HZyo0Ec7iZGSNYynSPPaU8hsikgOifLqluYUvYWR/ugfPjEOiKDZbL5qjkJT9V7/6VfjMZz4zjj796U+HT33qU+GTn/yk0ec+97nAPjT1UY5lqTa+s/qQJtpRnDL8Grlv377wy1/+0t51hPg46O4ndkXvcU/4n6efDLse3xl+9vPoLf5ke9iz5+nYm8R/Suoa80AT+VQOzVPjC2YmAgUgNZbulEKgMAsqJxIUT9+fCgmljJKuuecVNl2PyhPXIPv8QHn/0JHu11kk0Ph6KpWeRVno7esP3d29yYb7AO87npwPTwYPiZC5iqEB0lX2hUjniIMnvC+OPrAU5UgE1+wncY/6mM9CFo/MA0h67nUdvPLKK/YaDa8N3X333eHb3/62ncjni8aPPPJI2LVrV3jqqafC888/b59Gps0xJLokou6pwMqWM1qazIS+Md8hhUDhVKD6zxSSUDXQSj+V8Pykyd+fCbwbDZeXZxalkU5P5/XXSdrJitnYmLyjOxiNlg59sq/lwZxj/pFPP3jpRy6MEMQxB35x4zt4vDvMNcck8NDYoyYvP7CRJsMHEZdhSvMLkZ7ljQHqJJ3yEC9AX7bxj8yTY3+qoaE+LnmXxnZXhi1brjEvMQH9m5qREjQ/jUcZLaz+0FDanU0gJumQOktIWd+5yULl0uXT6aeTAAOtvvun1TsNmhhnkQ3pgZCWV5b82LD2v3LXVke9id5VXX3N+F//nOFir0iGhjrl8eN5YTj0cUT2xHiVh18eyadDpZTj13zeMcQrw/hxD88HQ6k9KQ/qpxw8pee/gK5TTh4dxpE/dnPo0EEzYPxoQN3sufHiNvdnAmm5Rj1MhIX11jtKaaiQOkIZ3ynFdT0dZNVJ+wwGPCJ4PsnBYOz/v/8Nx9ta43jnwlBhJPTlB0J+eCj0DvSH1o52W4OT3/OL4Okn7jOEkAGDRTsy4qzVf/e739k16RrMs4br3QNk4Unw1z4d6F46XWC+5fP9cR6hfMXEFDAeMizJlgZxvu01FI3RnOjBNMZ53RPb4JApZ7j4OinzlnnpKZgxoT4MIQbP6wK6wReJ+VIESz+IPTBCdE08aL6jCxhT7lPmwIED4emnn7bw0UcfteXh9u3bbfnIspElYoIxfmYCVTAPZIE9EDz3xbiUVp1OXyu/yk5E5aA2qR9BqX7iGBAMCsL7zW9+Y3xzj8GhDE8WXmfA8jPolKUchOBJ4x7Gj0Hlmv5TB/c5j8YT5LnnnrN61EfuEXKtPqTpnYAzrR+nS8aMtSfBX/v0NJgn8V+Lkys+7uyrBrV1/FGL8fo2HB+6BTJF12xwqCc0NfOeYDKX+VoC81oeGAbloosuCp/4xCfCRz7yEeMBz4Z7eFd4Ynws78tf/nK44IILRuVGPs1lQvTnu9/9bvjOd74TvvWtb1n8G9/4hh1gRR9oU2WJY/TQMRyGnp7kD9zAC3/8hvbRJ4zg3r17TXfQMZAlo6y0SmC88w+CwZ2kI1htEfdw9RAWIdd0BkbphJgmLqNAGnkqgQQiSqdJaJzViLFQVVMdFixaaIfNeBWCA3a8uuDLyDNind8yf56VZULYeY9iPXVz6sOSZUuNV1xY+obhoj2INToH3ThwyyAB+uah9gRdIyNccT66Nl2ozizyoM2ZptOFifoKyt2bDHw9ntIoJ5uscvwhBqiqKpk7fX0cruw1vXj55ZfCq6+8FI4dP2LLKj7Lwkl4PprHHGtoqA0dXYfDM3sfDQP53vDWW4dMLxuaGkfnbk9fb1i1ZnW45S8/HLbd/GfhPddtDStWrQzzFy4IzS1zw6233xY++vGPhY9+9LbQ0tIcjUyH6TPemX7Bq6urifO8JT6gX4ve0lPRw3o1ri4eC7t374rLzcXmzfm+qn/YCfat2Ctjedrc1FLUm2CGiwOs7KtxYl/gHibby4gy9Is0bAiGkPLIyQ6hRuru7Al9Pf1hoK8/dLZ32Al6zp1V33LLh79KASrhU6iHDr0Zl1WHYjxmipYSj4bT8LiDVMrmGpacxvB4UGpZbyyxXucBfqCzKCtPGjIW6jBPJ9rjlYUVy1dYe2mQF77mRaMFL/RNoD7awVgtXbLU7mOwBOL0g30CvVxKfWpfIfD8YixlMDFY/IqyadOm4t2zmEl4uWfNmelCdfoxnwyNFEPqIYw1hr7i1gsnv+dH/VkTjc7mTRujR9Vkf+SB+RpLxPmXjwZpWVi6eGFYvmyxbbZjCACeDEcd0Ek8mieffNJOuvPwRdEBD3L+HCBzcP++ffaqD8s09IX3FNEF5inznLmPt4U+8eBmrmOMtm7dahv7xroD7fJL5MJoHNnkh2fqa4594Lv1hLSPF8h7j/yhi82bN0dD1Ge2A6ON/rE9A88j0VjzCWbsC0RfMGDoODbp4ME3RvfKsE3ETX95jYcOoMQkUAhho7id0dVEGAiAAhx043vyGC0pP0YMkutIKOUtBd1Lh6ca0dQWYydDExcgRPoG4LUUvww+fUfAbFQyQacDz8NZjMHLZTZlpIfdZOdndJoMzAXmTS56XMPRJHXGZZQ2xcGiBQuiMndFnUm2HWpq6uxeTX00BoNDoTAyZHOqvj751DGE4UDRSU+Dtqgf48b9uprkc8joNkaI1Qfp9Ie8GAYMAgYFXgFtoM98QnnOnPEOAdsmbMLjhSEbytmfRYv8Up5XdSjLjwPYkXnzF0aje6HxQ1vypuCffvZ299gnl7nGoNGmfgXFyK5bd77xhw2iPXlvZrSoQANE4xRAiK2xMu39mBCiZWapSMh9vBwEQmPJz57J93qoA5poQs2GsVKdhCJdp8EvO+UA/5RDNuqzr9PDp5Gfa2SWNbkqxUTye7fCy2U2ZKSxTIeVwhstdIK/+0ecP6UlvcC48N0olJjNdJSWJSLzBSNmcy6GeCWDg8mfIcMgoH9ZP5jJqFGeuomPDJV+wALpNA9lfc0UhwSe4adoEgySM+lMafoxipwyugLRJejp7bdylMHp4fyYDBR88XoRxo04/SVOH9nysT8eXVtv3hdGi35zD8OXu/9HPy7AMIxCVADjdIbvN/MLmyw7LiTpUkRCGiM/50V0ihdocNJQGqGPzxQ0SIQiXYNxbdn7UaXhyyIbytLfLH5lqADCZ5BwlacCX/9MyuadglMlH43nZCGjlQuJ0cIo4BiwtIJf0vAatE+MTjFnMDTo2kgh+fGI9/NQVBkJ+CGdlZH6TTp18xUH6qUunAni1bmxb3BlgbIQhlOb5jggtAkv/u+gUo9Ixgn+KdvT22XpXGMwATzysjTpxKkfAwTfGCDzvjo6TTbiG8eH1RweIdcHDrxo9zFyeF/UQ3257Q/+pIAwcRepjEQqsYzLlxsjWDoahEHdJy/36Bwha1q8LpQXKme0RMoj0n2FpdIVZt33SN9PX5czWvTThyoHfFxQ3fSdhwCTz94bmwImauvdjjNdPtL1Y0dPmO6gLxgWlkIoNQ970jBcxOkDhgZiW6G3r9vKs4nOUktGC8XHW0Hf2FNSWQweRoA86DEKD9VUnfzFlUqgevkhIQnHNtGT0HtUEaOe1njEtYbxShl4TAOjhSGCV/LBP0aKX+zxqPhUljdaxOEn9+COnxb0l3YoiDGiIrPcUQBYXTbV8KLIg2sqQTAAEOVIo3IaQ2kRIo2kYY2WoEqgfOlyWeURdilCQPYGezotEnEEDfn7GG3Fs9oDMtjIJOtHgkrg685uJ3uSnPmY+lLZY2L5TA/jFXQsrBQyWmwu43GjU/CJPjAvmD/EecijT8wZNtvxckjHwGHUVq1aYfrHL3/wwH4Sr8hw7/LLL7fy6r/mLdD8zKVO2lcK1ZnLjTkVXhZ6+Vl08jei0u1mz9f2aJzoP7xjuDBW6AzXJ463hdcOvm7y4FtkGC1gffvx9h0FlJENOxIQBN4Twq4vWmztW7HXRYUIjTiGTO4r6O/P2yY0n4GFyJcF62hGOFvIqp+09WvX2dOPPujJlQxKcmwBgWkyEOKREnKffLZvECecwIRkEDD6Mv5Tgec3i/ezRmsi+UwdXjk1tsSVXglktJgvlGMu8ECnPq6ZQ8RZncgDQZfQF5wAHvjMpXPPXVNU4qRC9JS/Pwr07SnKUydzWPWL16l6WmNlimElVaTyTCQtsqN73V0dxi8eIs4OMkFeyO7gG8nhbxkt5GNG679/eK/9eogCkkBhrlFavn1DOoaL9SaGCiERsodFGi6uhAp4HYifY3nKMDhAQvRAMBLOTE+8UmDiMBno09q1a+2cCS43E4Pr6mqMVpIPGWD5xSf9RsjilT4xSTSxAWnUz3e5OWDHJJsM0nIaux5TnmxMzoipnpmXf2KURvl0n1QpzfvMwvepVP88TxPxl84rAhPJbcOGS+zYDOcKycu8Qr8AusE9gH6hR+gThogT8zz81qxabbrGfSBPi3o4ToNyzy7KP2SGC8keE/rEhw4lD/gdjGOf6EfySWn6RYhe4SChT33dPaGvl7NZySs/7R2tZnyxPe1tndFwHbe60CkMlh4CuX/4x38qYGTYTGcZiAIjWCzc3FgBjNAY6Sg56TTAkwGhS6gIEqDYGAJ+ms3ytCYaaN0nFOl6stDk0kSD6AeCu/jii63PGBb6s2rVytiGZY99TL4KIaOFMUfIeJH+aaZfXATVv3///vDAAw/YvlalSPdvfL9LGyXaTN8nTQ8g1eP5TsqMlzFp8hx9uqgyjJ/kE/06O10wdvSR+SdjwLgxF/UQZg5m3ae/3NODNQv0W7KS3ERCOdlgtDBGXT3dprQgUeRExswV6pJ+sZoh1HKwcc7Yqzc6i6UVEX2iTvWHEEge5KEO2poq+BpFKfkSYrSqqhP+olkOg3xSejg5psE20WA01tgLQB/hh2tbxUSjnI86hXHO93fbgVUMVldnu5U9/NYR0zk/p1j9rV27Nvw/SkrJ64ghZD0AAAAASUVORK5CYII=;" parent="LvfuuKePgPZG7jUSQBum-1" vertex="1">
          <mxGeometry x="9" y="175" width="262" height="34" as="geometry" />
        </mxCell>
        <mxCell id="LvfuuKePgPZG7jUSQBum-20" value="" style="html=1;verticalLabelPosition=bottom;verticalAlign=top;outlineConnect=0;shadow=0;dashed=0;shape=mxgraph.rack.hpe_aruba.switches.j9853a_2530_48g_poeplus_2sfpplus_switch;" parent="LvfuuKePgPZG7jUSQBum-1" vertex="1">
          <mxGeometry x="9" y="209" width="262" height="30" as="geometry" />
        </mxCell>
        <mxCell id="LvfuuKePgPZG7jUSQBum-21" value="" style="html=1;verticalLabelPosition=bottom;verticalAlign=top;outlineConnect=0;shadow=0;dashed=0;shape=mxgraph.rack.hpe_aruba.switches.j9853a_2530_48g_poeplus_2sfpplus_switch;" parent="LvfuuKePgPZG7jUSQBum-1" vertex="1">
          <mxGeometry x="9" y="239" width="262" height="30" as="geometry" />
        </mxCell>
        <mxCell id="LvfuuKePgPZG7jUSQBum-19" value="" style="html=1;verticalLabelPosition=bottom;verticalAlign=top;outlineConnect=0;shadow=0;dashed=0;shape=mxgraph.rack.hpe_aruba.switches.j9853a_2530_48g_poeplus_2sfpplus_switch;" parent="LvfuuKePgPZG7jUSQBum-1" vertex="1">
          <mxGeometry x="9" y="269" width="262" height="30" as="geometry" />
        </mxCell>
        <mxCell id="LvfuuKePgPZG7jUSQBum-4" value="" style="shape=mxgraph.rack.cisco.cisco_catalyst_6504-e_switch;html=1;labelPosition=right;align=left;spacingLeft=15;dashed=0;shadow=0;fillColor=#ffffff;" parent="LvfuuKePgPZG7jUSQBum-1" vertex="1">
          <mxGeometry x="9" y="299" width="262" height="100" as="geometry" />
        </mxCell>
        <mxCell id="LvfuuKePgPZG7jUSQBum-10" value="" style="endArrow=none;html=1;rounded=0;strokeWidth=4;" parent="1" edge="1">
          <mxGeometry width="50" height="50" relative="1" as="geometry">
            <mxPoint x="370" y="150" as="sourcePoint" />
            <mxPoint x="440" y="120" as="targetPoint" />
          </mxGeometry>
        </mxCell>
        <mxCell id="LvfuuKePgPZG7jUSQBum-11" value="" style="endArrow=none;html=1;rounded=0;strokeWidth=4;" parent="1" edge="1">
          <mxGeometry width="50" height="50" relative="1" as="geometry">
            <mxPoint x="370" y="560" as="sourcePoint" />
            <mxPoint x="440" y="600" as="targetPoint" />
          </mxGeometry>
        </mxCell>
        <mxCell id="LvfuuKePgPZG7jUSQBum-12" value="" style="endArrow=none;html=1;rounded=0;strokeWidth=4;" parent="1" edge="1">
          <mxGeometry width="50" height="50" relative="1" as="geometry">
            <mxPoint x="440" y="600" as="sourcePoint" />
            <mxPoint x="440" y="120" as="targetPoint" />
          </mxGeometry>
        </mxCell>
        <mxCell id="LvfuuKePgPZG7jUSQBum-13" value="" style="endArrow=none;html=1;rounded=0;" parent="1" edge="1">
          <mxGeometry width="50" height="50" relative="1" as="geometry">
            <mxPoint x="390" y="350" as="sourcePoint" />
            <mxPoint x="420" y="360" as="targetPoint" />
          </mxGeometry>
        </mxCell>
        <mxCell id="LvfuuKePgPZG7jUSQBum-17" value="" style="ellipse;whiteSpace=wrap;html=1;aspect=fixed;strokeWidth=4;" parent="1" vertex="1">
          <mxGeometry x="164" y="567" width="30" height="30" as="geometry" />
        </mxCell>
        <mxCell id="LvfuuKePgPZG7jUSQBum-18" value="" style="ellipse;whiteSpace=wrap;html=1;aspect=fixed;strokeWidth=4;" parent="1" vertex="1">
          <mxGeometry x="285" y="567" width="30" height="30" as="geometry" />
        </mxCell>
        <mxCell id="LvfuuKePgPZG7jUSQBum-25" value="" style="strokeColor=#666666;html=1;verticalLabelPosition=bottom;labelBackgroundColor=#ffffff;verticalAlign=top;outlineConnect=0;shadow=0;dashed=0;shape=mxgraph.rackGeneral.rackCabinet3;fillColor2=#f4f4f4;container=1;collapsible=0;childLayout=rack;allowGaps=1;marginLeft=9;marginRight=9;marginTop=21;marginBottom=22;textColor=#666666;numDisp=off;strokeWidth=4;" parent="1" vertex="1">
          <mxGeometry x="700" y="150" width="300" height="417" as="geometry" />
        </mxCell>
        <mxCell id="LvfuuKePgPZG7jUSQBum-39" value="" style="group" parent="LvfuuKePgPZG7jUSQBum-25" vertex="1" connectable="0">
          <mxGeometry x="9" y="21" width="282" height="302" as="geometry" />
        </mxCell>
        <mxCell id="LvfuuKePgPZG7jUSQBum-35" value="" style="shape=image;verticalLabelPosition=bottom;labelBackgroundColor=default;verticalAlign=top;aspect=fixed;imageAspect=0;image=data:image/png,iVBORw0KGgoAAAANSUhEUgAAACIAAADnCAYAAAB7YoTFAAAAAXNSR0IArs4c6QAAAARnQU1BAACxjwv8YQUAAAAJcEhZcwAADsMAAA7DAcdvqGQAADeNSURBVHhebd15kJ5HeSDwnm++mZE0Gh0jy7JkS77kS7It29jYxvjEAQzGGAoIgUqWkPyxSS2wWaoWL2GBStX+s7VJiqI2VSQkG9hNiiOAwWBsDBjjA2yML/BtWZZsWfc9I2nufX5PT4+01Ha5/b5vv93P/Tz9dL/9jXq++MUvzHQ6ndLb25u1p6entDIzM1OmpnqK9/Pm9Zdut5vv1YmJqdle02V6ejr7trGTk5NlfHw8+kzEmE62gz02Npbv3Bszb968hKNvzxWXXzZz8sknF3VwaMFcJ4N02Lf3QFm1alUOGhwcLP39/aWnM1MGBgbKggULyuTEdNm7d28Ssnv37hyvIHrfvn1BRG8wUsq8+f1l586d0WdXGR4eLjt27CxnnHFGefbZZ8vy5ctLzw3XXz2zdOnSMjQ0VDrdCgTQo0ePZu3rDoRUpsqvf/3rcuKJJ5abb765DC0azH7ag9fk/LXXXit33nlnIu/r6ytvfvOby/z584OZyeg5XZadsDTh7du3NxEfOjRSlixZUl5++eVktHfdunM/v2bNmuRuT3B28MBImZoMiRwdL4cPjwU3PTmAdBYvXpxiPnp0LCS1v+zetSf6HC779+8vr7zyShKDW4ydeuqpZc+ePWV09HD0PxKEDKfUDx06lPBOO+30ZICk9e329/fFzZpQxXh5ZcvmpHpqaqYcOXIkOOnkMw4uuuiiHPj444+niBFW1dBJxHv27CvnnHNeufHGG8uiRYvKc889V5544imCSzuh1pUrV5bt27clvIULh8rBgwfLihUrksAOgKhiF6TRDO3QodG8B5S+IXPPdl544YXy9NNPp37VF198MdXwjne8I7ljPyREWuyH7ZAklSP+pJNOyivCMOo+zKgEkuFEomPQkzqGXOExuEGU9pdfpoLXUwLbt+9M8b/++uv5joohhJyaIMEUGIycjUFK2lSoL3VjsrNgwWA29PfPS4MFUOe+vurKuEMIIg8eHCkjIyMJWGGso6Ojaf3r169PBNRHddrBwRBpGd8Y3LVrVxK5devWtE3vem5+500zF198cb548aWXyCC5Z1QA9PTMpE4RRAKI8+7AgQMBeCAMb1FKZdmyZSlVYzdvrrbmXn90X/XmK9Me9u/fl6oZHFyY0qLalOSFF144A8CVV16ZHMzZSxgSDgAkAVQrRIwLfSECjBQUbfr29tagR2LTUTFEElu3vpqIzzprbdrY1VdfXW7/7vdToj1Bzczq1avL+9///uQccIRQASSAQIwA7QhqhOnr2lTgXh9xg1GTXDfeeW/8a69tKT/96U/L+eevT4Jo4t++dXt5wxveUDqAsQ2AAGmcAOJK7KxfaQSQAESqMY0QY1V92Mj27dvTw8DQr4b0iehTbQxxc7AN0gFSFTLAGB5gBmrXT7v3kFJbMz6lSdJ77a6ed4XrjgeMyYAxPdMTgasv5BWEBvyeXn0HsnZwU6msHqJQBzUhkJtRDcBKI+aYPfQmkYg9/v3ChQvTKC+88KK8VsPnnf05pvav0sdEjKkcKmyicQ8QYvg4grTh0LVVgBXtimf3KsQC1mmnnRaqX5wEkNR04NcP02ojvEMaKNRRQ/MIz4hpRDbEOSiqPgA1olpxjxB9G3KMdDpVna0dw2CTRkpEIxdtiHgL21DcMyaVYRrQRNmkgKiGvMFQPTdjJh04SBwxnutcVl0+x/3xH/+7zEeoAVGQKPCgGCKDSApgSEgKYP09k2qKfZa4Ng7Rx7/nidu2bSuPPPJo+e1vf5upwsknr0jcHdFOVBTzASZu7sw2XBFgjoBcH8YLkfsmdu/0a1cFp+5xry/CwPS8c+f2JI57M+QkBBcoJTaDzSsDAzUS4kZbU4uwrl+TDEIgcE+NJOe92mbeI0dGc25R9HFfvXM6CByaU2HPddddM4Pz66+/vlx77bUxeV0wpzdI2Mvf/d3f5Tzx7W9/OyMiCX34wx9OohGBc8wA+PWvf708//zzSQy4EOL4iiuuiIh6fvnhD38Y1wvLN77xjfLBD36wPPbYo4mvQy24VeWXqPWCRFxlXzgxH910003l0ksvLe9+97szvTNWtgUhnX/uc58rr776atqP0mZZTDVXJTVz0fz5A6HW/lQNyXbpDCcZ3UICigFEhjh2o/zyl7/M6p2Q/aMf/SiNkTRIRu7pmfowYCxmTHozAas3YC8IXEFVpKLjkXSHOkJaxmM2Iitrr/6PIMCaWlAKsWfJD7U888wzkQI+kSmjhLplauxBX6UxgiCIGsFjY0dCMn1zrqvQQmb6DRGkuDe4uWE05z3O9GGAOFWa+HEjEZI28ATMsBd9wQKXt+hP+mynGfi0MBvFc4eYqkbqhKXMERMMZqfZgQht3tRiiHcQIxARDZH3rn1xHQmDdzXp9USEtWyZmAqGEnYJBmK1ABhOiA8wBDTVKJ5bW7s/vraxrhgwTvXOc2uHRwFHfwzph/CcAoiuibC9bIMU9622Algr+jfVteJe9c6CCzHuW/tAf+Sw02ESUeFOBhiOjurvlumZOnk14hoxx983AjyTgoJjhYS5bWOS6tpYMJvE0mu4XkvtlQZYaYDb4MbR/69PE//v2pB2BVGQSw22bNmSgVKSbVoQjzomvLPPPjvdqwFriNozAMdL5fjaEJGCcbiG1DuFxLUJiqSzdu3ZsQp8IZcmTz9do3Qk8DVVNCk1AJ4bkED1/yCda5+9tmIMyYiyCFMRppI4JhllWFQSgziMNefQp4MALw06HpkObASS42u2R23PChsQ5teuXZuh37wkZoBLRcdLGxHUAYZABka6PCCCTevYgCueDUC9ds/6NWK0e27BDRGIMbmdd955SQhbsPxkAi2oHXOM6SBiMtoGS5d4+LEOBgjV2lAZfJcjo4czYJn0Lr/88iSmiRRxLciBccIJJ6RkITKZqVaKl1xySa7mIG0BDwwF3tTGX376tpnls4mPeacBh1C63xtrEINbvNEOEMTu9ffcCNPWkNX3UxnulZGRupfyL//yL+k5nORd73pXem3mrIAcjwhAwFQ2BGizoSYtYm7rHvfaXfVRwWzS4Qwt6BnrXl+45/B+7rOfmVkUHbnR0aPjaUwAAWIxNDN1LJY0LhVAGyJ5RxvTrgoENmmohcRt3JnFJUWu1rzvfOc709C7gKMK59u2bU9/1wZRzERl/Ogxt8YNTvVVIbQJIy1oktPPVT/XlStXpNH++Z//edjZkmxTqatJJOcawBUDVYNUHTy7GgCBe2JV3au4Rijgin7NKxocHtPSRxJrY41TlVxyAoIj0mBMsms5hkxMlWsQvz5zA2cRI7IV7yBo71zZgrHEjzBSVPXFEMJSmrk4Ds4RNDy8JPz/nHLWWWelRa8797xy7rnn5r7YBRdcMCsZsaQPmgBybDsUQDBIAwGes85YF42FYVfbQ6grIsYmrBy0hS01qmVRkL/pTW8KvZ6cFDd9Q0AyX/va1yI9fDyf1SYdoZ006VpVMIfwRYsX5k4AWK14l0R1B47haciIx17GD37wg0yEUax4b+Ddd9+dG7oClL4AQSoGiKJnnnlmOeWUU9IeEMZl3/a2t4VX3FTOOfesIIr71m2PCruT0gOfypIQVbGuER2/9a1vlQcffDAHqAgRXV0NWrDAoroGOvo25pxzzkliTPMQbNy4Maf34WG7CfY/KlOTkZoa557EwE91At78HhJrFr796KOPlm9+85thaDuic13/igWAqDjUDhiiGhzXNuE1jlXt+pGi9yQKDptRctLTaJBZ0v26devKBz7wgbxvq7uAkQCbHUDETprUFLCoTT/wbr/99pCu8c+VsaPVpScnTXQ1ZMDHRtJrDMIpIC1Uq0RMMpKWe+65J+cGKzODESK8yyNwimCEaQcHYdpMoi+99HLuaPM2eyTGq9PTdQu14U+HRwCxNUPCaaP4jW98Y3nve9+bxidUEz8kZmPjEACYNu8Q4tk7sWPlST7BrJ7bg6ViV3jmL6hbZZ7DRgSl+gGH2FAOqIJbAH/zm98k9WNx3xd2EZNyGY9V24JYv05PTpX+bgSxyOYQAaiKcIQtGV4WsMfKxOSReM/lQ4KlxqGYEJJp4zKy4oA0judMERGt7i2wAX7ppZcy4tIpzqhHYbDUYpx4YzKTgyDIWhhDYDeJkUZra/EobcQDYAxM8YLXfOUrX0nX/NjHPlZsCiPWFAAIxEQvYC0cWpAfk6zwp6YmUv8LF0oPe3K/PY3xONVjFgx44QQrbYSeWbIX5pW77rqrPPTQQ7kN8Za3vCU7yrbMmFREQoLec889E2p7sjz11BPlkUd+WZ57/pnIF2KFPxhG2x9IJqsHQdoqJhsRpGMXwlQRBHZn40J/2bFjR67yGekf/uEfVmsOLohUP/cG+5x2+PBIAtNmLOCHRkfKL37xi+QSzAZb+NfmWTWOVLzTDn7AqXOJF1yUl/zBH/xBhun2jmFRCe4qh5OpMpJiO8YKUsI9pLOA52yiVW0kol0BGxPGdjRSjQ4+l9mohwxwVxQb0O3WnMQgzwy1jiNmMWi8bNn8WkS9iJ4DYR+dvvCqhYlQv98lrDJUY1DOXZ/97Gfz6wSR4VLKiEpiw3ETn23JnTu2pTufddaZx+m6egH7eW32Q1DjXC2lGwSMlSVLF+Xie+fOveX7d9xZnnjysWD6gvKOd9ycwbP32muv/vwJJyyLznVDBqdc9OhRu4J7wv0OJjGA+iC4/MQVicg6sDfiQl9fSCjiSF//QKjGntrSUNeSSCuGg7HlMfEtifXOKUF0KDhmvpGRQ5GtPRuhYWcsxFYFU2dE3zCDpoJ2lYNCzP9rxlY/DrrfvXtn2bdvTy6eeVe3tz9jjUQY8cZYFzF6bivE25aQJoo7GKAmksYYyfMYwbTbiPB9144gcdMliXjXF1ICBBJfMxsyCdQt77o1M3JqqWqo2T5k6UXh6mbpsbGJ8nu/93tzn2zBJ30MIyTxGwCh4gVD1AaYQlUol9RYIoon8o6nf/tsbmc++ugjEVeeihn26fLkk49nbCFFjEghSIYEGnK4EN0MWJsN5kwDWgepogSH5wjRPnFdddVVyUlLeCQ2Sm+35p3afQo5/fTTk0iTG4PFJYlAygkg1eZdcwI4eUxG3nSd6KDRItpH5Le//e0pSsvBd9x0c7nllvckQQYfPGgbvOa4JywfztgBMEm6CoItwOmPAKsC8N2TsHcKRiRX0VyNFRBXAxiXQa2z9e/E5EQZc9ggBgwOxRo5vGUmQnk3wjjkCqTEX2NON3MVoQBik6UiBtFA66O/MktkTZxdzZzf+c538nO6Zx1ips7BBrqyExMa4/a+ja0ecGzZSUXyF0uTFqdEZ4RjkprBIw3pQU56Dam1i8Hf+973yv33359cRrhIrvKzqV3AiJxTYyGd6eBilptWEWBGhgBh/QPdculll0QwszFTtz9qEhZMdcNAe6QD8t2cmWs2biCqnXaQIj755JOZzXNpYuai3qtNlTjzjAgcupLQnItGnBF/Fg0tmesHD0KnpqULx0J8B7d0J1Y0I+Oef/Inf5IDZPIPPnh/AB+L1K6KVc6BGNW0nx7UV/MNHCNE7FBfeP6lOZVpbyUl2Dkmzdze5GIodgVMgeR973tfuf76a8svfvlg5B1PpTsiyBgEVCA1t2gcV4nUrxQirKgMZouoTZJKI5AAOjhoURGgJi4DXdmN3KT1ASwjZt+8OTEb5z2gTVK4B5ukTQf6tCCJMIQrtOFdSiQpmn2JkEaxDlT38MMPB8D6lRK3CxYsTCK9Z82QsQVXMKSICriIM3NLE/QH23v4vCNBJW0ENzrhRAdItJnc/vmf/7lsfW1b7gpAor/zRc4OTUYGPzUZOcq8wTRIBSLSoEK2tHDhomDgWEgHu8JHWJVgpg5E0yTSYgLOH3jggfJP//RPSYDvd9y6L5KjgVh6IBo3kiXuKmu3ELfWbSpVJqdqkAO32ZDa3lOzZx6ZlulwUzW4/piktsWM+m/lsceeiJTxw+HOb83gZCutMxD2ECF5QURX21CI6O/GGjcIh/S009eUy6+4tJy37pyy/vzzkngB0AwMfpV6uG7gE0tkd1Mz0oHIhxGiE6NzUkpkDaGkga5de0ZSj6ukPqiZHK/Z2saNL+as+/wLz6YNPffMs2Vp5K82e9esWZ0ToA0eV3bYbI/EWyUlWRuCus23q5WPl2uuuaasX39eEoebKq1YwcX7NLSQ6i03v7MsCt2nGkTJefUrtwkRoYuHYgaet6CMHKwbxQ0H5KTC/rS1a5oGQ/Gg0znnnJX5aNVhTZAQ5GqQdv2F94mJ8TIWuvWBeSTSyal4ngwVcdWWpYklxhnP7hABD+mr7sFM2xT9qn3UgMb3W3p48ND+nKgOHtwfwGo/ALVt2rRp7kvnI488kvfWNPfdd19OD3afwCBFyFxbAQcR2uBFVFcn1YsGlJ+PjB7MAaMj9dPoju2vB5FHykAM2h1J9eih0RQ7la1afUqqaX9IY8+evTH9r0i3lQZuipm8SRPSJh1tTU0pKTcMkXpaUtOMc2wsZkqmEuF8cGgw+wTFZfvOXeVArOq2vL6tbN2+I9LE53PT10HI0SOHy0sbN8XSYls5NHI44SCgSUap3lO/upujxJS0kTo1V0OSayp8G1ExLN5VPfbPixAd9zX21BAPmOdJLhlGbWpXuLbPH5dddtlcPtIIaPeEgLmhYDJ3no+9GJ8LSKbwTk/dnu6JSL4g1i19wdDQ/AXltHDPM087NesZMVMPhYqMs6wgTSqpBhmxoxw7QAVHXoPQqZCQLA9s+7C5z2qOyBw0klyJMOKEctQz2IG+/rLxxRcyzpCez/LTIYFDh31YrvmqMcSvIl6/1hdTCEAcCbhv5kAIaOgaSLQmLe4rY0d5G+QaDeWee+7OvdY2SRqzjOFN1HSAKknD1TPpiC3TM+PlnLPPS2QYRoTqvqq+5ru5CEcM0VqZZdyPQQpqwygSAcSNQDnr2ORYEFGPZNA1GIqxYLlCqJ0TgGEsRpq0vTNev/xwpAAmAFm5ybqbqLOEznOxHZW4vQMYEM8Aa2tjvAPcFedPPfVUMqVNH2pBqPGNwDz+pXhhkWQW/fnPf57nQ6pV1+gKQXegbm/tPziS+6YOZkOEGF6lPzgAW++YjSFFqHZ9IMa8a+uLuLmTeRA5gmOjxgLL0uIf//Ef88RlhuAYhKOe6A+INseTqdK9K0JU/bivTRyrRbXZG8LYI2K0IcJ9rn2benAHYTvNSTrfvv07uT/G8AAwGAE7I6gdHDHRHUyJGHu8vSTRUeUzjRHt+iESAQjTJyVpcnMDSD3eUw1UOnjNNTeUt934lvJ8uK3wLz5IDRnuRETd5eHyAFqQmVd4iqslqQzNVPHwL39Vjo5FkOwJE+iZPe4jt5klrBMrgMnpUBOKENFE5l6pW1LH9uWrbrvJjTHE/YlPfCJPU9misFWOe+tnxS6AVNNWhv04UjEOHMU9ogiBeYT71kUPkQlqSu1cg9OOnTtzc98AanHtduseGgBcEyJjEZ2H24Jb7yRJ2tvGYEbruGIWbLUbk5kcZ+6bHgotwN3noKDWTs/Xv/7N/ALl2NfgvPllcP68siqyrk68/9Z3bs/tcSkBtfh4YCGvgCcA7tt3IPdlqRSDTeJMwPOcsUKqgeEQezXGI+Wuu+4s//qv/ydFL3l2ig73Bqr203BEJfZT7Ks4CQ4RIryDgHoQimHtjRDP8Jo8Dx8+WkO8Khoysm3btpZ77703pfJnf/ZnZfmKk0pfb13td23ehZ1AOhrrHDOxH3E0KWJGUISMrSC8fmw4ln8gYDoyPM9maqaRAc5LasClbe0f//jHua9hIQ5Yt/eYlScHYR/UIEs7cngsXRcjxkuUEKMwfHBJzDEO/UjbPiycDW9YUzkyGmkI4JB4ISZQhYBWfzFSk2cFsqHBenwUwYzVVCA9ZAsisa0M7xEFHk+hFsGRdEhdoaKmGpKZF4l217cXNiFBuuCCDbFYWhvA6j7Z5FQEp5jciO5o5LbzhhaXdRsuDomdlAQCbLuTdCAXXR977LFEUqXsIOWRtJ316zYE0pjkCqmMl95OmETkwUJTb2RpPZ/5y/8ysz7crIq0k+IFKKWUyXw1PgBxSy36+OWIQMbt5THN4BHl2qK00sICOPZj77jjjshTnssVor06OVD0ra4LOYOEDGdCOvHLnjzT7+jh4HD8SBlcOL/s2bsjOK6TXbX+ulePSJJCnLkGEaRFtd5jVoQGWyE5JeOISleKAe4Bd9+urQ8VNsNevGQoAbZAR4XNCPWfQxLMVq+scN0jnOQq/PAgQA3SCKFBnhuHnl0boQzaYC5Mavqq+iHKOO/BVRCnjap8uJYYtUmwXqvKOsTH9w1O94rSJKI0InAhx3BlBynq6Z4E3FQLOBgmRRUB1JduGu/AtDK0t2rBJnvXhzn0vOfWW2aEcHFjxYqVOVc0ItLGY8pXADSBIUycEaIRw+CctCIBq70vf/nLOQNbqIvUkCH2hhtuyAW5j5UxLD9SIcAvSjDahfjVyFVxYMake4TgwPTsc6p7hxPEBBxv3vxqBKzDicBcYyygvgWSjDlLtf5dc+qq/EUatSGMRN2zi8HBmLsCBsIjDe0kILlItzuWO4pSPEbpu514Nq+/L7m950d3pTfc+YMfVKsPlfSHbZ24/KRc/dH3unXnxnJ1fx4lnpmaTXoilNv4N68IXtu27ch7zFET2+m98MLzP29/7PzzL0iCJLqI8YHgtFhAnXLy6kC+zL5v+P7TEZB7ypKlS0IdZ+Z7v2hbuWplOWH5inDXWAtPVWbWnnlW7tH60tkbatyw4aJMB0icXZil+/q6GUNSA83VUE7XtjRxL+gIzTo5PL1s2dLgcDKIWFwuWL+unIHIU/zC4IRE4P1JJ7EdQXEoDHtJqgtc8Jt3Ug11kLjC0M1L6b6MziASkdwghi189atfLZs2vpyufTgW2FxxfmTy6fehhv4Qaw1gdU8dEmdF0qPCqNu3f8VY77W3UNGu5qHc3sQ1IhoAHNq6YtG2we15INTANnnhiDsbj9N2BaMS1T8XL8B29U48kXApze3TjrzAPWK8UKnLSx+PPvih388V4EMP/zIBzoSxeI+Y8VAVwiFpAI0XxsfHZ5ers6VJ3ntr6BaFm1Q6GgQ1xLSQrENDYEPu3e+5JTmxpjGD9oUHjMYcNDlRV3oQy7Lc+5JpLMbecMllubNoLMLBc+XGpIUIBDLetBHGQtQ4apJpHL6+fVsaruCWyVAA2LfPWfhd5bXXtyZ3gpNYgJC2/oGcq7/1rW9ND2xwEdCYJQnME0KnL+KIxtxi7NYD+naErUtM1bff/u0yHHHFhgsgNuz2791Vxo+OljWrTyq9XSv/V8vW17aku5ouMOfc+3i4brPBpjLxCgFwZol007uOJKh1rrYS030EKzvPclcGe/1112UfW96Q7N9/sPREynjZZZenyxO/7Yx2kI6owUC401vSCCYAvppeEmpSm0l06ExHiKI9dwNv/+63k7M/+qM/imXn+vwSMTle04HRCO179+zLb//jY5Nl7979oY6Rsmf3vlBNVTNCqBohwjxEjRjcg62kkc4SE6iJrFq1HPRXv/pVpnbyVkkNhDoiGAJ2s3PP7jxJ9aUvfbk8/tiToZrtGTFVHsZW9H3yyd/kvViTTISUEIgwz4iiojRWgNkGC2Zg1153dS4dDUjbCSLoFSHsZ9mJ9Uc7fhB02umnh4u/oWy48OJUjQnUyTznDMwvEJGQX5w0VWCYZKotVjshuY69cDdshL59UJ4fHRWAaizw28667ypQmdId/7v11veWW265tXz0ox8t73//76eNNHHzMAt5sScnyCgIwHiGgllptEDYu379us+PjIzGau2SUEHEhJgRt4XL7tm9N2bJneGmO8qWza9ELuI3mbvT0C68cENZtHhJENkfM7PvfFXf5iH7Kcp4ZP1r1pwWbUNhZ+tiHloZhA1mwv3KK5uSQT8DXxE5ytjRMTvPvaHDJSkRGfqLLz2XVJcZx8xtifuxOiM8VA4c3FcG5vXlkYtuGHDuJvUI3XUJSX2N+6GFizPIXX7FZeWVTTUJgpyqSAI+eIzTHgssa10r+/oVoq87L6tsfWr6sCUW9889joWxAB89eCiN+ulnflN+8/RT5dePP1Z+9etHyn33/6w89NAD5dDB0URko6+nM1EefvihcmjEEuPY5h0G0kDtxUS66Tmz+KZXtoIjBlWLxEYGHwNiqcg9TXSC29VvvrZce+31GTl52Hve855MN9NFI2vBbTtbYt5hF7wP9yQHFztR9M0lpxu1Gmedqj3rnISGUPxGtyckFhlM2pNclXcxUMmNs6zDw/UAVHIbXgM5rj23eQxMBKnwNfxdgSZn1ZmeBF53AutSwgfi6bCVqYnJiBEvRcx4NBLnleXJp34bg0OKEV1Xn+zYzrFfPPs1QUPKC+1c2zFoqSF8kA8ODuXVtx0S6rnttv88Iytn4WZF8YOabCWguNPty69SOLDsBIhrnnLKmphLJsrh8DjqwjW1Er08lCQVBFbjrFsSvmSYRKmNFG+++R2ziVEsH+WYOgFkFpUimk9Qu2fX7kSOKCu1TZs2Z9ogtowfPZJE8QReAaHqY5Q/gMBrOABpEz/JIbrNNY1Yy4y5VLHVBkxHro0AhCByV8SR4UikATUneUdSDQbAbWxTDzvR7ll7/JdX47QhMs+6sg+NihfNWI8nzFwRfTMK+qxm6raJcyRSAUTpQzWukNK9YnxFXhf6rlTV2vSnyjRq+kcAQ/JCXFGqfVjXhkRGD5X+3lh/RHgfj6XH6IHIRcKm+rpm7JqTkorxmEKA4tl9GmkQnX9WpCdUFYEJ/HDcZISnBQ31lx0WQKtifSI1RCUPcID+nrvvys4nrVie2Rh7Ek9sADNsiyMnrywxEWGbigRxznbsKq5Zc0q55rprU1Lam6qUJpkuA6wirz/eYDgKg+wN6182/IE8K2+LanPMOVtf3VJWrFwVKcKyMNyNmSbKzAC2Cfymq65ICdmQkRY88MBDSSjbMmPDRUrsDgGyQZ/vwnSqiyk4UYiZC9q6OmHZCXn6anBwQVkZ3BLj5k0vR67xWEyGm8i/LAmi50fsWX7isohDw9HkY5R1TA1kJMEb2REiSETsIHlSxHTuKioQNIIMSGIitD/z7DPlH/7hH1JaDFV8sYoLa0ri2JSTvfk+XNlC3gxbk6QtyTV3RQyYDBMxqme4SCe/TlgYe0ClooP6w7t+WO743g9y9WevC/Vtnlgw4HjwdO5EW90hSpCyyyxLs3MgjVSaXSAK95hukkEYyXTanKCDASgX0PxOwinL973vA+WG62+MzjL8egwM94CxBTpfEPeAyUWffPzJmJ03hmRej4X2jiSk9ccIHIyf1yDMOG35daKpApU+JH/jG19LAB/5yEfSiyBTAAxPzP1W4xDli4XaE0C1IcZG8OCCocx3TYymEEhJE4wmjerCs5/oBSoF0HYA0hEw0/rCANb+pJD3qbJYUvzwnp+UH9/7QHng4cfLPT+9v2zZurO8vmN3eTlsw5dw9jM9EzNqrJnGIrGSTNnwgbge6wmAce/8WbfX0jPaiEkcIR7JLyJ8uSIyVcEBjojX1TqmScrXLvEEktGRunGMc3CpgmtTtXEKW8SUZ5JAsNKlloaUN8jCFYR5l3lIsEAaCIDov/+Pv85zI71hN5IVjJj8brvttjzoBoG5SVuMLqeenhu6SSyYiGSL2tT0uhT3rH2g3C/hBS+R0/19P7+3/PTeH4fhPpdGjROAINJffNCufPKTnyyLFy3N97gmwaqOql44MAxGkzKpZX+dUenFgQP7MlK616H5vARpS+h/UcQDBPgFgU10s7PdRqpoxCAMAjBJVb7iPMl5565PWHU6OfZXOtwjOg/EaUBVIg0OvFCpgcFpq0TUPxezK9zSUtJHIRtzfrfrF0ZiiDkK1wgeXlq3tZq3kAy4cMEJbg10KcG6h6ZqVBpROpNMN4A0IgH80z/903IkZu3+mCiNwTnkTuJ84QtfSCIsV7XboTZ5NntAlDGNEIk22Bni2YhO7hX3ghWCXA2MpjS89iPTNq71wZBcBkNSTsQgTgxRwGiq0R8Rno3z0TGP9gCq4/LlKzIjlwYqbMOKX3nu2afLU48/EaqqX7D/11fDToI0RHtGgHnmZz/7WczCF1fGpifLE089mSqGwxdN52Ktp/2Jh8TtfEnYch5HRxVg4odDkjogxiLL2lgZiOj5+KO/Lq9v2zq3uXfddddFivDDuTSABK644o2JmPFq27Nvb6qpEVOlW1VNdXNtZs+mf4kPI/SC2BHR1ACo5Icx/s3f/nVOcIiR/BA/L/ElVOwAi4S0g6Vi1FV7ZbTO+CItpjOg0b/M2wt/H2TDhg3lkksuSv17jxDE+sJJ/xBYlP/93/99urt+uEQUL4GMBGyNLlhYD0mtPuXUhKHoTxqumQLE2DyZh1IG5NiG3EFA27FjW56cMCuThkH62bYQ2vfF5EYi7T0kqswsN3iCGDAtSSDCkDYVw7yHZPRJZ0Ghlyh0tYT0SyN5qa8NvkQopIIAfUwFwr2+55xzdq7ozDl2EfUhGcjlMdJHhGECDrUxD6ZnpWPSaRR7oQB46623Zo7pM7tPqd5V3Vf9OuHtrDOO7HP0+lwahcEqYFKjv8zDAbTr6+qdUiXkTEmsLomViL3ToYkYUocM2r48t7QubobYAFZgNWIuWFDXSPo0VUoZXXmRdrD1b32UxO/3uPbQLKoVnOtIb70B/IQThssVsbD2Z6IG5i8I+w6ktruOhiH3RVoQApqKMROBzM60/VW/LpDH2Cx+5ukXMlHygaAdtjNPOYfm7AgdwJdnjFCJukYtDqjKHLAvjM2ZI26Lcn28d/WNX5pAOioPYMyKj5DCATdnMxjTp+EBQ3Gv5F68B0bWOiAGUN/w/KiUzdic2bVrT6ijBj9W7zoxPpW/1TRnkJAc2PlnW1eewbRMQYjKrakFvsZQEuKBOhqFOtGnU5x2ja+7/vpy9TXXlMFw692Rf/gTL+MTU2Vk9EieTwSnrpfZTl9+0eB1fpXyV3/1V/kLN1IRFhCPGLgw0fCxtfx9jeIFg5Ps+EsHPnU50iMlVKjKeyKH2IFI0kkgs9V+x4c+9KHc+vQzGPuxgiPkJkGu6l7BPNzSDOlF7hgRkw42Zu2/OzMkBswnxjBPMSWEN8c5d2YvKjW2LB3RkiDi5qresw/rZW2IJRlMKezFeH3zZB4iPHghexeE6iSF8nrAEQDuC6ExixcvDcOsv/+W5+ojGufXiYmjZfuO18uevbtyRjZHGaeSjCtcJNw0kUtyOmMXIiTD4iFpM+Fm4d9JqFDub1NR3V/8xSdTrDhs2xmHDh0oPi77FRLgCDt8eDS9iN2csrqexiIBRBhvHBj69/zXz9w2sy4iqPwTd17okINCf9OTNZIqvuE0m2rXySnBqG4xMDwqVKiRTYBnH+TQyIHcndy792Ak4/flj1Y3XLS+3HjDW1KlqRp2AjBqUYcQOiUlyTECVH29Jy0G5ju/fiTo6p17HJvsmqRdjaVehOmrTyW4MpSJkZc60idvSZ1FFfl6g9smvtw9CqIFKtwb04wQ94D7laLUoKYH0znfrF69spx9ztqy7rzzK9KArRiHSHV2N6AGHlzgSHJjWeDqr7lZZpAM7rivuCCB2vLqKzntI96z07yyNVVGv3nzptz0szNQ3b5KXVUIoTGUi3AUNsm44r5R64o4VT9G237H55CceyerTJD+hiLxM26M5WQ2Ky2wGnKEIAo8tskzq4yi1Mae9HsUcsMXN75QnnjsyRzsq9aNN96QiKzotDXiA2cSasnJPRtj4lML6WC26r2KuDkb8b9GLS5Iw0AifeCh+8vURJ2HZG2OYvjY+La33RQI6oIcR1SLcL8j95cYwCMFFawmIbDZkXEIQoR3sxqoab1CGradfNcz1+hk+jcLO/nvnR+HeX/fffdnlacwTH9tgcjZmSIpZ1eIAQcOtdmHgjjzD6nFyiVWX/PCiGamy+jho2Hd55Wtm7eEqA8Uucq5555dLrrowgQMEBUhXpSVLp52xunlrEgXT1lzcjlp1YrSH7Bk5eJJfv8JriFEAHWQCGnYTcyaJIVqdBg5dLgMDM/Lv2n3t3/zN7kv1j5GO8KBI+phHzhGDAS33HJL/TBweCQi6Io8vKLvooVDGVHlu/kVo1OnetIxDkMIolJMpa2Nx8vFkT/0BuKLLzq/rD3z1DJ6dKz4a25+ZWQT3wQIgTmF+rSxCQY6HYT4jGJV5xOJzP+C89eVayN1WHnSiTmuGvSxLQmEuGcb7CkJ0WCz99CRw+XlZ58pB3ftLPMXLQzp9uT3ODMrPVKFBMnOsoECFfdUGpfbX99WRg/Vv9fJnkjUpxXzF0KoRtEXcT6daM9nOhqcN1gp3L+n9B4dTWRXXn5lGpFPZQKWASQAqE0cs7UApyCU2L/73e/m6U/qlN35jIboRgQJNKkcr5qsR6foNfLWeLEgxLw0Et+De/aVPTv3lJPDAGVa9tVQDbCoanI0C1sD+7MegSd/or95y2vlxXj2Q7KNL20qL298JZHyKoSAgSjq8Oy+lUiynHqqP2datWhxOaF/oIwc2F/GRg+X//SJj6fOpX50TSKMVSZG7CIq5L995umyeOlwZmYi7dCiJeXlVzaVyYCJax+n0g6Cc1Jxz6PARBTpdKZ769/97u+LmTdcdml4TH+nt1ywPgz3rPplSxBjI83wzCV2IEmIxCTP8tvTz1xbTwSH+KWRrv4OtIwP99RHEmDkfW/N1BDTGRwNt5oXc0BPXxmNhOHSqViRRYb1WBjux//i4+XjH/+P5VOf+lSKVUU0IJaRDjm9vvXVctWbrigH9u2P6eDxMnakLjnM1A5F+bhkVrfP0g1ps0opBaYESqmouBOJaCwDQgKomgjL7Y325YORcc/vLz+++8fJKUAKL8ERUZpTxBb7aNocUhBx7cO3vjyOd1lWZPQMSSDSeMEsjTQqqYexBuakLNzQGjQC0KmRj15y6cVl0QLnAC7MbziQ8Q6AxBLAICMlz3aaVKEetyTmPbWxK/0a4mME1N2qaiNhrAtNQFEPRiAzJV92xtry5quuKGecenouoNspXMAggcBnecarQCR22B1wL5fRzyTpWc7iGRNgkICr2mwmN/OsSVnzwbHxciDSv6kAtHdriDiCmjNjbXfIIMBcJTsQuWe0uOLWEnCFFG1VkCJEkDa1uKpwVw8K1cyLjn7Y2enrL/Mj1B8NCR0KwAdiAb3h/A2ZecmucAxo44juESArE7zYBs65qznJWqYRapLjRcYpNu8UxGAQMZ3pWDzNhME603owZt/9EeAWxeDFMQhHIqgsm60A2gAgCnE4pAoLK0HOOzYjn+EApg+hPO0g7aLOwklMT813MdeZNmF1YoKLCbm3r1vGImGeGos8IvVfjUpSxPhIwSBA2QeAUgExhSpIjyp5SH4QiLFcvRkkIhHnWWnSTSL75y0q/T3zy3QnlgATR8o+a5SQ0Kb77y//dvcdZXes1u6972flJ/f+NIEblDoNJAzbPAQ4NXFls7J3as7OwaADupEdZz/tHu0i+PX0dNSEN7b/QOmGVIYioC0WP4Kb8XC5E4OgM5YNJ8e49eW7EaG4Sg8Aljh7Z7vbH9IhKfc8zrg2uZFAqiHuFRIiPXbS6RseLIc6E2XEV4Ylw2Xo7DNsgJaBiJAHtm5OBOzBxMUIDUaENiHcPVvhMfIUgQ5ihVr01waOe9d2j6CRSD9SItOHRm0blYFIC01S2yfHyoGwk5iPy67dW1O87IP+xQ4AZpPdJIBnyD30s7PUUgD9qc03wPyTiAHb1bPt71jHhGqCqKnZ4yGTsb7tm+d3mp2yf/uesvnl1yO4dMuiiQhyr+xLj3DAGnctTLvyDEGKVFypQ67iCjACESygsQ1jSJQrm69IxdhuPGOue6Qbq/2oPQO9ZfHw0jK8clWZCkMKsynDQeSOAAYAcftACCnv8eyXa3IStkICTuQgAOEMFwJZnffyXBJk8IgBM7coZr2o57995nMz561bW4ZCx2O988vhydGypBMLn5DQoajdmZpR4cgfBKVPHDeXZCs416409yQZ1XMLhqQp6N1zz0+SAbtJN930tshvVpXOvsnxyPX6ypHQ1UQY7JL+heVILKqOzPSUgVCPgjPUQwYpQiBozxBCTn3NK7TzBv1IANEIaoTqo7IbUu4MdH0OmQrfjvVoTMFHYmkQC8QwpoFydOpIdlTD+RKIwe2qIKZNaBB4hhByRDlj1uymzbb6xlMegrIna7WYi3AvUKyTQv84am4IOOQQuuqLe/dNCpDpTwrsoiXWpgh9EFcX3JYT4UERyxmr/ukEOmkAzFUjxI0LnGl39e74+/ZObZOXdq4saQInFDsHlxTBxKS+edovjBaRuWOkE6ngMDsEUJwoBmoDhMHpoy8kror3pKGPfJbHIKb1aRL23GxKGulMAVxK5iMtg0IdCelsJtXOHXXmdirqVXEEUSqViTff//73y5e+9KX80smdSQLxVIkI/cSaNg6R8OvT86nbPjmzZPFw/hDMhOWntU2/GzZckHmG0A2wQoIAIFbEJRQSRbhpAGB9SNSfl5FCaGsMy3/lMPfe+5PcFHaUmU11IDDNAyQTsyfaOPaMExyRCmlpJ3ZEC+H6yFNJy24S7loiRQK2JkjGWMVKUBZnbjr/gnU5HWjLtW+bqHTGLSCQm1sgc0WwdgS7UiXkLYQjUAUDPP31IS39qZ3X6JN/2C/mM5JjV1knYr0xP5aLCJBTGEwVQ/5oUtxfetmGUEMEs5gGly9ZWG64+qpycO+eiDf1VDcVkBpgTQWeIVERKX5UIz32pQweRmtbw98K7pg3+DQJsAfcUAM7IWa/LLKhK91zAtMHSK4JmAIBqWLE4h0C94hscae1GYOQ6jUtkZ7928/0CaHCog0iflx59/xzL8VUXTJFOHhopGzfsbNMRIrlCxSRA05FAJtH2A6JklQjwDrXPaL0d3VQF0HizNBgSB8RKEKplRkC6NO6FKcHDtjEB7CUAyOj5ecPPhSc1CUFoGzCGPf6U1Hbo0UEArxTXLWBVYmocYoW8kt40y8uWvAxwFKRi/oKuWTpstyOgnRlpH/6YoIxNlshaldqJRkwLCOqCmoQbLjcy1utMGfbHaJ1Hmhs7m8qAsxFUesdUaYL0mUMUiCziFZIhRpbX1k9Io1p0qiSqephg9pTgmF/xndrY91npaIrr7wqd5DHIpfUsc6OYfWzfwpIwYFVICaasVpG+PIlPmDEJxWJEpjUYBYmFdJFRCOGM+SfqXrLDdd9nk2cufasEOuC4Mzfs5oo8yN9RCnZNSIgaBySjI3ApmvvZPPWv+1AdrWHmiT7A0zuBUy/ZnvooQczsC1bdkJE1uWl95prrvn8lVe+KXU7NSWPlIGFn0e60Y0FV5hYJrvOfcRtXLulr9vH8uq7lFj9zdXQ0MLwGL9OWxEESh2kFtxWciVBGkgX/9GP7i4bN74cUhkrl156SX7WD8Z8ryUm9mBXh6HikdjbD3SqjpuhETd7oCJ9jVWNqa7KjmYTnhjTvNIYahS72JgAp5+f8vaGy36+bdC1pFgBAHKcNWIU7YAB7IpbV+0qVemP4AqDTdW2vXv3Za66evUpGXOuvvrN5Ve/ejQjegcRTkw1o1JxChF12YH2adUvQ+oZIolQvZKG/ghxbcSrjSgnhz2zN/1MkJgmDbOu2dj5gfx5HOpbVG3ia4NbTEEclwS8GaE+xrp3bVW7/q7N9TGCWfeNUUvZDJ6YEKYhA6CJHgDupb0RpB+g3rc+AADakKuIUvQ104qa1UVnzxKFWTQYzjCJPwjMNECFVEcFYtM7QK6IgsD71gdg/QBsTCCk3XvHDqjXeLC8J3HRGAPtnfuOE/310zpXrVbPAxxI2LhxU+4UAthEDZBy7Nm6xMK6ziHNgzzbpPnKV/532oD+pKpQi2dq0Uf/cF8bdH6FWo0VheKIjdpTTz05d4p4E0ngUh/S04802g9MRWefYM2m9uQYo1+83vTOt+cnFDB9IABHO6kMxFwGnraO80Ju6BKV3Ben0j7TucpI9WHQkHvOPCbU4BmHjN61iRoCxmiiVD3zFu/AJlnPGPZL6C4EjuT44vD979+ZhoN6QHFHXYAbJE9RWqg3Vn/PtsjZgYI4VTkydjT/IJP9OG3VdbsZ3qmKfYLT89GPfmTGH2PzL0t+8Yv/M1/6cNgMWAUAIBZurvBsMIDNOH169Y5RV2aq6w7Mn1f27t5TPv3pT+evGp2RdcbNuE1hO/Z3hf08yOLLVBM1sQtCdCgXoQ6pIdVBBnmzD+pwhdx7Ex2xC1RNtQopYIzUpAgWYPC2rN+4Tj1IUv8awtKli9OlcGOe0OYgpZ80LVkyHJSvDGLeWN7whstihj0npvm1yY19NsRUJmoe0hhjE9QsUbJY84zJZlMYc997wQXrP28q9gN1OvbXiFEubfTb7tWr1+RgxRKBPRis4tzB/JajSqa0Q8BASWJ42XAZXDCYGzWIlaCbqd0jAIFK/ioNASoVUAVkOCONFlEN5Pc8AaE+HrknDap1RQBpkKicVX8SU41v7q+6JzFSP3AgssH/8LF/P+N3/wAILnmMJzLsqp5wzYE6lXuOSyKztMiwnO3VhQFFsKu+EENignRdteqkZE5wxED7jrxjx55qDo899mj+A6EiKiohSSJiSUVa5gMSEvAakhRlRGLECFytDXLFcyPMWqiOOxb6IRbc2Mrhw7MM3XHHHTMQ6twQ1SSnTvEiZuWsbtao+sBJig358aURBp7AhRFE6wtpe6fNh0je2XPnnXfO6KAC0LhR2j1i3D/w4M+TI79aJGYEa/9dSRw/HhP6tj6etSv+QqWfzORuAIpbJwAaQQhHQAPK+GTqvjq4/12EDfjxVxURTZLH94e3fXbjKHM/9KEeHY7v3K4qV3SS0yE5omyENAStNqaU9r7B8kyd1MPo/dIEoaeeemr5v1a5vfca3Tf0AAAAAElFTkSuQmCC;" parent="LvfuuKePgPZG7jUSQBum-39" vertex="1">
          <mxGeometry x="142.94015474498656" y="2" width="44.16" height="300" as="geometry" />
        </mxCell>
        <mxCell id="LvfuuKePgPZG7jUSQBum-24" value="" style="html=1;verticalLabelPosition=bottom;verticalAlign=top;outlineConnect=0;shadow=0;dashed=0;shape=mxgraph.rack.hpe_aruba.switches.j9831a_5406r_zl2_switch_fan_tray;movable=1;resizable=1;rotatable=1;deletable=1;editable=1;locked=0;connectable=1;" parent="LvfuuKePgPZG7jUSQBum-39" vertex="1">
          <mxGeometry x="180.5210800568451" y="152" width="99.4789199431549" height="149" as="geometry" />
        </mxCell>
        <mxCell id="LvfuuKePgPZG7jUSQBum-27" value="" style="html=1;verticalLabelPosition=bottom;verticalAlign=top;outlineConnect=0;shadow=0;dashed=0;shape=mxgraph.rack.hpe_aruba.switches.j9831a_5406r_zl2_switch_fan_tray;movable=1;resizable=1;rotatable=1;deletable=1;editable=1;locked=0;connectable=1;" parent="LvfuuKePgPZG7jUSQBum-39" vertex="1">
          <mxGeometry x="180.5210800568451" y="3" width="99.4789199431549" height="149" as="geometry" />
        </mxCell>
        <mxCell id="LvfuuKePgPZG7jUSQBum-36" value="" style="shape=image;verticalLabelPosition=bottom;labelBackgroundColor=default;verticalAlign=top;aspect=fixed;imageAspect=0;image=data:image/png,iVBORw0KGgoAAAANSUhEUgAAACIAAADnCAYAAAB7YoTFAAAAAXNSR0IArs4c6QAAAARnQU1BAACxjwv8YQUAAAAJcEhZcwAADsMAAA7DAcdvqGQAADeNSURBVHhebd15kJ5HeSDwnm++mZE0Gh0jy7JkS77kS7It29jYxvjEAQzGGAoIgUqWkPyxSS2wWaoWL2GBStX+s7VJiqI2VSQkG9hNiiOAwWBsDBjjA2yML/BtWZZsWfc9I2nufX5PT4+01Ha5/b5vv93P/Tz9dL/9jXq++MUvzHQ6ndLb25u1p6entDIzM1OmpnqK9/Pm9Zdut5vv1YmJqdle02V6ejr7trGTk5NlfHw8+kzEmE62gz02Npbv3Bszb968hKNvzxWXXzZz8sknF3VwaMFcJ4N02Lf3QFm1alUOGhwcLP39/aWnM1MGBgbKggULyuTEdNm7d28Ssnv37hyvIHrfvn1BRG8wUsq8+f1l586d0WdXGR4eLjt27CxnnHFGefbZZ8vy5ctLzw3XXz2zdOnSMjQ0VDrdCgTQo0ePZu3rDoRUpsqvf/3rcuKJJ5abb765DC0azH7ag9fk/LXXXit33nlnIu/r6ytvfvOby/z584OZyeg5XZadsDTh7du3NxEfOjRSlixZUl5++eVktHfdunM/v2bNmuRuT3B28MBImZoMiRwdL4cPjwU3PTmAdBYvXpxiPnp0LCS1v+zetSf6HC779+8vr7zyShKDW4ydeuqpZc+ePWV09HD0PxKEDKfUDx06lPBOO+30ZICk9e329/fFzZpQxXh5ZcvmpHpqaqYcOXIkOOnkMw4uuuiiHPj444+niBFW1dBJxHv27CvnnHNeufHGG8uiRYvKc889V5544imCSzuh1pUrV5bt27clvIULh8rBgwfLihUrksAOgKhiF6TRDO3QodG8B5S+IXPPdl544YXy9NNPp37VF198MdXwjne8I7ljPyREWuyH7ZAklSP+pJNOyivCMOo+zKgEkuFEomPQkzqGXOExuEGU9pdfpoLXUwLbt+9M8b/++uv5joohhJyaIMEUGIycjUFK2lSoL3VjsrNgwWA29PfPS4MFUOe+vurKuEMIIg8eHCkjIyMJWGGso6Ojaf3r169PBNRHddrBwRBpGd8Y3LVrVxK5devWtE3vem5+500zF198cb548aWXyCC5Z1QA9PTMpE4RRAKI8+7AgQMBeCAMb1FKZdmyZSlVYzdvrrbmXn90X/XmK9Me9u/fl6oZHFyY0qLalOSFF144A8CVV16ZHMzZSxgSDgAkAVQrRIwLfSECjBQUbfr29tagR2LTUTFEElu3vpqIzzprbdrY1VdfXW7/7vdToj1Bzczq1avL+9///uQccIRQASSAQIwA7QhqhOnr2lTgXh9xg1GTXDfeeW/8a69tKT/96U/L+eevT4Jo4t++dXt5wxveUDqAsQ2AAGmcAOJK7KxfaQSQAESqMY0QY1V92Mj27dvTw8DQr4b0iehTbQxxc7AN0gFSFTLAGB5gBmrXT7v3kFJbMz6lSdJ77a6ed4XrjgeMyYAxPdMTgasv5BWEBvyeXn0HsnZwU6msHqJQBzUhkJtRDcBKI+aYPfQmkYg9/v3ChQvTKC+88KK8VsPnnf05pvav0sdEjKkcKmyicQ8QYvg4grTh0LVVgBXtimf3KsQC1mmnnRaqX5wEkNR04NcP02ojvEMaKNRRQ/MIz4hpRDbEOSiqPgA1olpxjxB9G3KMdDpVna0dw2CTRkpEIxdtiHgL21DcMyaVYRrQRNmkgKiGvMFQPTdjJh04SBwxnutcVl0+x/3xH/+7zEeoAVGQKPCgGCKDSApgSEgKYP09k2qKfZa4Ng7Rx7/nidu2bSuPPPJo+e1vf5upwsknr0jcHdFOVBTzASZu7sw2XBFgjoBcH8YLkfsmdu/0a1cFp+5xry/CwPS8c+f2JI57M+QkBBcoJTaDzSsDAzUS4kZbU4uwrl+TDEIgcE+NJOe92mbeI0dGc25R9HFfvXM6CByaU2HPddddM4Pz66+/vlx77bUxeV0wpzdI2Mvf/d3f5Tzx7W9/OyMiCX34wx9OohGBc8wA+PWvf708//zzSQy4EOL4iiuuiIh6fvnhD38Y1wvLN77xjfLBD36wPPbYo4mvQy24VeWXqPWCRFxlXzgxH910003l0ksvLe9+97szvTNWtgUhnX/uc58rr776atqP0mZZTDVXJTVz0fz5A6HW/lQNyXbpDCcZ3UICigFEhjh2o/zyl7/M6p2Q/aMf/SiNkTRIRu7pmfowYCxmTHozAas3YC8IXEFVpKLjkXSHOkJaxmM2Iitrr/6PIMCaWlAKsWfJD7U888wzkQI+kSmjhLplauxBX6UxgiCIGsFjY0dCMn1zrqvQQmb6DRGkuDe4uWE05z3O9GGAOFWa+HEjEZI28ATMsBd9wQKXt+hP+mynGfi0MBvFc4eYqkbqhKXMERMMZqfZgQht3tRiiHcQIxARDZH3rn1xHQmDdzXp9USEtWyZmAqGEnYJBmK1ABhOiA8wBDTVKJ5bW7s/vraxrhgwTvXOc2uHRwFHfwzph/CcAoiuibC9bIMU9622Algr+jfVteJe9c6CCzHuW/tAf+Sw02ESUeFOBhiOjurvlumZOnk14hoxx983AjyTgoJjhYS5bWOS6tpYMJvE0mu4XkvtlQZYaYDb4MbR/69PE//v2pB2BVGQSw22bNmSgVKSbVoQjzomvLPPPjvdqwFriNozAMdL5fjaEJGCcbiG1DuFxLUJiqSzdu3ZsQp8IZcmTz9do3Qk8DVVNCk1AJ4bkED1/yCda5+9tmIMyYiyCFMRppI4JhllWFQSgziMNefQp4MALw06HpkObASS42u2R23PChsQ5teuXZuh37wkZoBLRcdLGxHUAYZABka6PCCCTevYgCueDUC9ds/6NWK0e27BDRGIMbmdd955SQhbsPxkAi2oHXOM6SBiMtoGS5d4+LEOBgjV2lAZfJcjo4czYJn0Lr/88iSmiRRxLciBccIJJ6RkITKZqVaKl1xySa7mIG0BDwwF3tTGX376tpnls4mPeacBh1C63xtrEINbvNEOEMTu9ffcCNPWkNX3UxnulZGRupfyL//yL+k5nORd73pXem3mrIAcjwhAwFQ2BGizoSYtYm7rHvfaXfVRwWzS4Qwt6BnrXl+45/B+7rOfmVkUHbnR0aPjaUwAAWIxNDN1LJY0LhVAGyJ5RxvTrgoENmmohcRt3JnFJUWu1rzvfOc709C7gKMK59u2bU9/1wZRzERl/Ogxt8YNTvVVIbQJIy1oktPPVT/XlStXpNH++Z//edjZkmxTqatJJOcawBUDVYNUHTy7GgCBe2JV3au4Rijgin7NKxocHtPSRxJrY41TlVxyAoIj0mBMsms5hkxMlWsQvz5zA2cRI7IV7yBo71zZgrHEjzBSVPXFEMJSmrk4Ds4RNDy8JPz/nHLWWWelRa8797xy7rnn5r7YBRdcMCsZsaQPmgBybDsUQDBIAwGes85YF42FYVfbQ6grIsYmrBy0hS01qmVRkL/pTW8KvZ6cFDd9Q0AyX/va1yI9fDyf1SYdoZ006VpVMIfwRYsX5k4AWK14l0R1B47haciIx17GD37wg0yEUax4b+Ddd9+dG7oClL4AQSoGiKJnnnlmOeWUU9IeEMZl3/a2t4VX3FTOOfesIIr71m2PCruT0gOfypIQVbGuER2/9a1vlQcffDAHqAgRXV0NWrDAoroGOvo25pxzzkliTPMQbNy4Maf34WG7CfY/KlOTkZoa557EwE91At78HhJrFr796KOPlm9+85thaDuic13/igWAqDjUDhiiGhzXNuE1jlXt+pGi9yQKDptRctLTaJBZ0v26devKBz7wgbxvq7uAkQCbHUDETprUFLCoTT/wbr/99pCu8c+VsaPVpScnTXQ1ZMDHRtJrDMIpIC1Uq0RMMpKWe+65J+cGKzODESK8yyNwimCEaQcHYdpMoi+99HLuaPM2eyTGq9PTdQu14U+HRwCxNUPCaaP4jW98Y3nve9+bxidUEz8kZmPjEACYNu8Q4tk7sWPlST7BrJ7bg6ViV3jmL6hbZZ7DRgSl+gGH2FAOqIJbAH/zm98k9WNx3xd2EZNyGY9V24JYv05PTpX+bgSxyOYQAaiKcIQtGV4WsMfKxOSReM/lQ4KlxqGYEJJp4zKy4oA0judMERGt7i2wAX7ppZcy4tIpzqhHYbDUYpx4YzKTgyDIWhhDYDeJkUZra/EobcQDYAxM8YLXfOUrX0nX/NjHPlZsCiPWFAAIxEQvYC0cWpAfk6zwp6YmUv8LF0oPe3K/PY3xONVjFgx44QQrbYSeWbIX5pW77rqrPPTQQ7kN8Za3vCU7yrbMmFREQoLec889E2p7sjz11BPlkUd+WZ57/pnIF2KFPxhG2x9IJqsHQdoqJhsRpGMXwlQRBHZn40J/2bFjR67yGekf/uEfVmsOLohUP/cG+5x2+PBIAtNmLOCHRkfKL37xi+QSzAZb+NfmWTWOVLzTDn7AqXOJF1yUl/zBH/xBhun2jmFRCe4qh5OpMpJiO8YKUsI9pLOA52yiVW0kol0BGxPGdjRSjQ4+l9mohwxwVxQb0O3WnMQgzwy1jiNmMWi8bNn8WkS9iJ4DYR+dvvCqhYlQv98lrDJUY1DOXZ/97Gfz6wSR4VLKiEpiw3ETn23JnTu2pTufddaZx+m6egH7eW32Q1DjXC2lGwSMlSVLF+Xie+fOveX7d9xZnnjysWD6gvKOd9ycwbP32muv/vwJJyyLznVDBqdc9OhRu4J7wv0OJjGA+iC4/MQVicg6sDfiQl9fSCjiSF//QKjGntrSUNeSSCuGg7HlMfEtifXOKUF0KDhmvpGRQ5GtPRuhYWcsxFYFU2dE3zCDpoJ2lYNCzP9rxlY/DrrfvXtn2bdvTy6eeVe3tz9jjUQY8cZYFzF6bivE25aQJoo7GKAmksYYyfMYwbTbiPB9144gcdMliXjXF1ICBBJfMxsyCdQt77o1M3JqqWqo2T5k6UXh6mbpsbGJ8nu/93tzn2zBJ30MIyTxGwCh4gVD1AaYQlUol9RYIoon8o6nf/tsbmc++ugjEVeeihn26fLkk49nbCFFjEghSIYEGnK4EN0MWJsN5kwDWgepogSH5wjRPnFdddVVyUlLeCQ2Sm+35p3afQo5/fTTk0iTG4PFJYlAygkg1eZdcwI4eUxG3nSd6KDRItpH5Le//e0pSsvBd9x0c7nllvckQQYfPGgbvOa4JywfztgBMEm6CoItwOmPAKsC8N2TsHcKRiRX0VyNFRBXAxiXQa2z9e/E5EQZc9ggBgwOxRo5vGUmQnk3wjjkCqTEX2NON3MVoQBik6UiBtFA66O/MktkTZxdzZzf+c538nO6Zx1ips7BBrqyExMa4/a+ja0ecGzZSUXyF0uTFqdEZ4RjkprBIw3pQU56Dam1i8Hf+973yv33359cRrhIrvKzqV3AiJxTYyGd6eBilptWEWBGhgBh/QPdculll0QwszFTtz9qEhZMdcNAe6QD8t2cmWs2biCqnXaQIj755JOZzXNpYuai3qtNlTjzjAgcupLQnItGnBF/Fg0tmesHD0KnpqULx0J8B7d0J1Y0I+Oef/Inf5IDZPIPPnh/AB+L1K6KVc6BGNW0nx7UV/MNHCNE7FBfeP6lOZVpbyUl2Dkmzdze5GIodgVMgeR973tfuf76a8svfvlg5B1PpTsiyBgEVCA1t2gcV4nUrxQirKgMZouoTZJKI5AAOjhoURGgJi4DXdmN3KT1ASwjZt+8OTEb5z2gTVK4B5ukTQf6tCCJMIQrtOFdSiQpmn2JkEaxDlT38MMPB8D6lRK3CxYsTCK9Z82QsQVXMKSICriIM3NLE/QH23v4vCNBJW0ENzrhRAdItJnc/vmf/7lsfW1b7gpAor/zRc4OTUYGPzUZOcq8wTRIBSLSoEK2tHDhomDgWEgHu8JHWJVgpg5E0yTSYgLOH3jggfJP//RPSYDvd9y6L5KjgVh6IBo3kiXuKmu3ELfWbSpVJqdqkAO32ZDa3lOzZx6ZlulwUzW4/piktsWM+m/lsceeiJTxw+HOb83gZCutMxD2ECF5QURX21CI6O/GGjcIh/S009eUy6+4tJy37pyy/vzzkngB0AwMfpV6uG7gE0tkd1Mz0oHIhxGiE6NzUkpkDaGkga5de0ZSj6ukPqiZHK/Z2saNL+as+/wLz6YNPffMs2Vp5K82e9esWZ0ToA0eV3bYbI/EWyUlWRuCus23q5WPl2uuuaasX39eEoebKq1YwcX7NLSQ6i03v7MsCt2nGkTJefUrtwkRoYuHYgaet6CMHKwbxQ0H5KTC/rS1a5oGQ/Gg0znnnJX5aNVhTZAQ5GqQdv2F94mJ8TIWuvWBeSTSyal4ngwVcdWWpYklxhnP7hABD+mr7sFM2xT9qn3UgMb3W3p48ND+nKgOHtwfwGo/ALVt2rRp7kvnI488kvfWNPfdd19OD3afwCBFyFxbAQcR2uBFVFcn1YsGlJ+PjB7MAaMj9dPoju2vB5FHykAM2h1J9eih0RQ7la1afUqqaX9IY8+evTH9r0i3lQZuipm8SRPSJh1tTU0pKTcMkXpaUtOMc2wsZkqmEuF8cGgw+wTFZfvOXeVArOq2vL6tbN2+I9LE53PT10HI0SOHy0sbN8XSYls5NHI44SCgSUap3lO/upujxJS0kTo1V0OSayp8G1ExLN5VPfbPixAd9zX21BAPmOdJLhlGbWpXuLbPH5dddtlcPtIIaPeEgLmhYDJ3no+9GJ8LSKbwTk/dnu6JSL4g1i19wdDQ/AXltHDPM087NesZMVMPhYqMs6wgTSqpBhmxoxw7QAVHXoPQqZCQLA9s+7C5z2qOyBw0klyJMOKEctQz2IG+/rLxxRcyzpCez/LTIYFDh31YrvmqMcSvIl6/1hdTCEAcCbhv5kAIaOgaSLQmLe4rY0d5G+QaDeWee+7OvdY2SRqzjOFN1HSAKknD1TPpiC3TM+PlnLPPS2QYRoTqvqq+5ru5CEcM0VqZZdyPQQpqwygSAcSNQDnr2ORYEFGPZNA1GIqxYLlCqJ0TgGEsRpq0vTNev/xwpAAmAFm5ybqbqLOEznOxHZW4vQMYEM8Aa2tjvAPcFedPPfVUMqVNH2pBqPGNwDz+pXhhkWQW/fnPf57nQ6pV1+gKQXegbm/tPziS+6YOZkOEGF6lPzgAW++YjSFFqHZ9IMa8a+uLuLmTeRA5gmOjxgLL0uIf//Ef88RlhuAYhKOe6A+INseTqdK9K0JU/bivTRyrRbXZG8LYI2K0IcJ9rn2benAHYTvNSTrfvv07uT/G8AAwGAE7I6gdHDHRHUyJGHu8vSTRUeUzjRHt+iESAQjTJyVpcnMDSD3eUw1UOnjNNTeUt934lvJ8uK3wLz5IDRnuRETd5eHyAFqQmVd4iqslqQzNVPHwL39Vjo5FkOwJE+iZPe4jt5klrBMrgMnpUBOKENFE5l6pW1LH9uWrbrvJjTHE/YlPfCJPU9misFWOe+tnxS6AVNNWhv04UjEOHMU9ogiBeYT71kUPkQlqSu1cg9OOnTtzc98AanHtduseGgBcEyJjEZ2H24Jb7yRJ2tvGYEbruGIWbLUbk5kcZ+6bHgotwN3noKDWTs/Xv/7N/ALl2NfgvPllcP68siqyrk68/9Z3bs/tcSkBtfh4YCGvgCcA7tt3IPdlqRSDTeJMwPOcsUKqgeEQezXGI+Wuu+4s//qv/ydFL3l2ig73Bqr203BEJfZT7Ks4CQ4RIryDgHoQimHtjRDP8Jo8Dx8+WkO8Khoysm3btpZ77703pfJnf/ZnZfmKk0pfb13td23ehZ1AOhrrHDOxH3E0KWJGUISMrSC8fmw4ln8gYDoyPM9maqaRAc5LasClbe0f//jHua9hIQ5Yt/eYlScHYR/UIEs7cngsXRcjxkuUEKMwfHBJzDEO/UjbPiycDW9YUzkyGmkI4JB4ISZQhYBWfzFSk2cFsqHBenwUwYzVVCA9ZAsisa0M7xEFHk+hFsGRdEhdoaKmGpKZF4l217cXNiFBuuCCDbFYWhvA6j7Z5FQEp5jciO5o5LbzhhaXdRsuDomdlAQCbLuTdCAXXR977LFEUqXsIOWRtJ316zYE0pjkCqmMl95OmETkwUJTb2RpPZ/5y/8ysz7crIq0k+IFKKWUyXw1PgBxSy36+OWIQMbt5THN4BHl2qK00sICOPZj77jjjshTnssVor06OVD0ra4LOYOEDGdCOvHLnjzT7+jh4HD8SBlcOL/s2bsjOK6TXbX+ulePSJJCnLkGEaRFtd5jVoQGWyE5JeOISleKAe4Bd9+urQ8VNsNevGQoAbZAR4XNCPWfQxLMVq+scN0jnOQq/PAgQA3SCKFBnhuHnl0boQzaYC5Mavqq+iHKOO/BVRCnjap8uJYYtUmwXqvKOsTH9w1O94rSJKI0InAhx3BlBynq6Z4E3FQLOBgmRRUB1JduGu/AtDK0t2rBJnvXhzn0vOfWW2aEcHFjxYqVOVc0ItLGY8pXADSBIUycEaIRw+CctCIBq70vf/nLOQNbqIvUkCH2hhtuyAW5j5UxLD9SIcAvSjDahfjVyFVxYMake4TgwPTsc6p7hxPEBBxv3vxqBKzDicBcYyygvgWSjDlLtf5dc+qq/EUatSGMRN2zi8HBmLsCBsIjDe0kILlItzuWO4pSPEbpu514Nq+/L7m950d3pTfc+YMfVKsPlfSHbZ24/KRc/dH3unXnxnJ1fx4lnpmaTXoilNv4N68IXtu27ch7zFET2+m98MLzP29/7PzzL0iCJLqI8YHgtFhAnXLy6kC+zL5v+P7TEZB7ypKlS0IdZ+Z7v2hbuWplOWH5inDXWAtPVWbWnnlW7tH60tkbatyw4aJMB0icXZil+/q6GUNSA83VUE7XtjRxL+gIzTo5PL1s2dLgcDKIWFwuWL+unIHIU/zC4IRE4P1JJ7EdQXEoDHtJqgtc8Jt3Ug11kLjC0M1L6b6MziASkdwghi189atfLZs2vpyufTgW2FxxfmTy6fehhv4Qaw1gdU8dEmdF0qPCqNu3f8VY77W3UNGu5qHc3sQ1IhoAHNq6YtG2we15INTANnnhiDsbj9N2BaMS1T8XL8B29U48kXApze3TjrzAPWK8UKnLSx+PPvih388V4EMP/zIBzoSxeI+Y8VAVwiFpAI0XxsfHZ5ers6VJ3ntr6BaFm1Q6GgQ1xLSQrENDYEPu3e+5JTmxpjGD9oUHjMYcNDlRV3oQy7Lc+5JpLMbecMllubNoLMLBc+XGpIUIBDLetBHGQtQ4apJpHL6+fVsaruCWyVAA2LfPWfhd5bXXtyZ3gpNYgJC2/oGcq7/1rW9ND2xwEdCYJQnME0KnL+KIxtxi7NYD+naErUtM1bff/u0yHHHFhgsgNuz2791Vxo+OljWrTyq9XSv/V8vW17aku5ouMOfc+3i4brPBpjLxCgFwZol007uOJKh1rrYS030EKzvPclcGe/1112UfW96Q7N9/sPREynjZZZenyxO/7Yx2kI6owUC401vSCCYAvppeEmpSm0l06ExHiKI9dwNv/+63k7M/+qM/imXn+vwSMTle04HRCO179+zLb//jY5Nl7979oY6Rsmf3vlBNVTNCqBohwjxEjRjcg62kkc4SE6iJrFq1HPRXv/pVpnbyVkkNhDoiGAJ2s3PP7jxJ9aUvfbk8/tiToZrtGTFVHsZW9H3yyd/kvViTTISUEIgwz4iiojRWgNkGC2Zg1153dS4dDUjbCSLoFSHsZ9mJ9Uc7fhB02umnh4u/oWy48OJUjQnUyTznDMwvEJGQX5w0VWCYZKotVjshuY69cDdshL59UJ4fHRWAaizw28667ypQmdId/7v11veWW265tXz0ox8t73//76eNNHHzMAt5sScnyCgIwHiGgllptEDYu379us+PjIzGau2SUEHEhJgRt4XL7tm9N2bJneGmO8qWza9ELuI3mbvT0C68cENZtHhJENkfM7PvfFXf5iH7Kcp4ZP1r1pwWbUNhZ+tiHloZhA1mwv3KK5uSQT8DXxE5ytjRMTvPvaHDJSkRGfqLLz2XVJcZx8xtifuxOiM8VA4c3FcG5vXlkYtuGHDuJvUI3XUJSX2N+6GFizPIXX7FZeWVTTUJgpyqSAI+eIzTHgssa10r+/oVoq87L6tsfWr6sCUW9889joWxAB89eCiN+ulnflN+8/RT5dePP1Z+9etHyn33/6w89NAD5dDB0URko6+nM1EefvihcmjEEuPY5h0G0kDtxUS66Tmz+KZXtoIjBlWLxEYGHwNiqcg9TXSC29VvvrZce+31GTl52Hve855MN9NFI2vBbTtbYt5hF7wP9yQHFztR9M0lpxu1Gmedqj3rnISGUPxGtyckFhlM2pNclXcxUMmNs6zDw/UAVHIbXgM5rj23eQxMBKnwNfxdgSZn1ZmeBF53AutSwgfi6bCVqYnJiBEvRcx4NBLnleXJp34bg0OKEV1Xn+zYzrFfPPs1QUPKC+1c2zFoqSF8kA8ODuXVtx0S6rnttv88Iytn4WZF8YOabCWguNPty69SOLDsBIhrnnLKmphLJsrh8DjqwjW1Er08lCQVBFbjrFsSvmSYRKmNFG+++R2ziVEsH+WYOgFkFpUimk9Qu2fX7kSOKCu1TZs2Z9ogtowfPZJE8QReAaHqY5Q/gMBrOABpEz/JIbrNNY1Yy4y5VLHVBkxHro0AhCByV8SR4UikATUneUdSDQbAbWxTDzvR7ll7/JdX47QhMs+6sg+NihfNWI8nzFwRfTMK+qxm6raJcyRSAUTpQzWukNK9YnxFXhf6rlTV2vSnyjRq+kcAQ/JCXFGqfVjXhkRGD5X+3lh/RHgfj6XH6IHIRcKm+rpm7JqTkorxmEKA4tl9GmkQnX9WpCdUFYEJ/HDcZISnBQ31lx0WQKtifSI1RCUPcID+nrvvys4nrVie2Rh7Ek9sADNsiyMnrywxEWGbigRxznbsKq5Zc0q55rprU1Lam6qUJpkuA6wirz/eYDgKg+wN6182/IE8K2+LanPMOVtf3VJWrFwVKcKyMNyNmSbKzAC2Cfymq65ICdmQkRY88MBDSSjbMmPDRUrsDgGyQZ/vwnSqiyk4UYiZC9q6OmHZCXn6anBwQVkZ3BLj5k0vR67xWEyGm8i/LAmi50fsWX7isohDw9HkY5R1TA1kJMEb2REiSETsIHlSxHTuKioQNIIMSGIitD/z7DPlH/7hH1JaDFV8sYoLa0ri2JSTvfk+XNlC3gxbk6QtyTV3RQyYDBMxqme4SCe/TlgYe0ClooP6w7t+WO743g9y9WevC/Vtnlgw4HjwdO5EW90hSpCyyyxLs3MgjVSaXSAK95hukkEYyXTanKCDASgX0PxOwinL973vA+WG62+MzjL8egwM94CxBTpfEPeAyUWffPzJmJ03hmRej4X2jiSk9ccIHIyf1yDMOG35daKpApU+JH/jG19LAB/5yEfSiyBTAAxPzP1W4xDli4XaE0C1IcZG8OCCocx3TYymEEhJE4wmjerCs5/oBSoF0HYA0hEw0/rCANb+pJD3qbJYUvzwnp+UH9/7QHng4cfLPT+9v2zZurO8vmN3eTlsw5dw9jM9EzNqrJnGIrGSTNnwgbge6wmAce/8WbfX0jPaiEkcIR7JLyJ8uSIyVcEBjojX1TqmScrXLvEEktGRunGMc3CpgmtTtXEKW8SUZ5JAsNKlloaUN8jCFYR5l3lIsEAaCIDov/+Pv85zI71hN5IVjJj8brvttjzoBoG5SVuMLqeenhu6SSyYiGSL2tT0uhT3rH2g3C/hBS+R0/19P7+3/PTeH4fhPpdGjROAINJffNCufPKTnyyLFy3N97gmwaqOql44MAxGkzKpZX+dUenFgQP7MlK616H5vARpS+h/UcQDBPgFgU10s7PdRqpoxCAMAjBJVb7iPMl5565PWHU6OfZXOtwjOg/EaUBVIg0OvFCpgcFpq0TUPxezK9zSUtJHIRtzfrfrF0ZiiDkK1wgeXlq3tZq3kAy4cMEJbg10KcG6h6ZqVBpROpNMN4A0IgH80z/903IkZu3+mCiNwTnkTuJ84QtfSCIsV7XboTZ5NntAlDGNEIk22Bni2YhO7hX3ghWCXA2MpjS89iPTNq71wZBcBkNSTsQgTgxRwGiq0R8Rno3z0TGP9gCq4/LlKzIjlwYqbMOKX3nu2afLU48/EaqqX7D/11fDToI0RHtGgHnmZz/7WczCF1fGpifLE089mSqGwxdN52Ktp/2Jh8TtfEnYch5HRxVg4odDkjogxiLL2lgZiOj5+KO/Lq9v2zq3uXfddddFivDDuTSABK644o2JmPFq27Nvb6qpEVOlW1VNdXNtZs+mf4kPI/SC2BHR1ACo5Icx/s3f/nVOcIiR/BA/L/ElVOwAi4S0g6Vi1FV7ZbTO+CItpjOg0b/M2wt/H2TDhg3lkksuSv17jxDE+sJJ/xBYlP/93/99urt+uEQUL4GMBGyNLlhYD0mtPuXUhKHoTxqumQLE2DyZh1IG5NiG3EFA27FjW56cMCuThkH62bYQ2vfF5EYi7T0kqswsN3iCGDAtSSDCkDYVw7yHZPRJZ0Ghlyh0tYT0SyN5qa8NvkQopIIAfUwFwr2+55xzdq7ozDl2EfUhGcjlMdJHhGECDrUxD6ZnpWPSaRR7oQB46623Zo7pM7tPqd5V3Vf9OuHtrDOO7HP0+lwahcEqYFKjv8zDAbTr6+qdUiXkTEmsLomViL3ToYkYUocM2r48t7QubobYAFZgNWIuWFDXSPo0VUoZXXmRdrD1b32UxO/3uPbQLKoVnOtIb70B/IQThssVsbD2Z6IG5i8I+w6ktruOhiH3RVoQApqKMROBzM60/VW/LpDH2Cx+5ukXMlHygaAdtjNPOYfm7AgdwJdnjFCJukYtDqjKHLAvjM2ZI26Lcn28d/WNX5pAOioPYMyKj5DCATdnMxjTp+EBQ3Gv5F68B0bWOiAGUN/w/KiUzdic2bVrT6ijBj9W7zoxPpW/1TRnkJAc2PlnW1eewbRMQYjKrakFvsZQEuKBOhqFOtGnU5x2ja+7/vpy9TXXlMFw692Rf/gTL+MTU2Vk9EieTwSnrpfZTl9+0eB1fpXyV3/1V/kLN1IRFhCPGLgw0fCxtfx9jeIFg5Ps+EsHPnU50iMlVKjKeyKH2IFI0kkgs9V+x4c+9KHc+vQzGPuxgiPkJkGu6l7BPNzSDOlF7hgRkw42Zu2/OzMkBswnxjBPMSWEN8c5d2YvKjW2LB3RkiDi5qresw/rZW2IJRlMKezFeH3zZB4iPHghexeE6iSF8nrAEQDuC6ExixcvDcOsv/+W5+ojGufXiYmjZfuO18uevbtyRjZHGaeSjCtcJNw0kUtyOmMXIiTD4iFpM+Fm4d9JqFDub1NR3V/8xSdTrDhs2xmHDh0oPi77FRLgCDt8eDS9iN2csrqexiIBRBhvHBj69/zXz9w2sy4iqPwTd17okINCf9OTNZIqvuE0m2rXySnBqG4xMDwqVKiRTYBnH+TQyIHcndy792Ak4/flj1Y3XLS+3HjDW1KlqRp2AjBqUYcQOiUlyTECVH29Jy0G5ju/fiTo6p17HJvsmqRdjaVehOmrTyW4MpSJkZc60idvSZ1FFfl6g9smvtw9CqIFKtwb04wQ94D7laLUoKYH0znfrF69spx9ztqy7rzzK9KArRiHSHV2N6AGHlzgSHJjWeDqr7lZZpAM7rivuCCB2vLqKzntI96z07yyNVVGv3nzptz0szNQ3b5KXVUIoTGUi3AUNsm44r5R64o4VT9G237H55CceyerTJD+hiLxM26M5WQ2Ky2wGnKEIAo8tskzq4yi1Mae9HsUcsMXN75QnnjsyRzsq9aNN96QiKzotDXiA2cSasnJPRtj4lML6WC26r2KuDkb8b9GLS5Iw0AifeCh+8vURJ2HZG2OYvjY+La33RQI6oIcR1SLcL8j95cYwCMFFawmIbDZkXEIQoR3sxqoab1CGradfNcz1+hk+jcLO/nvnR+HeX/fffdnlacwTH9tgcjZmSIpZ1eIAQcOtdmHgjjzD6nFyiVWX/PCiGamy+jho2Hd55Wtm7eEqA8Uucq5555dLrrowgQMEBUhXpSVLp52xunlrEgXT1lzcjlp1YrSH7Bk5eJJfv8JriFEAHWQCGnYTcyaJIVqdBg5dLgMDM/Lv2n3t3/zN7kv1j5GO8KBI+phHzhGDAS33HJL/TBweCQi6Io8vKLvooVDGVHlu/kVo1OnetIxDkMIolJMpa2Nx8vFkT/0BuKLLzq/rD3z1DJ6dKz4a25+ZWQT3wQIgTmF+rSxCQY6HYT4jGJV5xOJzP+C89eVayN1WHnSiTmuGvSxLQmEuGcb7CkJ0WCz99CRw+XlZ58pB3ftLPMXLQzp9uT3ODMrPVKFBMnOsoECFfdUGpfbX99WRg/Vv9fJnkjUpxXzF0KoRtEXcT6daM9nOhqcN1gp3L+n9B4dTWRXXn5lGpFPZQKWASQAqE0cs7UApyCU2L/73e/m6U/qlN35jIboRgQJNKkcr5qsR6foNfLWeLEgxLw0Et+De/aVPTv3lJPDAGVa9tVQDbCoanI0C1sD+7MegSd/or95y2vlxXj2Q7KNL20qL298JZHyKoSAgSjq8Oy+lUiynHqqP2datWhxOaF/oIwc2F/GRg+X//SJj6fOpX50TSKMVSZG7CIq5L995umyeOlwZmYi7dCiJeXlVzaVyYCJax+n0g6Cc1Jxz6PARBTpdKZ769/97u+LmTdcdml4TH+nt1ywPgz3rPplSxBjI83wzCV2IEmIxCTP8tvTz1xbTwSH+KWRrv4OtIwP99RHEmDkfW/N1BDTGRwNt5oXc0BPXxmNhOHSqViRRYb1WBjux//i4+XjH/+P5VOf+lSKVUU0IJaRDjm9vvXVctWbrigH9u2P6eDxMnakLjnM1A5F+bhkVrfP0g1ps0opBaYESqmouBOJaCwDQgKomgjL7Y325YORcc/vLz+++8fJKUAKL8ERUZpTxBb7aNocUhBx7cO3vjyOd1lWZPQMSSDSeMEsjTQqqYexBuakLNzQGjQC0KmRj15y6cVl0QLnAC7MbziQ8Q6AxBLAICMlz3aaVKEetyTmPbWxK/0a4mME1N2qaiNhrAtNQFEPRiAzJV92xtry5quuKGecenouoNspXMAggcBnecarQCR22B1wL5fRzyTpWc7iGRNgkICr2mwmN/OsSVnzwbHxciDSv6kAtHdriDiCmjNjbXfIIMBcJTsQuWe0uOLWEnCFFG1VkCJEkDa1uKpwVw8K1cyLjn7Y2enrL/Mj1B8NCR0KwAdiAb3h/A2ZecmucAxo44juESArE7zYBs65qznJWqYRapLjRcYpNu8UxGAQMZ3pWDzNhME603owZt/9EeAWxeDFMQhHIqgsm60A2gAgCnE4pAoLK0HOOzYjn+EApg+hPO0g7aLOwklMT813MdeZNmF1YoKLCbm3r1vGImGeGos8IvVfjUpSxPhIwSBA2QeAUgExhSpIjyp5SH4QiLFcvRkkIhHnWWnSTSL75y0q/T3zy3QnlgATR8o+a5SQ0Kb77y//dvcdZXes1u6972flJ/f+NIEblDoNJAzbPAQ4NXFls7J3as7OwaADupEdZz/tHu0i+PX0dNSEN7b/QOmGVIYioC0WP4Kb8XC5E4OgM5YNJ8e49eW7EaG4Sg8Aljh7Z7vbH9IhKfc8zrg2uZFAqiHuFRIiPXbS6RseLIc6E2XEV4Ylw2Xo7DNsgJaBiJAHtm5OBOzBxMUIDUaENiHcPVvhMfIUgQ5ihVr01waOe9d2j6CRSD9SItOHRm0blYFIC01S2yfHyoGwk5iPy67dW1O87IP+xQ4AZpPdJIBnyD30s7PUUgD9qc03wPyTiAHb1bPt71jHhGqCqKnZ4yGTsb7tm+d3mp2yf/uesvnl1yO4dMuiiQhyr+xLj3DAGnctTLvyDEGKVFypQ67iCjACESygsQ1jSJQrm69IxdhuPGOue6Qbq/2oPQO9ZfHw0jK8clWZCkMKsynDQeSOAAYAcftACCnv8eyXa3IStkICTuQgAOEMFwJZnffyXBJk8IgBM7coZr2o57995nMz561bW4ZCx2O988vhydGypBMLn5DQoajdmZpR4cgfBKVPHDeXZCs416409yQZ1XMLhqQp6N1zz0+SAbtJN930tshvVpXOvsnxyPX6ypHQ1UQY7JL+heVILKqOzPSUgVCPgjPUQwYpQiBozxBCTn3NK7TzBv1IANEIaoTqo7IbUu4MdH0OmQrfjvVoTMFHYmkQC8QwpoFydOpIdlTD+RKIwe2qIKZNaBB4hhByRDlj1uymzbb6xlMegrIna7WYi3AvUKyTQv84am4IOOQQuuqLe/dNCpDpTwrsoiXWpgh9EFcX3JYT4UERyxmr/ukEOmkAzFUjxI0LnGl39e74+/ZObZOXdq4saQInFDsHlxTBxKS+edovjBaRuWOkE6ngMDsEUJwoBmoDhMHpoy8kror3pKGPfJbHIKb1aRL23GxKGulMAVxK5iMtg0IdCelsJtXOHXXmdirqVXEEUSqViTff//73y5e+9KX80smdSQLxVIkI/cSaNg6R8OvT86nbPjmzZPFw/hDMhOWntU2/GzZckHmG0A2wQoIAIFbEJRQSRbhpAGB9SNSfl5FCaGsMy3/lMPfe+5PcFHaUmU11IDDNAyQTsyfaOPaMExyRCmlpJ3ZEC+H6yFNJy24S7loiRQK2JkjGWMVKUBZnbjr/gnU5HWjLtW+bqHTGLSCQm1sgc0WwdgS7UiXkLYQjUAUDPP31IS39qZ3X6JN/2C/mM5JjV1knYr0xP5aLCJBTGEwVQ/5oUtxfetmGUEMEs5gGly9ZWG64+qpycO+eiDf1VDcVkBpgTQWeIVERKX5UIz32pQweRmtbw98K7pg3+DQJsAfcUAM7IWa/LLKhK91zAtMHSK4JmAIBqWLE4h0C94hscae1GYOQ6jUtkZ7928/0CaHCog0iflx59/xzL8VUXTJFOHhopGzfsbNMRIrlCxSRA05FAJtH2A6JklQjwDrXPaL0d3VQF0HizNBgSB8RKEKplRkC6NO6FKcHDtjEB7CUAyOj5ecPPhSc1CUFoGzCGPf6U1Hbo0UEArxTXLWBVYmocYoW8kt40y8uWvAxwFKRi/oKuWTpstyOgnRlpH/6YoIxNlshaldqJRkwLCOqCmoQbLjcy1utMGfbHaJ1Hmhs7m8qAsxFUesdUaYL0mUMUiCziFZIhRpbX1k9Io1p0qiSqephg9pTgmF/xndrY91npaIrr7wqd5DHIpfUsc6OYfWzfwpIwYFVICaasVpG+PIlPmDEJxWJEpjUYBYmFdJFRCOGM+SfqXrLDdd9nk2cufasEOuC4Mzfs5oo8yN9RCnZNSIgaBySjI3ApmvvZPPWv+1AdrWHmiT7A0zuBUy/ZnvooQczsC1bdkJE1uWl95prrvn8lVe+KXU7NSWPlIGFn0e60Y0FV5hYJrvOfcRtXLulr9vH8uq7lFj9zdXQ0MLwGL9OWxEESh2kFtxWciVBGkgX/9GP7i4bN74cUhkrl156SX7WD8Z8ryUm9mBXh6HikdjbD3SqjpuhETd7oCJ9jVWNqa7KjmYTnhjTvNIYahS72JgAp5+f8vaGy36+bdC1pFgBAHKcNWIU7YAB7IpbV+0qVemP4AqDTdW2vXv3Za66evUpGXOuvvrN5Ve/ejQjegcRTkw1o1JxChF12YH2adUvQ+oZIolQvZKG/ghxbcSrjSgnhz2zN/1MkJgmDbOu2dj5gfx5HOpbVG3ia4NbTEEclwS8GaE+xrp3bVW7/q7N9TGCWfeNUUvZDJ6YEKYhA6CJHgDupb0RpB+g3rc+AADakKuIUvQ104qa1UVnzxKFWTQYzjCJPwjMNECFVEcFYtM7QK6IgsD71gdg/QBsTCCk3XvHDqjXeLC8J3HRGAPtnfuOE/310zpXrVbPAxxI2LhxU+4UAthEDZBy7Nm6xMK6ziHNgzzbpPnKV/532oD+pKpQi2dq0Uf/cF8bdH6FWo0VheKIjdpTTz05d4p4E0ngUh/S04802g9MRWefYM2m9uQYo1+83vTOt+cnFDB9IABHO6kMxFwGnraO80Ju6BKV3Ben0j7TucpI9WHQkHvOPCbU4BmHjN61iRoCxmiiVD3zFu/AJlnPGPZL6C4EjuT44vD979+ZhoN6QHFHXYAbJE9RWqg3Vn/PtsjZgYI4VTkydjT/IJP9OG3VdbsZ3qmKfYLT89GPfmTGH2PzL0t+8Yv/M1/6cNgMWAUAIBZurvBsMIDNOH169Y5RV2aq6w7Mn1f27t5TPv3pT+evGp2RdcbNuE1hO/Z3hf08yOLLVBM1sQtCdCgXoQ6pIdVBBnmzD+pwhdx7Ex2xC1RNtQopYIzUpAgWYPC2rN+4Tj1IUv8awtKli9OlcGOe0OYgpZ80LVkyHJSvDGLeWN7whstihj0npvm1yY19NsRUJmoe0hhjE9QsUbJY84zJZlMYc997wQXrP28q9gN1OvbXiFEubfTb7tWr1+RgxRKBPRis4tzB/JajSqa0Q8BASWJ42XAZXDCYGzWIlaCbqd0jAIFK/ioNASoVUAVkOCONFlEN5Pc8AaE+HrknDap1RQBpkKicVX8SU41v7q+6JzFSP3AgssH/8LF/P+N3/wAILnmMJzLsqp5wzYE6lXuOSyKztMiwnO3VhQFFsKu+EENignRdteqkZE5wxED7jrxjx55qDo899mj+A6EiKiohSSJiSUVa5gMSEvAakhRlRGLECFytDXLFcyPMWqiOOxb6IRbc2Mrhw7MM3XHHHTMQ6twQ1SSnTvEiZuWsbtao+sBJig358aURBp7AhRFE6wtpe6fNh0je2XPnnXfO6KAC0LhR2j1i3D/w4M+TI79aJGYEa/9dSRw/HhP6tj6etSv+QqWfzORuAIpbJwAaQQhHQAPK+GTqvjq4/12EDfjxVxURTZLH94e3fXbjKHM/9KEeHY7v3K4qV3SS0yE5omyENAStNqaU9r7B8kyd1MPo/dIEoaeeemr5v1a5vfca3Tf0AAAAAElFTkSuQmCC;" parent="LvfuuKePgPZG7jUSQBum-39" vertex="1">
          <mxGeometry x="97.62198010421601" y="2" width="44.16" height="300" as="geometry" />
        </mxCell>
        <mxCell id="LvfuuKePgPZG7jUSQBum-37" value="" style="shape=image;verticalLabelPosition=bottom;labelBackgroundColor=default;verticalAlign=top;aspect=fixed;imageAspect=0;image=data:image/png,iVBORw0KGgoAAAANSUhEUgAAACIAAADnCAYAAAB7YoTFAAAAAXNSR0IArs4c6QAAAARnQU1BAACxjwv8YQUAAAAJcEhZcwAADsMAAA7DAcdvqGQAADeNSURBVHhebd15kJ5HeSDwnm++mZE0Gh0jy7JkS77kS7It29jYxvjEAQzGGAoIgUqWkPyxSS2wWaoWL2GBStX+s7VJiqI2VSQkG9hNiiOAwWBsDBjjA2yML/BtWZZsWfc9I2nufX5PT4+01Ha5/b5vv93P/Tz9dL/9jXq++MUvzHQ6ndLb25u1p6entDIzM1OmpnqK9/Pm9Zdut5vv1YmJqdle02V6ejr7trGTk5NlfHw8+kzEmE62gz02Npbv3Bszb968hKNvzxWXXzZz8sknF3VwaMFcJ4N02Lf3QFm1alUOGhwcLP39/aWnM1MGBgbKggULyuTEdNm7d28Ssnv37hyvIHrfvn1BRG8wUsq8+f1l586d0WdXGR4eLjt27CxnnHFGefbZZ8vy5ctLzw3XXz2zdOnSMjQ0VDrdCgTQo0ePZu3rDoRUpsqvf/3rcuKJJ5abb765DC0azH7ag9fk/LXXXit33nlnIu/r6ytvfvOby/z584OZyeg5XZadsDTh7du3NxEfOjRSlixZUl5++eVktHfdunM/v2bNmuRuT3B28MBImZoMiRwdL4cPjwU3PTmAdBYvXpxiPnp0LCS1v+zetSf6HC779+8vr7zyShKDW4ydeuqpZc+ePWV09HD0PxKEDKfUDx06lPBOO+30ZICk9e329/fFzZpQxXh5ZcvmpHpqaqYcOXIkOOnkMw4uuuiiHPj444+niBFW1dBJxHv27CvnnHNeufHGG8uiRYvKc889V5544imCSzuh1pUrV5bt27clvIULh8rBgwfLihUrksAOgKhiF6TRDO3QodG8B5S+IXPPdl544YXy9NNPp37VF198MdXwjne8I7ljPyREWuyH7ZAklSP+pJNOyivCMOo+zKgEkuFEomPQkzqGXOExuEGU9pdfpoLXUwLbt+9M8b/++uv5joohhJyaIMEUGIycjUFK2lSoL3VjsrNgwWA29PfPS4MFUOe+vurKuEMIIg8eHCkjIyMJWGGso6Ojaf3r169PBNRHddrBwRBpGd8Y3LVrVxK5devWtE3vem5+500zF198cb548aWXyCC5Z1QA9PTMpE4RRAKI8+7AgQMBeCAMb1FKZdmyZSlVYzdvrrbmXn90X/XmK9Me9u/fl6oZHFyY0qLalOSFF144A8CVV16ZHMzZSxgSDgAkAVQrRIwLfSECjBQUbfr29tagR2LTUTFEElu3vpqIzzprbdrY1VdfXW7/7vdToj1Bzczq1avL+9///uQccIRQASSAQIwA7QhqhOnr2lTgXh9xg1GTXDfeeW/8a69tKT/96U/L+eevT4Jo4t++dXt5wxveUDqAsQ2AAGmcAOJK7KxfaQSQAESqMY0QY1V92Mj27dvTw8DQr4b0iehTbQxxc7AN0gFSFTLAGB5gBmrXT7v3kFJbMz6lSdJ77a6ed4XrjgeMyYAxPdMTgasv5BWEBvyeXn0HsnZwU6msHqJQBzUhkJtRDcBKI+aYPfQmkYg9/v3ChQvTKC+88KK8VsPnnf05pvav0sdEjKkcKmyicQ8QYvg4grTh0LVVgBXtimf3KsQC1mmnnRaqX5wEkNR04NcP02ojvEMaKNRRQ/MIz4hpRDbEOSiqPgA1olpxjxB9G3KMdDpVna0dw2CTRkpEIxdtiHgL21DcMyaVYRrQRNmkgKiGvMFQPTdjJh04SBwxnutcVl0+x/3xH/+7zEeoAVGQKPCgGCKDSApgSEgKYP09k2qKfZa4Ng7Rx7/nidu2bSuPPPJo+e1vf5upwsknr0jcHdFOVBTzASZu7sw2XBFgjoBcH8YLkfsmdu/0a1cFp+5xry/CwPS8c+f2JI57M+QkBBcoJTaDzSsDAzUS4kZbU4uwrl+TDEIgcE+NJOe92mbeI0dGc25R9HFfvXM6CByaU2HPddddM4Pz66+/vlx77bUxeV0wpzdI2Mvf/d3f5Tzx7W9/OyMiCX34wx9OohGBc8wA+PWvf708//zzSQy4EOL4iiuuiIh6fvnhD38Y1wvLN77xjfLBD36wPPbYo4mvQy24VeWXqPWCRFxlXzgxH910003l0ksvLe9+97szvTNWtgUhnX/uc58rr776atqP0mZZTDVXJTVz0fz5A6HW/lQNyXbpDCcZ3UICigFEhjh2o/zyl7/M6p2Q/aMf/SiNkTRIRu7pmfowYCxmTHozAas3YC8IXEFVpKLjkXSHOkJaxmM2Iitrr/6PIMCaWlAKsWfJD7U888wzkQI+kSmjhLplauxBX6UxgiCIGsFjY0dCMn1zrqvQQmb6DRGkuDe4uWE05z3O9GGAOFWa+HEjEZI28ATMsBd9wQKXt+hP+mynGfi0MBvFc4eYqkbqhKXMERMMZqfZgQht3tRiiHcQIxARDZH3rn1xHQmDdzXp9USEtWyZmAqGEnYJBmK1ABhOiA8wBDTVKJ5bW7s/vraxrhgwTvXOc2uHRwFHfwzph/CcAoiuibC9bIMU9622Algr+jfVteJe9c6CCzHuW/tAf+Sw02ESUeFOBhiOjurvlumZOnk14hoxx983AjyTgoJjhYS5bWOS6tpYMJvE0mu4XkvtlQZYaYDb4MbR/69PE//v2pB2BVGQSw22bNmSgVKSbVoQjzomvLPPPjvdqwFriNozAMdL5fjaEJGCcbiG1DuFxLUJiqSzdu3ZsQp8IZcmTz9do3Qk8DVVNCk1AJ4bkED1/yCda5+9tmIMyYiyCFMRppI4JhllWFQSgziMNefQp4MALw06HpkObASS42u2R23PChsQ5teuXZuh37wkZoBLRcdLGxHUAYZABka6PCCCTevYgCueDUC9ds/6NWK0e27BDRGIMbmdd955SQhbsPxkAi2oHXOM6SBiMtoGS5d4+LEOBgjV2lAZfJcjo4czYJn0Lr/88iSmiRRxLciBccIJJ6RkITKZqVaKl1xySa7mIG0BDwwF3tTGX376tpnls4mPeacBh1C63xtrEINbvNEOEMTu9ffcCNPWkNX3UxnulZGRupfyL//yL+k5nORd73pXem3mrIAcjwhAwFQ2BGizoSYtYm7rHvfaXfVRwWzS4Qwt6BnrXl+45/B+7rOfmVkUHbnR0aPjaUwAAWIxNDN1LJY0LhVAGyJ5RxvTrgoENmmohcRt3JnFJUWu1rzvfOc709C7gKMK59u2bU9/1wZRzERl/Ogxt8YNTvVVIbQJIy1oktPPVT/XlStXpNH++Z//edjZkmxTqatJJOcawBUDVYNUHTy7GgCBe2JV3au4Rijgin7NKxocHtPSRxJrY41TlVxyAoIj0mBMsms5hkxMlWsQvz5zA2cRI7IV7yBo71zZgrHEjzBSVPXFEMJSmrk4Ds4RNDy8JPz/nHLWWWelRa8797xy7rnn5r7YBRdcMCsZsaQPmgBybDsUQDBIAwGes85YF42FYVfbQ6grIsYmrBy0hS01qmVRkL/pTW8KvZ6cFDd9Q0AyX/va1yI9fDyf1SYdoZ006VpVMIfwRYsX5k4AWK14l0R1B47haciIx17GD37wg0yEUax4b+Ddd9+dG7oClL4AQSoGiKJnnnlmOeWUU9IeEMZl3/a2t4VX3FTOOfesIIr71m2PCruT0gOfypIQVbGuER2/9a1vlQcffDAHqAgRXV0NWrDAoroGOvo25pxzzkliTPMQbNy4Maf34WG7CfY/KlOTkZoa557EwE91At78HhJrFr796KOPlm9+85thaDuic13/igWAqDjUDhiiGhzXNuE1jlXt+pGi9yQKDptRctLTaJBZ0v26devKBz7wgbxvq7uAkQCbHUDETprUFLCoTT/wbr/99pCu8c+VsaPVpScnTXQ1ZMDHRtJrDMIpIC1Uq0RMMpKWe+65J+cGKzODESK8yyNwimCEaQcHYdpMoi+99HLuaPM2eyTGq9PTdQu14U+HRwCxNUPCaaP4jW98Y3nve9+bxidUEz8kZmPjEACYNu8Q4tk7sWPlST7BrJ7bg6ViV3jmL6hbZZ7DRgSl+gGH2FAOqIJbAH/zm98k9WNx3xd2EZNyGY9V24JYv05PTpX+bgSxyOYQAaiKcIQtGV4WsMfKxOSReM/lQ4KlxqGYEJJp4zKy4oA0judMERGt7i2wAX7ppZcy4tIpzqhHYbDUYpx4YzKTgyDIWhhDYDeJkUZra/EobcQDYAxM8YLXfOUrX0nX/NjHPlZsCiPWFAAIxEQvYC0cWpAfk6zwp6YmUv8LF0oPe3K/PY3xONVjFgx44QQrbYSeWbIX5pW77rqrPPTQQ7kN8Za3vCU7yrbMmFREQoLec889E2p7sjz11BPlkUd+WZ57/pnIF2KFPxhG2x9IJqsHQdoqJhsRpGMXwlQRBHZn40J/2bFjR67yGekf/uEfVmsOLohUP/cG+5x2+PBIAtNmLOCHRkfKL37xi+QSzAZb+NfmWTWOVLzTDn7AqXOJF1yUl/zBH/xBhun2jmFRCe4qh5OpMpJiO8YKUsI9pLOA52yiVW0kol0BGxPGdjRSjQ4+l9mohwxwVxQb0O3WnMQgzwy1jiNmMWi8bNn8WkS9iJ4DYR+dvvCqhYlQv98lrDJUY1DOXZ/97Gfz6wSR4VLKiEpiw3ETn23JnTu2pTufddaZx+m6egH7eW32Q1DjXC2lGwSMlSVLF+Xie+fOveX7d9xZnnjysWD6gvKOd9ycwbP32muv/vwJJyyLznVDBqdc9OhRu4J7wv0OJjGA+iC4/MQVicg6sDfiQl9fSCjiSF//QKjGntrSUNeSSCuGg7HlMfEtifXOKUF0KDhmvpGRQ5GtPRuhYWcsxFYFU2dE3zCDpoJ2lYNCzP9rxlY/DrrfvXtn2bdvTy6eeVe3tz9jjUQY8cZYFzF6bivE25aQJoo7GKAmksYYyfMYwbTbiPB9144gcdMliXjXF1ICBBJfMxsyCdQt77o1M3JqqWqo2T5k6UXh6mbpsbGJ8nu/93tzn2zBJ30MIyTxGwCh4gVD1AaYQlUol9RYIoon8o6nf/tsbmc++ugjEVeeihn26fLkk49nbCFFjEghSIYEGnK4EN0MWJsN5kwDWgepogSH5wjRPnFdddVVyUlLeCQ2Sm+35p3afQo5/fTTk0iTG4PFJYlAygkg1eZdcwI4eUxG3nSd6KDRItpH5Le//e0pSsvBd9x0c7nllvckQQYfPGgbvOa4JywfztgBMEm6CoItwOmPAKsC8N2TsHcKRiRX0VyNFRBXAxiXQa2z9e/E5EQZc9ggBgwOxRo5vGUmQnk3wjjkCqTEX2NON3MVoQBik6UiBtFA66O/MktkTZxdzZzf+c538nO6Zx1ips7BBrqyExMa4/a+ja0ecGzZSUXyF0uTFqdEZ4RjkprBIw3pQU56Dam1i8Hf+973yv33359cRrhIrvKzqV3AiJxTYyGd6eBilptWEWBGhgBh/QPdculll0QwszFTtz9qEhZMdcNAe6QD8t2cmWs2biCqnXaQIj755JOZzXNpYuai3qtNlTjzjAgcupLQnItGnBF/Fg0tmesHD0KnpqULx0J8B7d0J1Y0I+Oef/Inf5IDZPIPPnh/AB+L1K6KVc6BGNW0nx7UV/MNHCNE7FBfeP6lOZVpbyUl2Dkmzdze5GIodgVMgeR973tfuf76a8svfvlg5B1PpTsiyBgEVCA1t2gcV4nUrxQirKgMZouoTZJKI5AAOjhoURGgJi4DXdmN3KT1ASwjZt+8OTEb5z2gTVK4B5ukTQf6tCCJMIQrtOFdSiQpmn2JkEaxDlT38MMPB8D6lRK3CxYsTCK9Z82QsQVXMKSICriIM3NLE/QH23v4vCNBJW0ENzrhRAdItJnc/vmf/7lsfW1b7gpAor/zRc4OTUYGPzUZOcq8wTRIBSLSoEK2tHDhomDgWEgHu8JHWJVgpg5E0yTSYgLOH3jggfJP//RPSYDvd9y6L5KjgVh6IBo3kiXuKmu3ELfWbSpVJqdqkAO32ZDa3lOzZx6ZlulwUzW4/piktsWM+m/lsceeiJTxw+HOb83gZCutMxD2ECF5QURX21CI6O/GGjcIh/S009eUy6+4tJy37pyy/vzzkngB0AwMfpV6uG7gE0tkd1Mz0oHIhxGiE6NzUkpkDaGkga5de0ZSj6ukPqiZHK/Z2saNL+as+/wLz6YNPffMs2Vp5K82e9esWZ0ToA0eV3bYbI/EWyUlWRuCus23q5WPl2uuuaasX39eEoebKq1YwcX7NLSQ6i03v7MsCt2nGkTJefUrtwkRoYuHYgaet6CMHKwbxQ0H5KTC/rS1a5oGQ/Gg0znnnJX5aNVhTZAQ5GqQdv2F94mJ8TIWuvWBeSTSyal4ngwVcdWWpYklxhnP7hABD+mr7sFM2xT9qn3UgMb3W3p48ND+nKgOHtwfwGo/ALVt2rRp7kvnI488kvfWNPfdd19OD3afwCBFyFxbAQcR2uBFVFcn1YsGlJ+PjB7MAaMj9dPoju2vB5FHykAM2h1J9eih0RQ7la1afUqqaX9IY8+evTH9r0i3lQZuipm8SRPSJh1tTU0pKTcMkXpaUtOMc2wsZkqmEuF8cGgw+wTFZfvOXeVArOq2vL6tbN2+I9LE53PT10HI0SOHy0sbN8XSYls5NHI44SCgSUap3lO/upujxJS0kTo1V0OSayp8G1ExLN5VPfbPixAd9zX21BAPmOdJLhlGbWpXuLbPH5dddtlcPtIIaPeEgLmhYDJ3no+9GJ8LSKbwTk/dnu6JSL4g1i19wdDQ/AXltHDPM087NesZMVMPhYqMs6wgTSqpBhmxoxw7QAVHXoPQqZCQLA9s+7C5z2qOyBw0klyJMOKEctQz2IG+/rLxxRcyzpCez/LTIYFDh31YrvmqMcSvIl6/1hdTCEAcCbhv5kAIaOgaSLQmLe4rY0d5G+QaDeWee+7OvdY2SRqzjOFN1HSAKknD1TPpiC3TM+PlnLPPS2QYRoTqvqq+5ru5CEcM0VqZZdyPQQpqwygSAcSNQDnr2ORYEFGPZNA1GIqxYLlCqJ0TgGEsRpq0vTNev/xwpAAmAFm5ybqbqLOEznOxHZW4vQMYEM8Aa2tjvAPcFedPPfVUMqVNH2pBqPGNwDz+pXhhkWQW/fnPf57nQ6pV1+gKQXegbm/tPziS+6YOZkOEGF6lPzgAW++YjSFFqHZ9IMa8a+uLuLmTeRA5gmOjxgLL0uIf//Ef88RlhuAYhKOe6A+INseTqdK9K0JU/bivTRyrRbXZG8LYI2K0IcJ9rn2benAHYTvNSTrfvv07uT/G8AAwGAE7I6gdHDHRHUyJGHu8vSTRUeUzjRHt+iESAQjTJyVpcnMDSD3eUw1UOnjNNTeUt934lvJ8uK3wLz5IDRnuRETd5eHyAFqQmVd4iqslqQzNVPHwL39Vjo5FkOwJE+iZPe4jt5klrBMrgMnpUBOKENFE5l6pW1LH9uWrbrvJjTHE/YlPfCJPU9misFWOe+tnxS6AVNNWhv04UjEOHMU9ogiBeYT71kUPkQlqSu1cg9OOnTtzc98AanHtduseGgBcEyJjEZ2H24Jb7yRJ2tvGYEbruGIWbLUbk5kcZ+6bHgotwN3noKDWTs/Xv/7N/ALl2NfgvPllcP68siqyrk68/9Z3bs/tcSkBtfh4YCGvgCcA7tt3IPdlqRSDTeJMwPOcsUKqgeEQezXGI+Wuu+4s//qv/ydFL3l2ig73Bqr203BEJfZT7Ks4CQ4RIryDgHoQimHtjRDP8Jo8Dx8+WkO8Khoysm3btpZ77703pfJnf/ZnZfmKk0pfb13td23ehZ1AOhrrHDOxH3E0KWJGUISMrSC8fmw4ln8gYDoyPM9maqaRAc5LasClbe0f//jHua9hIQ5Yt/eYlScHYR/UIEs7cngsXRcjxkuUEKMwfHBJzDEO/UjbPiycDW9YUzkyGmkI4JB4ISZQhYBWfzFSk2cFsqHBenwUwYzVVCA9ZAsisa0M7xEFHk+hFsGRdEhdoaKmGpKZF4l217cXNiFBuuCCDbFYWhvA6j7Z5FQEp5jciO5o5LbzhhaXdRsuDomdlAQCbLuTdCAXXR977LFEUqXsIOWRtJ316zYE0pjkCqmMl95OmETkwUJTb2RpPZ/5y/8ysz7crIq0k+IFKKWUyXw1PgBxSy36+OWIQMbt5THN4BHl2qK00sICOPZj77jjjshTnssVor06OVD0ra4LOYOEDGdCOvHLnjzT7+jh4HD8SBlcOL/s2bsjOK6TXbX+ulePSJJCnLkGEaRFtd5jVoQGWyE5JeOISleKAe4Bd9+urQ8VNsNevGQoAbZAR4XNCPWfQxLMVq+scN0jnOQq/PAgQA3SCKFBnhuHnl0boQzaYC5Mavqq+iHKOO/BVRCnjap8uJYYtUmwXqvKOsTH9w1O94rSJKI0InAhx3BlBynq6Z4E3FQLOBgmRRUB1JduGu/AtDK0t2rBJnvXhzn0vOfWW2aEcHFjxYqVOVc0ItLGY8pXADSBIUycEaIRw+CctCIBq70vf/nLOQNbqIvUkCH2hhtuyAW5j5UxLD9SIcAvSjDahfjVyFVxYMake4TgwPTsc6p7hxPEBBxv3vxqBKzDicBcYyygvgWSjDlLtf5dc+qq/EUatSGMRN2zi8HBmLsCBsIjDe0kILlItzuWO4pSPEbpu514Nq+/L7m950d3pTfc+YMfVKsPlfSHbZ24/KRc/dH3unXnxnJ1fx4lnpmaTXoilNv4N68IXtu27ch7zFET2+m98MLzP29/7PzzL0iCJLqI8YHgtFhAnXLy6kC+zL5v+P7TEZB7ypKlS0IdZ+Z7v2hbuWplOWH5inDXWAtPVWbWnnlW7tH60tkbatyw4aJMB0icXZil+/q6GUNSA83VUE7XtjRxL+gIzTo5PL1s2dLgcDKIWFwuWL+unIHIU/zC4IRE4P1JJ7EdQXEoDHtJqgtc8Jt3Ug11kLjC0M1L6b6MziASkdwghi189atfLZs2vpyufTgW2FxxfmTy6fehhv4Qaw1gdU8dEmdF0qPCqNu3f8VY77W3UNGu5qHc3sQ1IhoAHNq6YtG2we15INTANnnhiDsbj9N2BaMS1T8XL8B29U48kXApze3TjrzAPWK8UKnLSx+PPvih388V4EMP/zIBzoSxeI+Y8VAVwiFpAI0XxsfHZ5ers6VJ3ntr6BaFm1Q6GgQ1xLSQrENDYEPu3e+5JTmxpjGD9oUHjMYcNDlRV3oQy7Lc+5JpLMbecMllubNoLMLBc+XGpIUIBDLetBHGQtQ4apJpHL6+fVsaruCWyVAA2LfPWfhd5bXXtyZ3gpNYgJC2/oGcq7/1rW9ND2xwEdCYJQnME0KnL+KIxtxi7NYD+naErUtM1bff/u0yHHHFhgsgNuz2791Vxo+OljWrTyq9XSv/V8vW17aku5ouMOfc+3i4brPBpjLxCgFwZol007uOJKh1rrYS030EKzvPclcGe/1112UfW96Q7N9/sPREynjZZZenyxO/7Yx2kI6owUC401vSCCYAvppeEmpSm0l06ExHiKI9dwNv/+63k7M/+qM/imXn+vwSMTle04HRCO179+zLb//jY5Nl7979oY6Rsmf3vlBNVTNCqBohwjxEjRjcg62kkc4SE6iJrFq1HPRXv/pVpnbyVkkNhDoiGAJ2s3PP7jxJ9aUvfbk8/tiToZrtGTFVHsZW9H3yyd/kvViTTISUEIgwz4iiojRWgNkGC2Zg1153dS4dDUjbCSLoFSHsZ9mJ9Uc7fhB02umnh4u/oWy48OJUjQnUyTznDMwvEJGQX5w0VWCYZKotVjshuY69cDdshL59UJ4fHRWAaizw28667ypQmdId/7v11veWW265tXz0ox8t73//76eNNHHzMAt5sScnyCgIwHiGgllptEDYu379us+PjIzGau2SUEHEhJgRt4XL7tm9N2bJneGmO8qWza9ELuI3mbvT0C68cENZtHhJENkfM7PvfFXf5iH7Kcp4ZP1r1pwWbUNhZ+tiHloZhA1mwv3KK5uSQT8DXxE5ytjRMTvPvaHDJSkRGfqLLz2XVJcZx8xtifuxOiM8VA4c3FcG5vXlkYtuGHDuJvUI3XUJSX2N+6GFizPIXX7FZeWVTTUJgpyqSAI+eIzTHgssa10r+/oVoq87L6tsfWr6sCUW9889joWxAB89eCiN+ulnflN+8/RT5dePP1Z+9etHyn33/6w89NAD5dDB0URko6+nM1EefvihcmjEEuPY5h0G0kDtxUS66Tmz+KZXtoIjBlWLxEYGHwNiqcg9TXSC29VvvrZce+31GTl52Hve855MN9NFI2vBbTtbYt5hF7wP9yQHFztR9M0lpxu1Gmedqj3rnISGUPxGtyckFhlM2pNclXcxUMmNs6zDw/UAVHIbXgM5rj23eQxMBKnwNfxdgSZn1ZmeBF53AutSwgfi6bCVqYnJiBEvRcx4NBLnleXJp34bg0OKEV1Xn+zYzrFfPPs1QUPKC+1c2zFoqSF8kA8ODuXVtx0S6rnttv88Iytn4WZF8YOabCWguNPty69SOLDsBIhrnnLKmphLJsrh8DjqwjW1Er08lCQVBFbjrFsSvmSYRKmNFG+++R2ziVEsH+WYOgFkFpUimk9Qu2fX7kSOKCu1TZs2Z9ogtowfPZJE8QReAaHqY5Q/gMBrOABpEz/JIbrNNY1Yy4y5VLHVBkxHro0AhCByV8SR4UikATUneUdSDQbAbWxTDzvR7ll7/JdX47QhMs+6sg+NihfNWI8nzFwRfTMK+qxm6raJcyRSAUTpQzWukNK9YnxFXhf6rlTV2vSnyjRq+kcAQ/JCXFGqfVjXhkRGD5X+3lh/RHgfj6XH6IHIRcKm+rpm7JqTkorxmEKA4tl9GmkQnX9WpCdUFYEJ/HDcZISnBQ31lx0WQKtifSI1RCUPcID+nrvvys4nrVie2Rh7Ek9sADNsiyMnrywxEWGbigRxznbsKq5Zc0q55rprU1Lam6qUJpkuA6wirz/eYDgKg+wN6182/IE8K2+LanPMOVtf3VJWrFwVKcKyMNyNmSbKzAC2Cfymq65ICdmQkRY88MBDSSjbMmPDRUrsDgGyQZ/vwnSqiyk4UYiZC9q6OmHZCXn6anBwQVkZ3BLj5k0vR67xWEyGm8i/LAmi50fsWX7isohDw9HkY5R1TA1kJMEb2REiSETsIHlSxHTuKioQNIIMSGIitD/z7DPlH/7hH1JaDFV8sYoLa0ri2JSTvfk+XNlC3gxbk6QtyTV3RQyYDBMxqme4SCe/TlgYe0ClooP6w7t+WO743g9y9WevC/Vtnlgw4HjwdO5EW90hSpCyyyxLs3MgjVSaXSAK95hukkEYyXTanKCDASgX0PxOwinL973vA+WG62+MzjL8egwM94CxBTpfEPeAyUWffPzJmJ03hmRej4X2jiSk9ccIHIyf1yDMOG35daKpApU+JH/jG19LAB/5yEfSiyBTAAxPzP1W4xDli4XaE0C1IcZG8OCCocx3TYymEEhJE4wmjerCs5/oBSoF0HYA0hEw0/rCANb+pJD3qbJYUvzwnp+UH9/7QHng4cfLPT+9v2zZurO8vmN3eTlsw5dw9jM9EzNqrJnGIrGSTNnwgbge6wmAce/8WbfX0jPaiEkcIR7JLyJ8uSIyVcEBjojX1TqmScrXLvEEktGRunGMc3CpgmtTtXEKW8SUZ5JAsNKlloaUN8jCFYR5l3lIsEAaCIDov/+Pv85zI71hN5IVjJj8brvttjzoBoG5SVuMLqeenhu6SSyYiGSL2tT0uhT3rH2g3C/hBS+R0/19P7+3/PTeH4fhPpdGjROAINJffNCufPKTnyyLFy3N97gmwaqOql44MAxGkzKpZX+dUenFgQP7MlK616H5vARpS+h/UcQDBPgFgU10s7PdRqpoxCAMAjBJVb7iPMl5565PWHU6OfZXOtwjOg/EaUBVIg0OvFCpgcFpq0TUPxezK9zSUtJHIRtzfrfrF0ZiiDkK1wgeXlq3tZq3kAy4cMEJbg10KcG6h6ZqVBpROpNMN4A0IgH80z/903IkZu3+mCiNwTnkTuJ84QtfSCIsV7XboTZ5NntAlDGNEIk22Bni2YhO7hX3ghWCXA2MpjS89iPTNq71wZBcBkNSTsQgTgxRwGiq0R8Rno3z0TGP9gCq4/LlKzIjlwYqbMOKX3nu2afLU48/EaqqX7D/11fDToI0RHtGgHnmZz/7WczCF1fGpifLE089mSqGwxdN52Ktp/2Jh8TtfEnYch5HRxVg4odDkjogxiLL2lgZiOj5+KO/Lq9v2zq3uXfddddFivDDuTSABK644o2JmPFq27Nvb6qpEVOlW1VNdXNtZs+mf4kPI/SC2BHR1ACo5Icx/s3f/nVOcIiR/BA/L/ElVOwAi4S0g6Vi1FV7ZbTO+CItpjOg0b/M2wt/H2TDhg3lkksuSv17jxDE+sJJ/xBYlP/93/99urt+uEQUL4GMBGyNLlhYD0mtPuXUhKHoTxqumQLE2DyZh1IG5NiG3EFA27FjW56cMCuThkH62bYQ2vfF5EYi7T0kqswsN3iCGDAtSSDCkDYVw7yHZPRJZ0Ghlyh0tYT0SyN5qa8NvkQopIIAfUwFwr2+55xzdq7ozDl2EfUhGcjlMdJHhGECDrUxD6ZnpWPSaRR7oQB46623Zo7pM7tPqd5V3Vf9OuHtrDOO7HP0+lwahcEqYFKjv8zDAbTr6+qdUiXkTEmsLomViL3ToYkYUocM2r48t7QubobYAFZgNWIuWFDXSPo0VUoZXXmRdrD1b32UxO/3uPbQLKoVnOtIb70B/IQThssVsbD2Z6IG5i8I+w6ktruOhiH3RVoQApqKMROBzM60/VW/LpDH2Cx+5ukXMlHygaAdtjNPOYfm7AgdwJdnjFCJukYtDqjKHLAvjM2ZI26Lcn28d/WNX5pAOioPYMyKj5DCATdnMxjTp+EBQ3Gv5F68B0bWOiAGUN/w/KiUzdic2bVrT6ijBj9W7zoxPpW/1TRnkJAc2PlnW1eewbRMQYjKrakFvsZQEuKBOhqFOtGnU5x2ja+7/vpy9TXXlMFw692Rf/gTL+MTU2Vk9EieTwSnrpfZTl9+0eB1fpXyV3/1V/kLN1IRFhCPGLgw0fCxtfx9jeIFg5Ps+EsHPnU50iMlVKjKeyKH2IFI0kkgs9V+x4c+9KHc+vQzGPuxgiPkJkGu6l7BPNzSDOlF7hgRkw42Zu2/OzMkBswnxjBPMSWEN8c5d2YvKjW2LB3RkiDi5qresw/rZW2IJRlMKezFeH3zZB4iPHghexeE6iSF8nrAEQDuC6ExixcvDcOsv/+W5+ojGufXiYmjZfuO18uevbtyRjZHGaeSjCtcJNw0kUtyOmMXIiTD4iFpM+Fm4d9JqFDub1NR3V/8xSdTrDhs2xmHDh0oPi77FRLgCDt8eDS9iN2csrqexiIBRBhvHBj69/zXz9w2sy4iqPwTd17okINCf9OTNZIqvuE0m2rXySnBqG4xMDwqVKiRTYBnH+TQyIHcndy792Ak4/flj1Y3XLS+3HjDW1KlqRp2AjBqUYcQOiUlyTECVH29Jy0G5ju/fiTo6p17HJvsmqRdjaVehOmrTyW4MpSJkZc60idvSZ1FFfl6g9smvtw9CqIFKtwb04wQ94D7laLUoKYH0znfrF69spx9ztqy7rzzK9KArRiHSHV2N6AGHlzgSHJjWeDqr7lZZpAM7rivuCCB2vLqKzntI96z07yyNVVGv3nzptz0szNQ3b5KXVUIoTGUi3AUNsm44r5R64o4VT9G237H55CceyerTJD+hiLxM26M5WQ2Ky2wGnKEIAo8tskzq4yi1Mae9HsUcsMXN75QnnjsyRzsq9aNN96QiKzotDXiA2cSasnJPRtj4lML6WC26r2KuDkb8b9GLS5Iw0AifeCh+8vURJ2HZG2OYvjY+La33RQI6oIcR1SLcL8j95cYwCMFFawmIbDZkXEIQoR3sxqoab1CGradfNcz1+hk+jcLO/nvnR+HeX/fffdnlacwTH9tgcjZmSIpZ1eIAQcOtdmHgjjzD6nFyiVWX/PCiGamy+jho2Hd55Wtm7eEqA8Uucq5555dLrrowgQMEBUhXpSVLp52xunlrEgXT1lzcjlp1YrSH7Bk5eJJfv8JriFEAHWQCGnYTcyaJIVqdBg5dLgMDM/Lv2n3t3/zN7kv1j5GO8KBI+phHzhGDAS33HJL/TBweCQi6Io8vKLvooVDGVHlu/kVo1OnetIxDkMIolJMpa2Nx8vFkT/0BuKLLzq/rD3z1DJ6dKz4a25+ZWQT3wQIgTmF+rSxCQY6HYT4jGJV5xOJzP+C89eVayN1WHnSiTmuGvSxLQmEuGcb7CkJ0WCz99CRw+XlZ58pB3ftLPMXLQzp9uT3ODMrPVKFBMnOsoECFfdUGpfbX99WRg/Vv9fJnkjUpxXzF0KoRtEXcT6daM9nOhqcN1gp3L+n9B4dTWRXXn5lGpFPZQKWASQAqE0cs7UApyCU2L/73e/m6U/qlN35jIboRgQJNKkcr5qsR6foNfLWeLEgxLw0Et+De/aVPTv3lJPDAGVa9tVQDbCoanI0C1sD+7MegSd/or95y2vlxXj2Q7KNL20qL298JZHyKoSAgSjq8Oy+lUiynHqqP2datWhxOaF/oIwc2F/GRg+X//SJj6fOpX50TSKMVSZG7CIq5L995umyeOlwZmYi7dCiJeXlVzaVyYCJax+n0g6Cc1Jxz6PARBTpdKZ769/97u+LmTdcdml4TH+nt1ywPgz3rPplSxBjI83wzCV2IEmIxCTP8tvTz1xbTwSH+KWRrv4OtIwP99RHEmDkfW/N1BDTGRwNt5oXc0BPXxmNhOHSqViRRYb1WBjux//i4+XjH/+P5VOf+lSKVUU0IJaRDjm9vvXVctWbrigH9u2P6eDxMnakLjnM1A5F+bhkVrfP0g1ps0opBaYESqmouBOJaCwDQgKomgjL7Y325YORcc/vLz+++8fJKUAKL8ERUZpTxBb7aNocUhBx7cO3vjyOd1lWZPQMSSDSeMEsjTQqqYexBuakLNzQGjQC0KmRj15y6cVl0QLnAC7MbziQ8Q6AxBLAICMlz3aaVKEetyTmPbWxK/0a4mME1N2qaiNhrAtNQFEPRiAzJV92xtry5quuKGecenouoNspXMAggcBnecarQCR22B1wL5fRzyTpWc7iGRNgkICr2mwmN/OsSVnzwbHxciDSv6kAtHdriDiCmjNjbXfIIMBcJTsQuWe0uOLWEnCFFG1VkCJEkDa1uKpwVw8K1cyLjn7Y2enrL/Mj1B8NCR0KwAdiAb3h/A2ZecmucAxo44juESArE7zYBs65qznJWqYRapLjRcYpNu8UxGAQMZ3pWDzNhME603owZt/9EeAWxeDFMQhHIqgsm60A2gAgCnE4pAoLK0HOOzYjn+EApg+hPO0g7aLOwklMT813MdeZNmF1YoKLCbm3r1vGImGeGos8IvVfjUpSxPhIwSBA2QeAUgExhSpIjyp5SH4QiLFcvRkkIhHnWWnSTSL75y0q/T3zy3QnlgATR8o+a5SQ0Kb77y//dvcdZXes1u6972flJ/f+NIEblDoNJAzbPAQ4NXFls7J3as7OwaADupEdZz/tHu0i+PX0dNSEN7b/QOmGVIYioC0WP4Kb8XC5E4OgM5YNJ8e49eW7EaG4Sg8Aljh7Z7vbH9IhKfc8zrg2uZFAqiHuFRIiPXbS6RseLIc6E2XEV4Ylw2Xo7DNsgJaBiJAHtm5OBOzBxMUIDUaENiHcPVvhMfIUgQ5ihVr01waOe9d2j6CRSD9SItOHRm0blYFIC01S2yfHyoGwk5iPy67dW1O87IP+xQ4AZpPdJIBnyD30s7PUUgD9qc03wPyTiAHb1bPt71jHhGqCqKnZ4yGTsb7tm+d3mp2yf/uesvnl1yO4dMuiiQhyr+xLj3DAGnctTLvyDEGKVFypQ67iCjACESygsQ1jSJQrm69IxdhuPGOue6Qbq/2oPQO9ZfHw0jK8clWZCkMKsynDQeSOAAYAcftACCnv8eyXa3IStkICTuQgAOEMFwJZnffyXBJk8IgBM7coZr2o57995nMz561bW4ZCx2O988vhydGypBMLn5DQoajdmZpR4cgfBKVPHDeXZCs416409yQZ1XMLhqQp6N1zz0+SAbtJN930tshvVpXOvsnxyPX6ypHQ1UQY7JL+heVILKqOzPSUgVCPgjPUQwYpQiBozxBCTn3NK7TzBv1IANEIaoTqo7IbUu4MdH0OmQrfjvVoTMFHYmkQC8QwpoFydOpIdlTD+RKIwe2qIKZNaBB4hhByRDlj1uymzbb6xlMegrIna7WYi3AvUKyTQv84am4IOOQQuuqLe/dNCpDpTwrsoiXWpgh9EFcX3JYT4UERyxmr/ukEOmkAzFUjxI0LnGl39e74+/ZObZOXdq4saQInFDsHlxTBxKS+edovjBaRuWOkE6ngMDsEUJwoBmoDhMHpoy8kror3pKGPfJbHIKb1aRL23GxKGulMAVxK5iMtg0IdCelsJtXOHXXmdirqVXEEUSqViTff//73y5e+9KX80smdSQLxVIkI/cSaNg6R8OvT86nbPjmzZPFw/hDMhOWntU2/GzZckHmG0A2wQoIAIFbEJRQSRbhpAGB9SNSfl5FCaGsMy3/lMPfe+5PcFHaUmU11IDDNAyQTsyfaOPaMExyRCmlpJ3ZEC+H6yFNJy24S7loiRQK2JkjGWMVKUBZnbjr/gnU5HWjLtW+bqHTGLSCQm1sgc0WwdgS7UiXkLYQjUAUDPP31IS39qZ3X6JN/2C/mM5JjV1knYr0xP5aLCJBTGEwVQ/5oUtxfetmGUEMEs5gGly9ZWG64+qpycO+eiDf1VDcVkBpgTQWeIVERKX5UIz32pQweRmtbw98K7pg3+DQJsAfcUAM7IWa/LLKhK91zAtMHSK4JmAIBqWLE4h0C94hscae1GYOQ6jUtkZ7928/0CaHCog0iflx59/xzL8VUXTJFOHhopGzfsbNMRIrlCxSRA05FAJtH2A6JklQjwDrXPaL0d3VQF0HizNBgSB8RKEKplRkC6NO6FKcHDtjEB7CUAyOj5ecPPhSc1CUFoGzCGPf6U1Hbo0UEArxTXLWBVYmocYoW8kt40y8uWvAxwFKRi/oKuWTpstyOgnRlpH/6YoIxNlshaldqJRkwLCOqCmoQbLjcy1utMGfbHaJ1Hmhs7m8qAsxFUesdUaYL0mUMUiCziFZIhRpbX1k9Io1p0qiSqephg9pTgmF/xndrY91npaIrr7wqd5DHIpfUsc6OYfWzfwpIwYFVICaasVpG+PIlPmDEJxWJEpjUYBYmFdJFRCOGM+SfqXrLDdd9nk2cufasEOuC4Mzfs5oo8yN9RCnZNSIgaBySjI3ApmvvZPPWv+1AdrWHmiT7A0zuBUy/ZnvooQczsC1bdkJE1uWl95prrvn8lVe+KXU7NSWPlIGFn0e60Y0FV5hYJrvOfcRtXLulr9vH8uq7lFj9zdXQ0MLwGL9OWxEESh2kFtxWciVBGkgX/9GP7i4bN74cUhkrl156SX7WD8Z8ryUm9mBXh6HikdjbD3SqjpuhETd7oCJ9jVWNqa7KjmYTnhjTvNIYahS72JgAp5+f8vaGy36+bdC1pFgBAHKcNWIU7YAB7IpbV+0qVemP4AqDTdW2vXv3Za66evUpGXOuvvrN5Ve/ejQjegcRTkw1o1JxChF12YH2adUvQ+oZIolQvZKG/ghxbcSrjSgnhz2zN/1MkJgmDbOu2dj5gfx5HOpbVG3ia4NbTEEclwS8GaE+xrp3bVW7/q7N9TGCWfeNUUvZDJ6YEKYhA6CJHgDupb0RpB+g3rc+AADakKuIUvQ104qa1UVnzxKFWTQYzjCJPwjMNECFVEcFYtM7QK6IgsD71gdg/QBsTCCk3XvHDqjXeLC8J3HRGAPtnfuOE/310zpXrVbPAxxI2LhxU+4UAthEDZBy7Nm6xMK6ziHNgzzbpPnKV/532oD+pKpQi2dq0Uf/cF8bdH6FWo0VheKIjdpTTz05d4p4E0ngUh/S04802g9MRWefYM2m9uQYo1+83vTOt+cnFDB9IABHO6kMxFwGnraO80Ju6BKV3Ben0j7TucpI9WHQkHvOPCbU4BmHjN61iRoCxmiiVD3zFu/AJlnPGPZL6C4EjuT44vD979+ZhoN6QHFHXYAbJE9RWqg3Vn/PtsjZgYI4VTkydjT/IJP9OG3VdbsZ3qmKfYLT89GPfmTGH2PzL0t+8Yv/M1/6cNgMWAUAIBZurvBsMIDNOH169Y5RV2aq6w7Mn1f27t5TPv3pT+evGp2RdcbNuE1hO/Z3hf08yOLLVBM1sQtCdCgXoQ6pIdVBBnmzD+pwhdx7Ex2xC1RNtQopYIzUpAgWYPC2rN+4Tj1IUv8awtKli9OlcGOe0OYgpZ80LVkyHJSvDGLeWN7whstihj0npvm1yY19NsRUJmoe0hhjE9QsUbJY84zJZlMYc997wQXrP28q9gN1OvbXiFEubfTb7tWr1+RgxRKBPRis4tzB/JajSqa0Q8BASWJ42XAZXDCYGzWIlaCbqd0jAIFK/ioNASoVUAVkOCONFlEN5Pc8AaE+HrknDap1RQBpkKicVX8SU41v7q+6JzFSP3AgssH/8LF/P+N3/wAILnmMJzLsqp5wzYE6lXuOSyKztMiwnO3VhQFFsKu+EENignRdteqkZE5wxED7jrxjx55qDo899mj+A6EiKiohSSJiSUVa5gMSEvAakhRlRGLECFytDXLFcyPMWqiOOxb6IRbc2Mrhw7MM3XHHHTMQ6twQ1SSnTvEiZuWsbtao+sBJig358aURBp7AhRFE6wtpe6fNh0je2XPnnXfO6KAC0LhR2j1i3D/w4M+TI79aJGYEa/9dSRw/HhP6tj6etSv+QqWfzORuAIpbJwAaQQhHQAPK+GTqvjq4/12EDfjxVxURTZLH94e3fXbjKHM/9KEeHY7v3K4qV3SS0yE5omyENAStNqaU9r7B8kyd1MPo/dIEoaeeemr5v1a5vfca3Tf0AAAAAElFTkSuQmCC;" parent="LvfuuKePgPZG7jUSQBum-39" vertex="1">
          <mxGeometry x="48.810990052108004" y="1" width="44.16" height="300" as="geometry" />
        </mxCell>
        <mxCell id="LvfuuKePgPZG7jUSQBum-38" value="" style="shape=image;verticalLabelPosition=bottom;labelBackgroundColor=default;verticalAlign=top;aspect=fixed;imageAspect=0;image=data:image/png,iVBORw0KGgoAAAANSUhEUgAAACIAAADnCAYAAAB7YoTFAAAAAXNSR0IArs4c6QAAAARnQU1BAACxjwv8YQUAAAAJcEhZcwAADsMAAA7DAcdvqGQAADeNSURBVHhebd15kJ5HeSDwnm++mZE0Gh0jy7JkS77kS7It29jYxvjEAQzGGAoIgUqWkPyxSS2wWaoWL2GBStX+s7VJiqI2VSQkG9hNiiOAwWBsDBjjA2yML/BtWZZsWfc9I2nufX5PT4+01Ha5/b5vv93P/Tz9dL/9jXq++MUvzHQ6ndLb25u1p6entDIzM1OmpnqK9/Pm9Zdut5vv1YmJqdle02V6ejr7trGTk5NlfHw8+kzEmE62gz02Npbv3Bszb968hKNvzxWXXzZz8sknF3VwaMFcJ4N02Lf3QFm1alUOGhwcLP39/aWnM1MGBgbKggULyuTEdNm7d28Ssnv37hyvIHrfvn1BRG8wUsq8+f1l586d0WdXGR4eLjt27CxnnHFGefbZZ8vy5ctLzw3XXz2zdOnSMjQ0VDrdCgTQo0ePZu3rDoRUpsqvf/3rcuKJJ5abb765DC0azH7ag9fk/LXXXit33nlnIu/r6ytvfvOby/z584OZyeg5XZadsDTh7du3NxEfOjRSlixZUl5++eVktHfdunM/v2bNmuRuT3B28MBImZoMiRwdL4cPjwU3PTmAdBYvXpxiPnp0LCS1v+zetSf6HC779+8vr7zyShKDW4ydeuqpZc+ePWV09HD0PxKEDKfUDx06lPBOO+30ZICk9e329/fFzZpQxXh5ZcvmpHpqaqYcOXIkOOnkMw4uuuiiHPj444+niBFW1dBJxHv27CvnnHNeufHGG8uiRYvKc889V5544imCSzuh1pUrV5bt27clvIULh8rBgwfLihUrksAOgKhiF6TRDO3QodG8B5S+IXPPdl544YXy9NNPp37VF198MdXwjne8I7ljPyREWuyH7ZAklSP+pJNOyivCMOo+zKgEkuFEomPQkzqGXOExuEGU9pdfpoLXUwLbt+9M8b/++uv5joohhJyaIMEUGIycjUFK2lSoL3VjsrNgwWA29PfPS4MFUOe+vurKuEMIIg8eHCkjIyMJWGGso6Ojaf3r169PBNRHddrBwRBpGd8Y3LVrVxK5devWtE3vem5+500zF198cb548aWXyCC5Z1QA9PTMpE4RRAKI8+7AgQMBeCAMb1FKZdmyZSlVYzdvrrbmXn90X/XmK9Me9u/fl6oZHFyY0qLalOSFF144A8CVV16ZHMzZSxgSDgAkAVQrRIwLfSECjBQUbfr29tagR2LTUTFEElu3vpqIzzprbdrY1VdfXW7/7vdToj1Bzczq1avL+9///uQccIRQASSAQIwA7QhqhOnr2lTgXh9xg1GTXDfeeW/8a69tKT/96U/L+eevT4Jo4t++dXt5wxveUDqAsQ2AAGmcAOJK7KxfaQSQAESqMY0QY1V92Mj27dvTw8DQr4b0iehTbQxxc7AN0gFSFTLAGB5gBmrXT7v3kFJbMz6lSdJ77a6ed4XrjgeMyYAxPdMTgasv5BWEBvyeXn0HsnZwU6msHqJQBzUhkJtRDcBKI+aYPfQmkYg9/v3ChQvTKC+88KK8VsPnnf05pvav0sdEjKkcKmyicQ8QYvg4grTh0LVVgBXtimf3KsQC1mmnnRaqX5wEkNR04NcP02ojvEMaKNRRQ/MIz4hpRDbEOSiqPgA1olpxjxB9G3KMdDpVna0dw2CTRkpEIxdtiHgL21DcMyaVYRrQRNmkgKiGvMFQPTdjJh04SBwxnutcVl0+x/3xH/+7zEeoAVGQKPCgGCKDSApgSEgKYP09k2qKfZa4Ng7Rx7/nidu2bSuPPPJo+e1vf5upwsknr0jcHdFOVBTzASZu7sw2XBFgjoBcH8YLkfsmdu/0a1cFp+5xry/CwPS8c+f2JI57M+QkBBcoJTaDzSsDAzUS4kZbU4uwrl+TDEIgcE+NJOe92mbeI0dGc25R9HFfvXM6CByaU2HPddddM4Pz66+/vlx77bUxeV0wpzdI2Mvf/d3f5Tzx7W9/OyMiCX34wx9OohGBc8wA+PWvf708//zzSQy4EOL4iiuuiIh6fvnhD38Y1wvLN77xjfLBD36wPPbYo4mvQy24VeWXqPWCRFxlXzgxH910003l0ksvLe9+97szvTNWtgUhnX/uc58rr776atqP0mZZTDVXJTVz0fz5A6HW/lQNyXbpDCcZ3UICigFEhjh2o/zyl7/M6p2Q/aMf/SiNkTRIRu7pmfowYCxmTHozAas3YC8IXEFVpKLjkXSHOkJaxmM2Iitrr/6PIMCaWlAKsWfJD7U888wzkQI+kSmjhLplauxBX6UxgiCIGsFjY0dCMn1zrqvQQmb6DRGkuDe4uWE05z3O9GGAOFWa+HEjEZI28ATMsBd9wQKXt+hP+mynGfi0MBvFc4eYqkbqhKXMERMMZqfZgQht3tRiiHcQIxARDZH3rn1xHQmDdzXp9USEtWyZmAqGEnYJBmK1ABhOiA8wBDTVKJ5bW7s/vraxrhgwTvXOc2uHRwFHfwzph/CcAoiuibC9bIMU9622Algr+jfVteJe9c6CCzHuW/tAf+Sw02ESUeFOBhiOjurvlumZOnk14hoxx983AjyTgoJjhYS5bWOS6tpYMJvE0mu4XkvtlQZYaYDb4MbR/69PE//v2pB2BVGQSw22bNmSgVKSbVoQjzomvLPPPjvdqwFriNozAMdL5fjaEJGCcbiG1DuFxLUJiqSzdu3ZsQp8IZcmTz9do3Qk8DVVNCk1AJ4bkED1/yCda5+9tmIMyYiyCFMRppI4JhllWFQSgziMNefQp4MALw06HpkObASS42u2R23PChsQ5teuXZuh37wkZoBLRcdLGxHUAYZABka6PCCCTevYgCueDUC9ds/6NWK0e27BDRGIMbmdd955SQhbsPxkAi2oHXOM6SBiMtoGS5d4+LEOBgjV2lAZfJcjo4czYJn0Lr/88iSmiRRxLciBccIJJ6RkITKZqVaKl1xySa7mIG0BDwwF3tTGX376tpnls4mPeacBh1C63xtrEINbvNEOEMTu9ffcCNPWkNX3UxnulZGRupfyL//yL+k5nORd73pXem3mrIAcjwhAwFQ2BGizoSYtYm7rHvfaXfVRwWzS4Qwt6BnrXl+45/B+7rOfmVkUHbnR0aPjaUwAAWIxNDN1LJY0LhVAGyJ5RxvTrgoENmmohcRt3JnFJUWu1rzvfOc709C7gKMK59u2bU9/1wZRzERl/Ogxt8YNTvVVIbQJIy1oktPPVT/XlStXpNH++Z//edjZkmxTqatJJOcawBUDVYNUHTy7GgCBe2JV3au4Rijgin7NKxocHtPSRxJrY41TlVxyAoIj0mBMsms5hkxMlWsQvz5zA2cRI7IV7yBo71zZgrHEjzBSVPXFEMJSmrk4Ds4RNDy8JPz/nHLWWWelRa8797xy7rnn5r7YBRdcMCsZsaQPmgBybDsUQDBIAwGes85YF42FYVfbQ6grIsYmrBy0hS01qmVRkL/pTW8KvZ6cFDd9Q0AyX/va1yI9fDyf1SYdoZ006VpVMIfwRYsX5k4AWK14l0R1B47haciIx17GD37wg0yEUax4b+Ddd9+dG7oClL4AQSoGiKJnnnlmOeWUU9IeEMZl3/a2t4VX3FTOOfesIIr71m2PCruT0gOfypIQVbGuER2/9a1vlQcffDAHqAgRXV0NWrDAoroGOvo25pxzzkliTPMQbNy4Maf34WG7CfY/KlOTkZoa557EwE91At78HhJrFr796KOPlm9+85thaDuic13/igWAqDjUDhiiGhzXNuE1jlXt+pGi9yQKDptRctLTaJBZ0v26devKBz7wgbxvq7uAkQCbHUDETprUFLCoTT/wbr/99pCu8c+VsaPVpScnTXQ1ZMDHRtJrDMIpIC1Uq0RMMpKWe+65J+cGKzODESK8yyNwimCEaQcHYdpMoi+99HLuaPM2eyTGq9PTdQu14U+HRwCxNUPCaaP4jW98Y3nve9+bxidUEz8kZmPjEACYNu8Q4tk7sWPlST7BrJ7bg6ViV3jmL6hbZZ7DRgSl+gGH2FAOqIJbAH/zm98k9WNx3xd2EZNyGY9V24JYv05PTpX+bgSxyOYQAaiKcIQtGV4WsMfKxOSReM/lQ4KlxqGYEJJp4zKy4oA0judMERGt7i2wAX7ppZcy4tIpzqhHYbDUYpx4YzKTgyDIWhhDYDeJkUZra/EobcQDYAxM8YLXfOUrX0nX/NjHPlZsCiPWFAAIxEQvYC0cWpAfk6zwp6YmUv8LF0oPe3K/PY3xONVjFgx44QQrbYSeWbIX5pW77rqrPPTQQ7kN8Za3vCU7yrbMmFREQoLec889E2p7sjz11BPlkUd+WZ57/pnIF2KFPxhG2x9IJqsHQdoqJhsRpGMXwlQRBHZn40J/2bFjR67yGekf/uEfVmsOLohUP/cG+5x2+PBIAtNmLOCHRkfKL37xi+QSzAZb+NfmWTWOVLzTDn7AqXOJF1yUl/zBH/xBhun2jmFRCe4qh5OpMpJiO8YKUsI9pLOA52yiVW0kol0BGxPGdjRSjQ4+l9mohwxwVxQb0O3WnMQgzwy1jiNmMWi8bNn8WkS9iJ4DYR+dvvCqhYlQv98lrDJUY1DOXZ/97Gfz6wSR4VLKiEpiw3ETn23JnTu2pTufddaZx+m6egH7eW32Q1DjXC2lGwSMlSVLF+Xie+fOveX7d9xZnnjysWD6gvKOd9ycwbP32muv/vwJJyyLznVDBqdc9OhRu4J7wv0OJjGA+iC4/MQVicg6sDfiQl9fSCjiSF//QKjGntrSUNeSSCuGg7HlMfEtifXOKUF0KDhmvpGRQ5GtPRuhYWcsxFYFU2dE3zCDpoJ2lYNCzP9rxlY/DrrfvXtn2bdvTy6eeVe3tz9jjUQY8cZYFzF6bivE25aQJoo7GKAmksYYyfMYwbTbiPB9144gcdMliXjXF1ICBBJfMxsyCdQt77o1M3JqqWqo2T5k6UXh6mbpsbGJ8nu/93tzn2zBJ30MIyTxGwCh4gVD1AaYQlUol9RYIoon8o6nf/tsbmc++ugjEVeeihn26fLkk49nbCFFjEghSIYEGnK4EN0MWJsN5kwDWgepogSH5wjRPnFdddVVyUlLeCQ2Sm+35p3afQo5/fTTk0iTG4PFJYlAygkg1eZdcwI4eUxG3nSd6KDRItpH5Le//e0pSsvBd9x0c7nllvckQQYfPGgbvOa4JywfztgBMEm6CoItwOmPAKsC8N2TsHcKRiRX0VyNFRBXAxiXQa2z9e/E5EQZc9ggBgwOxRo5vGUmQnk3wjjkCqTEX2NON3MVoQBik6UiBtFA66O/MktkTZxdzZzf+c538nO6Zx1ips7BBrqyExMa4/a+ja0ecGzZSUXyF0uTFqdEZ4RjkprBIw3pQU56Dam1i8Hf+973yv33359cRrhIrvKzqV3AiJxTYyGd6eBilptWEWBGhgBh/QPdculll0QwszFTtz9qEhZMdcNAe6QD8t2cmWs2biCqnXaQIj755JOZzXNpYuai3qtNlTjzjAgcupLQnItGnBF/Fg0tmesHD0KnpqULx0J8B7d0J1Y0I+Oef/Inf5IDZPIPPnh/AB+L1K6KVc6BGNW0nx7UV/MNHCNE7FBfeP6lOZVpbyUl2Dkmzdze5GIodgVMgeR973tfuf76a8svfvlg5B1PpTsiyBgEVCA1t2gcV4nUrxQirKgMZouoTZJKI5AAOjhoURGgJi4DXdmN3KT1ASwjZt+8OTEb5z2gTVK4B5ukTQf6tCCJMIQrtOFdSiQpmn2JkEaxDlT38MMPB8D6lRK3CxYsTCK9Z82QsQVXMKSICriIM3NLE/QH23v4vCNBJW0ENzrhRAdItJnc/vmf/7lsfW1b7gpAor/zRc4OTUYGPzUZOcq8wTRIBSLSoEK2tHDhomDgWEgHu8JHWJVgpg5E0yTSYgLOH3jggfJP//RPSYDvd9y6L5KjgVh6IBo3kiXuKmu3ELfWbSpVJqdqkAO32ZDa3lOzZx6ZlulwUzW4/piktsWM+m/lsceeiJTxw+HOb83gZCutMxD2ECF5QURX21CI6O/GGjcIh/S009eUy6+4tJy37pyy/vzzkngB0AwMfpV6uG7gE0tkd1Mz0oHIhxGiE6NzUkpkDaGkga5de0ZSj6ukPqiZHK/Z2saNL+as+/wLz6YNPffMs2Vp5K82e9esWZ0ToA0eV3bYbI/EWyUlWRuCus23q5WPl2uuuaasX39eEoebKq1YwcX7NLSQ6i03v7MsCt2nGkTJefUrtwkRoYuHYgaet6CMHKwbxQ0H5KTC/rS1a5oGQ/Gg0znnnJX5aNVhTZAQ5GqQdv2F94mJ8TIWuvWBeSTSyal4ngwVcdWWpYklxhnP7hABD+mr7sFM2xT9qn3UgMb3W3p48ND+nKgOHtwfwGo/ALVt2rRp7kvnI488kvfWNPfdd19OD3afwCBFyFxbAQcR2uBFVFcn1YsGlJ+PjB7MAaMj9dPoju2vB5FHykAM2h1J9eih0RQ7la1afUqqaX9IY8+evTH9r0i3lQZuipm8SRPSJh1tTU0pKTcMkXpaUtOMc2wsZkqmEuF8cGgw+wTFZfvOXeVArOq2vL6tbN2+I9LE53PT10HI0SOHy0sbN8XSYls5NHI44SCgSUap3lO/upujxJS0kTo1V0OSayp8G1ExLN5VPfbPixAd9zX21BAPmOdJLhlGbWpXuLbPH5dddtlcPtIIaPeEgLmhYDJ3no+9GJ8LSKbwTk/dnu6JSL4g1i19wdDQ/AXltHDPM087NesZMVMPhYqMs6wgTSqpBhmxoxw7QAVHXoPQqZCQLA9s+7C5z2qOyBw0klyJMOKEctQz2IG+/rLxxRcyzpCez/LTIYFDh31YrvmqMcSvIl6/1hdTCEAcCbhv5kAIaOgaSLQmLe4rY0d5G+QaDeWee+7OvdY2SRqzjOFN1HSAKknD1TPpiC3TM+PlnLPPS2QYRoTqvqq+5ru5CEcM0VqZZdyPQQpqwygSAcSNQDnr2ORYEFGPZNA1GIqxYLlCqJ0TgGEsRpq0vTNev/xwpAAmAFm5ybqbqLOEznOxHZW4vQMYEM8Aa2tjvAPcFedPPfVUMqVNH2pBqPGNwDz+pXhhkWQW/fnPf57nQ6pV1+gKQXegbm/tPziS+6YOZkOEGF6lPzgAW++YjSFFqHZ9IMa8a+uLuLmTeRA5gmOjxgLL0uIf//Ef88RlhuAYhKOe6A+INseTqdK9K0JU/bivTRyrRbXZG8LYI2K0IcJ9rn2benAHYTvNSTrfvv07uT/G8AAwGAE7I6gdHDHRHUyJGHu8vSTRUeUzjRHt+iESAQjTJyVpcnMDSD3eUw1UOnjNNTeUt934lvJ8uK3wLz5IDRnuRETd5eHyAFqQmVd4iqslqQzNVPHwL39Vjo5FkOwJE+iZPe4jt5klrBMrgMnpUBOKENFE5l6pW1LH9uWrbrvJjTHE/YlPfCJPU9misFWOe+tnxS6AVNNWhv04UjEOHMU9ogiBeYT71kUPkQlqSu1cg9OOnTtzc98AanHtduseGgBcEyJjEZ2H24Jb7yRJ2tvGYEbruGIWbLUbk5kcZ+6bHgotwN3noKDWTs/Xv/7N/ALl2NfgvPllcP68siqyrk68/9Z3bs/tcSkBtfh4YCGvgCcA7tt3IPdlqRSDTeJMwPOcsUKqgeEQezXGI+Wuu+4s//qv/ydFL3l2ig73Bqr203BEJfZT7Ks4CQ4RIryDgHoQimHtjRDP8Jo8Dx8+WkO8Khoysm3btpZ77703pfJnf/ZnZfmKk0pfb13td23ehZ1AOhrrHDOxH3E0KWJGUISMrSC8fmw4ln8gYDoyPM9maqaRAc5LasClbe0f//jHua9hIQ5Yt/eYlScHYR/UIEs7cngsXRcjxkuUEKMwfHBJzDEO/UjbPiycDW9YUzkyGmkI4JB4ISZQhYBWfzFSk2cFsqHBenwUwYzVVCA9ZAsisa0M7xEFHk+hFsGRdEhdoaKmGpKZF4l217cXNiFBuuCCDbFYWhvA6j7Z5FQEp5jciO5o5LbzhhaXdRsuDomdlAQCbLuTdCAXXR977LFEUqXsIOWRtJ316zYE0pjkCqmMl95OmETkwUJTb2RpPZ/5y/8ysz7crIq0k+IFKKWUyXw1PgBxSy36+OWIQMbt5THN4BHl2qK00sICOPZj77jjjshTnssVor06OVD0ra4LOYOEDGdCOvHLnjzT7+jh4HD8SBlcOL/s2bsjOK6TXbX+ulePSJJCnLkGEaRFtd5jVoQGWyE5JeOISleKAe4Bd9+urQ8VNsNevGQoAbZAR4XNCPWfQxLMVq+scN0jnOQq/PAgQA3SCKFBnhuHnl0boQzaYC5Mavqq+iHKOO/BVRCnjap8uJYYtUmwXqvKOsTH9w1O94rSJKI0InAhx3BlBynq6Z4E3FQLOBgmRRUB1JduGu/AtDK0t2rBJnvXhzn0vOfWW2aEcHFjxYqVOVc0ItLGY8pXADSBIUycEaIRw+CctCIBq70vf/nLOQNbqIvUkCH2hhtuyAW5j5UxLD9SIcAvSjDahfjVyFVxYMake4TgwPTsc6p7hxPEBBxv3vxqBKzDicBcYyygvgWSjDlLtf5dc+qq/EUatSGMRN2zi8HBmLsCBsIjDe0kILlItzuWO4pSPEbpu514Nq+/L7m950d3pTfc+YMfVKsPlfSHbZ24/KRc/dH3unXnxnJ1fx4lnpmaTXoilNv4N68IXtu27ch7zFET2+m98MLzP29/7PzzL0iCJLqI8YHgtFhAnXLy6kC+zL5v+P7TEZB7ypKlS0IdZ+Z7v2hbuWplOWH5inDXWAtPVWbWnnlW7tH60tkbatyw4aJMB0icXZil+/q6GUNSA83VUE7XtjRxL+gIzTo5PL1s2dLgcDKIWFwuWL+unIHIU/zC4IRE4P1JJ7EdQXEoDHtJqgtc8Jt3Ug11kLjC0M1L6b6MziASkdwghi189atfLZs2vpyufTgW2FxxfmTy6fehhv4Qaw1gdU8dEmdF0qPCqNu3f8VY77W3UNGu5qHc3sQ1IhoAHNq6YtG2we15INTANnnhiDsbj9N2BaMS1T8XL8B29U48kXApze3TjrzAPWK8UKnLSx+PPvih388V4EMP/zIBzoSxeI+Y8VAVwiFpAI0XxsfHZ5ers6VJ3ntr6BaFm1Q6GgQ1xLSQrENDYEPu3e+5JTmxpjGD9oUHjMYcNDlRV3oQy7Lc+5JpLMbecMllubNoLMLBc+XGpIUIBDLetBHGQtQ4apJpHL6+fVsaruCWyVAA2LfPWfhd5bXXtyZ3gpNYgJC2/oGcq7/1rW9ND2xwEdCYJQnME0KnL+KIxtxi7NYD+naErUtM1bff/u0yHHHFhgsgNuz2791Vxo+OljWrTyq9XSv/V8vW17aku5ouMOfc+3i4brPBpjLxCgFwZol007uOJKh1rrYS030EKzvPclcGe/1112UfW96Q7N9/sPREynjZZZenyxO/7Yx2kI6owUC401vSCCYAvppeEmpSm0l06ExHiKI9dwNv/+63k7M/+qM/imXn+vwSMTle04HRCO179+zLb//jY5Nl7979oY6Rsmf3vlBNVTNCqBohwjxEjRjcg62kkc4SE6iJrFq1HPRXv/pVpnbyVkkNhDoiGAJ2s3PP7jxJ9aUvfbk8/tiToZrtGTFVHsZW9H3yyd/kvViTTISUEIgwz4iiojRWgNkGC2Zg1153dS4dDUjbCSLoFSHsZ9mJ9Uc7fhB02umnh4u/oWy48OJUjQnUyTznDMwvEJGQX5w0VWCYZKotVjshuY69cDdshL59UJ4fHRWAaizw28667ypQmdId/7v11veWW265tXz0ox8t73//76eNNHHzMAt5sScnyCgIwHiGgllptEDYu379us+PjIzGau2SUEHEhJgRt4XL7tm9N2bJneGmO8qWza9ELuI3mbvT0C68cENZtHhJENkfM7PvfFXf5iH7Kcp4ZP1r1pwWbUNhZ+tiHloZhA1mwv3KK5uSQT8DXxE5ytjRMTvPvaHDJSkRGfqLLz2XVJcZx8xtifuxOiM8VA4c3FcG5vXlkYtuGHDuJvUI3XUJSX2N+6GFizPIXX7FZeWVTTUJgpyqSAI+eIzTHgssa10r+/oVoq87L6tsfWr6sCUW9889joWxAB89eCiN+ulnflN+8/RT5dePP1Z+9etHyn33/6w89NAD5dDB0URko6+nM1EefvihcmjEEuPY5h0G0kDtxUS66Tmz+KZXtoIjBlWLxEYGHwNiqcg9TXSC29VvvrZce+31GTl52Hve855MN9NFI2vBbTtbYt5hF7wP9yQHFztR9M0lpxu1Gmedqj3rnISGUPxGtyckFhlM2pNclXcxUMmNs6zDw/UAVHIbXgM5rj23eQxMBKnwNfxdgSZn1ZmeBF53AutSwgfi6bCVqYnJiBEvRcx4NBLnleXJp34bg0OKEV1Xn+zYzrFfPPs1QUPKC+1c2zFoqSF8kA8ODuXVtx0S6rnttv88Iytn4WZF8YOabCWguNPty69SOLDsBIhrnnLKmphLJsrh8DjqwjW1Er08lCQVBFbjrFsSvmSYRKmNFG+++R2ziVEsH+WYOgFkFpUimk9Qu2fX7kSOKCu1TZs2Z9ogtowfPZJE8QReAaHqY5Q/gMBrOABpEz/JIbrNNY1Yy4y5VLHVBkxHro0AhCByV8SR4UikATUneUdSDQbAbWxTDzvR7ll7/JdX47QhMs+6sg+NihfNWI8nzFwRfTMK+qxm6raJcyRSAUTpQzWukNK9YnxFXhf6rlTV2vSnyjRq+kcAQ/JCXFGqfVjXhkRGD5X+3lh/RHgfj6XH6IHIRcKm+rpm7JqTkorxmEKA4tl9GmkQnX9WpCdUFYEJ/HDcZISnBQ31lx0WQKtifSI1RCUPcID+nrvvys4nrVie2Rh7Ek9sADNsiyMnrywxEWGbigRxznbsKq5Zc0q55rprU1Lam6qUJpkuA6wirz/eYDgKg+wN6182/IE8K2+LanPMOVtf3VJWrFwVKcKyMNyNmSbKzAC2Cfymq65ICdmQkRY88MBDSSjbMmPDRUrsDgGyQZ/vwnSqiyk4UYiZC9q6OmHZCXn6anBwQVkZ3BLj5k0vR67xWEyGm8i/LAmi50fsWX7isohDw9HkY5R1TA1kJMEb2REiSETsIHlSxHTuKioQNIIMSGIitD/z7DPlH/7hH1JaDFV8sYoLa0ri2JSTvfk+XNlC3gxbk6QtyTV3RQyYDBMxqme4SCe/TlgYe0ClooP6w7t+WO743g9y9WevC/Vtnlgw4HjwdO5EW90hSpCyyyxLs3MgjVSaXSAK95hukkEYyXTanKCDASgX0PxOwinL973vA+WG62+MzjL8egwM94CxBTpfEPeAyUWffPzJmJ03hmRej4X2jiSk9ccIHIyf1yDMOG35daKpApU+JH/jG19LAB/5yEfSiyBTAAxPzP1W4xDli4XaE0C1IcZG8OCCocx3TYymEEhJE4wmjerCs5/oBSoF0HYA0hEw0/rCANb+pJD3qbJYUvzwnp+UH9/7QHng4cfLPT+9v2zZurO8vmN3eTlsw5dw9jM9EzNqrJnGIrGSTNnwgbge6wmAce/8WbfX0jPaiEkcIR7JLyJ8uSIyVcEBjojX1TqmScrXLvEEktGRunGMc3CpgmtTtXEKW8SUZ5JAsNKlloaUN8jCFYR5l3lIsEAaCIDov/+Pv85zI71hN5IVjJj8brvttjzoBoG5SVuMLqeenhu6SSyYiGSL2tT0uhT3rH2g3C/hBS+R0/19P7+3/PTeH4fhPpdGjROAINJffNCufPKTnyyLFy3N97gmwaqOql44MAxGkzKpZX+dUenFgQP7MlK616H5vARpS+h/UcQDBPgFgU10s7PdRqpoxCAMAjBJVb7iPMl5565PWHU6OfZXOtwjOg/EaUBVIg0OvFCpgcFpq0TUPxezK9zSUtJHIRtzfrfrF0ZiiDkK1wgeXlq3tZq3kAy4cMEJbg10KcG6h6ZqVBpROpNMN4A0IgH80z/903IkZu3+mCiNwTnkTuJ84QtfSCIsV7XboTZ5NntAlDGNEIk22Bni2YhO7hX3ghWCXA2MpjS89iPTNq71wZBcBkNSTsQgTgxRwGiq0R8Rno3z0TGP9gCq4/LlKzIjlwYqbMOKX3nu2afLU48/EaqqX7D/11fDToI0RHtGgHnmZz/7WczCF1fGpifLE089mSqGwxdN52Ktp/2Jh8TtfEnYch5HRxVg4odDkjogxiLL2lgZiOj5+KO/Lq9v2zq3uXfddddFivDDuTSABK644o2JmPFq27Nvb6qpEVOlW1VNdXNtZs+mf4kPI/SC2BHR1ACo5Icx/s3f/nVOcIiR/BA/L/ElVOwAi4S0g6Vi1FV7ZbTO+CItpjOg0b/M2wt/H2TDhg3lkksuSv17jxDE+sJJ/xBYlP/93/99urt+uEQUL4GMBGyNLlhYD0mtPuXUhKHoTxqumQLE2DyZh1IG5NiG3EFA27FjW56cMCuThkH62bYQ2vfF5EYi7T0kqswsN3iCGDAtSSDCkDYVw7yHZPRJZ0Ghlyh0tYT0SyN5qa8NvkQopIIAfUwFwr2+55xzdq7ozDl2EfUhGcjlMdJHhGECDrUxD6ZnpWPSaRR7oQB46623Zo7pM7tPqd5V3Vf9OuHtrDOO7HP0+lwahcEqYFKjv8zDAbTr6+qdUiXkTEmsLomViL3ToYkYUocM2r48t7QubobYAFZgNWIuWFDXSPo0VUoZXXmRdrD1b32UxO/3uPbQLKoVnOtIb70B/IQThssVsbD2Z6IG5i8I+w6ktruOhiH3RVoQApqKMROBzM60/VW/LpDH2Cx+5ukXMlHygaAdtjNPOYfm7AgdwJdnjFCJukYtDqjKHLAvjM2ZI26Lcn28d/WNX5pAOioPYMyKj5DCATdnMxjTp+EBQ3Gv5F68B0bWOiAGUN/w/KiUzdic2bVrT6ijBj9W7zoxPpW/1TRnkJAc2PlnW1eewbRMQYjKrakFvsZQEuKBOhqFOtGnU5x2ja+7/vpy9TXXlMFw692Rf/gTL+MTU2Vk9EieTwSnrpfZTl9+0eB1fpXyV3/1V/kLN1IRFhCPGLgw0fCxtfx9jeIFg5Ps+EsHPnU50iMlVKjKeyKH2IFI0kkgs9V+x4c+9KHc+vQzGPuxgiPkJkGu6l7BPNzSDOlF7hgRkw42Zu2/OzMkBswnxjBPMSWEN8c5d2YvKjW2LB3RkiDi5qresw/rZW2IJRlMKezFeH3zZB4iPHghexeE6iSF8nrAEQDuC6ExixcvDcOsv/+W5+ojGufXiYmjZfuO18uevbtyRjZHGaeSjCtcJNw0kUtyOmMXIiTD4iFpM+Fm4d9JqFDub1NR3V/8xSdTrDhs2xmHDh0oPi77FRLgCDt8eDS9iN2csrqexiIBRBhvHBj69/zXz9w2sy4iqPwTd17okINCf9OTNZIqvuE0m2rXySnBqG4xMDwqVKiRTYBnH+TQyIHcndy792Ak4/flj1Y3XLS+3HjDW1KlqRp2AjBqUYcQOiUlyTECVH29Jy0G5ju/fiTo6p17HJvsmqRdjaVehOmrTyW4MpSJkZc60idvSZ1FFfl6g9smvtw9CqIFKtwb04wQ94D7laLUoKYH0znfrF69spx9ztqy7rzzK9KArRiHSHV2N6AGHlzgSHJjWeDqr7lZZpAM7rivuCCB2vLqKzntI96z07yyNVVGv3nzptz0szNQ3b5KXVUIoTGUi3AUNsm44r5R64o4VT9G237H55CceyerTJD+hiLxM26M5WQ2Ky2wGnKEIAo8tskzq4yi1Mae9HsUcsMXN75QnnjsyRzsq9aNN96QiKzotDXiA2cSasnJPRtj4lML6WC26r2KuDkb8b9GLS5Iw0AifeCh+8vURJ2HZG2OYvjY+La33RQI6oIcR1SLcL8j95cYwCMFFawmIbDZkXEIQoR3sxqoab1CGradfNcz1+hk+jcLO/nvnR+HeX/fffdnlacwTH9tgcjZmSIpZ1eIAQcOtdmHgjjzD6nFyiVWX/PCiGamy+jho2Hd55Wtm7eEqA8Uucq5555dLrrowgQMEBUhXpSVLp52xunlrEgXT1lzcjlp1YrSH7Bk5eJJfv8JriFEAHWQCGnYTcyaJIVqdBg5dLgMDM/Lv2n3t3/zN7kv1j5GO8KBI+phHzhGDAS33HJL/TBweCQi6Io8vKLvooVDGVHlu/kVo1OnetIxDkMIolJMpa2Nx8vFkT/0BuKLLzq/rD3z1DJ6dKz4a25+ZWQT3wQIgTmF+rSxCQY6HYT4jGJV5xOJzP+C89eVayN1WHnSiTmuGvSxLQmEuGcb7CkJ0WCz99CRw+XlZ58pB3ftLPMXLQzp9uT3ODMrPVKFBMnOsoECFfdUGpfbX99WRg/Vv9fJnkjUpxXzF0KoRtEXcT6daM9nOhqcN1gp3L+n9B4dTWRXXn5lGpFPZQKWASQAqE0cs7UApyCU2L/73e/m6U/qlN35jIboRgQJNKkcr5qsR6foNfLWeLEgxLw0Et+De/aVPTv3lJPDAGVa9tVQDbCoanI0C1sD+7MegSd/or95y2vlxXj2Q7KNL20qL298JZHyKoSAgSjq8Oy+lUiynHqqP2datWhxOaF/oIwc2F/GRg+X//SJj6fOpX50TSKMVSZG7CIq5L995umyeOlwZmYi7dCiJeXlVzaVyYCJax+n0g6Cc1Jxz6PARBTpdKZ769/97u+LmTdcdml4TH+nt1ywPgz3rPplSxBjI83wzCV2IEmIxCTP8tvTz1xbTwSH+KWRrv4OtIwP99RHEmDkfW/N1BDTGRwNt5oXc0BPXxmNhOHSqViRRYb1WBjux//i4+XjH/+P5VOf+lSKVUU0IJaRDjm9vvXVctWbrigH9u2P6eDxMnakLjnM1A5F+bhkVrfP0g1ps0opBaYESqmouBOJaCwDQgKomgjL7Y325YORcc/vLz+++8fJKUAKL8ERUZpTxBb7aNocUhBx7cO3vjyOd1lWZPQMSSDSeMEsjTQqqYexBuakLNzQGjQC0KmRj15y6cVl0QLnAC7MbziQ8Q6AxBLAICMlz3aaVKEetyTmPbWxK/0a4mME1N2qaiNhrAtNQFEPRiAzJV92xtry5quuKGecenouoNspXMAggcBnecarQCR22B1wL5fRzyTpWc7iGRNgkICr2mwmN/OsSVnzwbHxciDSv6kAtHdriDiCmjNjbXfIIMBcJTsQuWe0uOLWEnCFFG1VkCJEkDa1uKpwVw8K1cyLjn7Y2enrL/Mj1B8NCR0KwAdiAb3h/A2ZecmucAxo44juESArE7zYBs65qznJWqYRapLjRcYpNu8UxGAQMZ3pWDzNhME603owZt/9EeAWxeDFMQhHIqgsm60A2gAgCnE4pAoLK0HOOzYjn+EApg+hPO0g7aLOwklMT813MdeZNmF1YoKLCbm3r1vGImGeGos8IvVfjUpSxPhIwSBA2QeAUgExhSpIjyp5SH4QiLFcvRkkIhHnWWnSTSL75y0q/T3zy3QnlgATR8o+a5SQ0Kb77y//dvcdZXes1u6972flJ/f+NIEblDoNJAzbPAQ4NXFls7J3as7OwaADupEdZz/tHu0i+PX0dNSEN7b/QOmGVIYioC0WP4Kb8XC5E4OgM5YNJ8e49eW7EaG4Sg8Aljh7Z7vbH9IhKfc8zrg2uZFAqiHuFRIiPXbS6RseLIc6E2XEV4Ylw2Xo7DNsgJaBiJAHtm5OBOzBxMUIDUaENiHcPVvhMfIUgQ5ihVr01waOe9d2j6CRSD9SItOHRm0blYFIC01S2yfHyoGwk5iPy67dW1O87IP+xQ4AZpPdJIBnyD30s7PUUgD9qc03wPyTiAHb1bPt71jHhGqCqKnZ4yGTsb7tm+d3mp2yf/uesvnl1yO4dMuiiQhyr+xLj3DAGnctTLvyDEGKVFypQ67iCjACESygsQ1jSJQrm69IxdhuPGOue6Qbq/2oPQO9ZfHw0jK8clWZCkMKsynDQeSOAAYAcftACCnv8eyXa3IStkICTuQgAOEMFwJZnffyXBJk8IgBM7coZr2o57995nMz561bW4ZCx2O988vhydGypBMLn5DQoajdmZpR4cgfBKVPHDeXZCs416409yQZ1XMLhqQp6N1zz0+SAbtJN930tshvVpXOvsnxyPX6ypHQ1UQY7JL+heVILKqOzPSUgVCPgjPUQwYpQiBozxBCTn3NK7TzBv1IANEIaoTqo7IbUu4MdH0OmQrfjvVoTMFHYmkQC8QwpoFydOpIdlTD+RKIwe2qIKZNaBB4hhByRDlj1uymzbb6xlMegrIna7WYi3AvUKyTQv84am4IOOQQuuqLe/dNCpDpTwrsoiXWpgh9EFcX3JYT4UERyxmr/ukEOmkAzFUjxI0LnGl39e74+/ZObZOXdq4saQInFDsHlxTBxKS+edovjBaRuWOkE6ngMDsEUJwoBmoDhMHpoy8kror3pKGPfJbHIKb1aRL23GxKGulMAVxK5iMtg0IdCelsJtXOHXXmdirqVXEEUSqViTff//73y5e+9KX80smdSQLxVIkI/cSaNg6R8OvT86nbPjmzZPFw/hDMhOWntU2/GzZckHmG0A2wQoIAIFbEJRQSRbhpAGB9SNSfl5FCaGsMy3/lMPfe+5PcFHaUmU11IDDNAyQTsyfaOPaMExyRCmlpJ3ZEC+H6yFNJy24S7loiRQK2JkjGWMVKUBZnbjr/gnU5HWjLtW+bqHTGLSCQm1sgc0WwdgS7UiXkLYQjUAUDPP31IS39qZ3X6JN/2C/mM5JjV1knYr0xP5aLCJBTGEwVQ/5oUtxfetmGUEMEs5gGly9ZWG64+qpycO+eiDf1VDcVkBpgTQWeIVERKX5UIz32pQweRmtbw98K7pg3+DQJsAfcUAM7IWa/LLKhK91zAtMHSK4JmAIBqWLE4h0C94hscae1GYOQ6jUtkZ7928/0CaHCog0iflx59/xzL8VUXTJFOHhopGzfsbNMRIrlCxSRA05FAJtH2A6JklQjwDrXPaL0d3VQF0HizNBgSB8RKEKplRkC6NO6FKcHDtjEB7CUAyOj5ecPPhSc1CUFoGzCGPf6U1Hbo0UEArxTXLWBVYmocYoW8kt40y8uWvAxwFKRi/oKuWTpstyOgnRlpH/6YoIxNlshaldqJRkwLCOqCmoQbLjcy1utMGfbHaJ1Hmhs7m8qAsxFUesdUaYL0mUMUiCziFZIhRpbX1k9Io1p0qiSqephg9pTgmF/xndrY91npaIrr7wqd5DHIpfUsc6OYfWzfwpIwYFVICaasVpG+PIlPmDEJxWJEpjUYBYmFdJFRCOGM+SfqXrLDdd9nk2cufasEOuC4Mzfs5oo8yN9RCnZNSIgaBySjI3ApmvvZPPWv+1AdrWHmiT7A0zuBUy/ZnvooQczsC1bdkJE1uWl95prrvn8lVe+KXU7NSWPlIGFn0e60Y0FV5hYJrvOfcRtXLulr9vH8uq7lFj9zdXQ0MLwGL9OWxEESh2kFtxWciVBGkgX/9GP7i4bN74cUhkrl156SX7WD8Z8ryUm9mBXh6HikdjbD3SqjpuhETd7oCJ9jVWNqa7KjmYTnhjTvNIYahS72JgAp5+f8vaGy36+bdC1pFgBAHKcNWIU7YAB7IpbV+0qVemP4AqDTdW2vXv3Za66evUpGXOuvvrN5Ve/ejQjegcRTkw1o1JxChF12YH2adUvQ+oZIolQvZKG/ghxbcSrjSgnhz2zN/1MkJgmDbOu2dj5gfx5HOpbVG3ia4NbTEEclwS8GaE+xrp3bVW7/q7N9TGCWfeNUUvZDJ6YEKYhA6CJHgDupb0RpB+g3rc+AADakKuIUvQ104qa1UVnzxKFWTQYzjCJPwjMNECFVEcFYtM7QK6IgsD71gdg/QBsTCCk3XvHDqjXeLC8J3HRGAPtnfuOE/310zpXrVbPAxxI2LhxU+4UAthEDZBy7Nm6xMK6ziHNgzzbpPnKV/532oD+pKpQi2dq0Uf/cF8bdH6FWo0VheKIjdpTTz05d4p4E0ngUh/S04802g9MRWefYM2m9uQYo1+83vTOt+cnFDB9IABHO6kMxFwGnraO80Ju6BKV3Ben0j7TucpI9WHQkHvOPCbU4BmHjN61iRoCxmiiVD3zFu/AJlnPGPZL6C4EjuT44vD979+ZhoN6QHFHXYAbJE9RWqg3Vn/PtsjZgYI4VTkydjT/IJP9OG3VdbsZ3qmKfYLT89GPfmTGH2PzL0t+8Yv/M1/6cNgMWAUAIBZurvBsMIDNOH169Y5RV2aq6w7Mn1f27t5TPv3pT+evGp2RdcbNuE1hO/Z3hf08yOLLVBM1sQtCdCgXoQ6pIdVBBnmzD+pwhdx7Ex2xC1RNtQopYIzUpAgWYPC2rN+4Tj1IUv8awtKli9OlcGOe0OYgpZ80LVkyHJSvDGLeWN7whstihj0npvm1yY19NsRUJmoe0hhjE9QsUbJY84zJZlMYc997wQXrP28q9gN1OvbXiFEubfTb7tWr1+RgxRKBPRis4tzB/JajSqa0Q8BASWJ42XAZXDCYGzWIlaCbqd0jAIFK/ioNASoVUAVkOCONFlEN5Pc8AaE+HrknDap1RQBpkKicVX8SU41v7q+6JzFSP3AgssH/8LF/P+N3/wAILnmMJzLsqp5wzYE6lXuOSyKztMiwnO3VhQFFsKu+EENignRdteqkZE5wxED7jrxjx55qDo899mj+A6EiKiohSSJiSUVa5gMSEvAakhRlRGLECFytDXLFcyPMWqiOOxb6IRbc2Mrhw7MM3XHHHTMQ6twQ1SSnTvEiZuWsbtao+sBJig358aURBp7AhRFE6wtpe6fNh0je2XPnnXfO6KAC0LhR2j1i3D/w4M+TI79aJGYEa/9dSRw/HhP6tj6etSv+QqWfzORuAIpbJwAaQQhHQAPK+GTqvjq4/12EDfjxVxURTZLH94e3fXbjKHM/9KEeHY7v3K4qV3SS0yE5omyENAStNqaU9r7B8kyd1MPo/dIEoaeeemr5v1a5vfca3Tf0AAAAAElFTkSuQmCC;" parent="LvfuuKePgPZG7jUSQBum-39" vertex="1">
          <mxGeometry width="44.16" height="300" as="geometry" />
        </mxCell>
        <mxCell id="LvfuuKePgPZG7jUSQBum-33" value="" style="group" parent="LvfuuKePgPZG7jUSQBum-25" vertex="1" connectable="0">
          <mxGeometry x="9" y="323" width="282" height="80" as="geometry" />
        </mxCell>
        <mxCell id="LvfuuKePgPZG7jUSQBum-29" value="" style="html=1;verticalLabelPosition=bottom;verticalAlign=top;outlineConnect=0;shadow=0;dashed=0;shape=mxgraph.rack.hpe_aruba.switches.j9828a_5400r_700w_poeplus_zl2_power_supply;" parent="LvfuuKePgPZG7jUSQBum-33" vertex="1">
          <mxGeometry width="135.48387096774192" height="80" as="geometry" />
        </mxCell>
        <mxCell id="LvfuuKePgPZG7jUSQBum-30" value="" style="html=1;verticalLabelPosition=bottom;verticalAlign=top;outlineConnect=0;shadow=0;dashed=0;shape=mxgraph.rack.hpe_aruba.switches.j9829a_5400r_1100w_poeplus_zl2_power_supply;" parent="LvfuuKePgPZG7jUSQBum-33" vertex="1">
          <mxGeometry x="135.48387096774192" width="144.51612903225805" height="80" as="geometry" />
        </mxCell>
        <mxCell id="LvfuuKePgPZG7jUSQBum-40" value="" style="ellipse;whiteSpace=wrap;html=1;aspect=fixed;strokeWidth=4;" parent="1" vertex="1">
          <mxGeometry x="770" y="567" width="30" height="30" as="geometry" />
        </mxCell>
        <mxCell id="LvfuuKePgPZG7jUSQBum-41" value="" style="ellipse;whiteSpace=wrap;html=1;aspect=fixed;strokeWidth=4;" parent="1" vertex="1">
          <mxGeometry x="880" y="567" width="30" height="30" as="geometry" />
        </mxCell>
        <mxCell id="LvfuuKePgPZG7jUSQBum-44" value="" style="shape=curlyBracket;whiteSpace=wrap;html=1;rounded=1;labelPosition=left;verticalLabelPosition=middle;align=right;verticalAlign=middle;strokeWidth=4;fillColor=#fff2cc;gradientColor=#ffd966;strokeColor=#d6b656;" parent="1" vertex="1">
          <mxGeometry x="660" y="490" width="20" height="70" as="geometry" />
        </mxCell>
        <mxCell id="LvfuuKePgPZG7jUSQBum-45" value="POWER SUPPLIES" style="text;html=1;align=center;verticalAlign=middle;whiteSpace=wrap;rounded=0;fontSize=16;fontStyle=1" parent="1" vertex="1">
          <mxGeometry x="580" y="510" width="60" height="30" as="geometry" />
        </mxCell>
        <mxCell id="LvfuuKePgPZG7jUSQBum-47" value="" style="shape=curlyBracket;whiteSpace=wrap;html=1;rounded=1;labelPosition=left;verticalLabelPosition=middle;align=right;verticalAlign=middle;strokeWidth=4;fillColor=#fff2cc;gradientColor=#ffd966;strokeColor=#d6b656;" parent="1" vertex="1">
          <mxGeometry x="660" y="190" width="20" height="280" as="geometry" />
        </mxCell>
        <mxCell id="LvfuuKePgPZG7jUSQBum-48" value="CROSSBAR FABRIC MODULES" style="text;html=1;align=center;verticalAlign=middle;whiteSpace=wrap;rounded=0;fontSize=16;fontStyle=1" parent="1" vertex="1">
          <mxGeometry x="570" y="315" width="60" height="30" as="geometry" />
        </mxCell>
        <mxCell id="LvfuuKePgPZG7jUSQBum-49" value="" style="shape=curlyBracket;whiteSpace=wrap;html=1;rounded=1;labelPosition=left;verticalLabelPosition=middle;align=right;verticalAlign=middle;strokeWidth=4;fillColor=#fff2cc;gradientColor=#ffd966;strokeColor=#d6b656;rotation=-180;" parent="1" vertex="1">
          <mxGeometry x="1020" y="180" width="20" height="280" as="geometry" />
        </mxCell>
        <mxCell id="LvfuuKePgPZG7jUSQBum-50" value="SYSTEM FAN TRAY" style="text;html=1;align=center;verticalAlign=middle;whiteSpace=wrap;rounded=0;fontSize=16;fontStyle=1" parent="1" vertex="1">
          <mxGeometry x="1090" y="300" width="60" height="30" as="geometry" />
        </mxCell>
        <mxCell id="LvfuuKePgPZG7jUSQBum-51" value="" style="shape=curlyBracket;whiteSpace=wrap;html=1;rounded=1;labelPosition=left;verticalLabelPosition=middle;align=right;verticalAlign=middle;strokeWidth=4;fillColor=#fff2cc;gradientColor=#ffd966;strokeColor=#d6b656;" parent="1" vertex="1">
          <mxGeometry x="50" y="470" width="20" height="70" as="geometry" />
        </mxCell>
        <mxCell id="LvfuuKePgPZG7jUSQBum-52" value="POWER SUPPLIES" style="text;html=1;align=center;verticalAlign=middle;whiteSpace=wrap;rounded=0;fontSize=16;fontStyle=1" parent="1" vertex="1">
          <mxGeometry x="-30" y="490" width="60" height="30" as="geometry" />
        </mxCell>
        <mxCell id="LvfuuKePgPZG7jUSQBum-53" value="" style="shape=curlyBracket;whiteSpace=wrap;html=1;rounded=1;labelPosition=left;verticalLabelPosition=middle;align=right;verticalAlign=middle;strokeWidth=4;fillColor=#fff2cc;gradientColor=#ffd966;strokeColor=#d6b656;" parent="1" vertex="1">
          <mxGeometry x="50" y="295" width="20" height="65" as="geometry" />
        </mxCell>
        <mxCell id="LvfuuKePgPZG7jUSQBum-54" value="SUPERVISOR SLOTS ( 9 - 10)" style="text;html=1;align=center;verticalAlign=middle;whiteSpace=wrap;rounded=0;fontSize=16;fontStyle=1" parent="1" vertex="1">
          <mxGeometry x="-80" y="305" width="120" height="30" as="geometry" />
        </mxCell>
        <mxCell id="LvfuuKePgPZG7jUSQBum-56" value="25 RU" style="text;html=1;align=center;verticalAlign=middle;whiteSpace=wrap;rounded=0;fontSize=16;fontStyle=1" parent="1" vertex="1">
          <mxGeometry x="-70" y="240" width="120" height="30" as="geometry" />
        </mxCell>
        <mxCell id="LvfuuKePgPZG7jUSQBum-57" value="CABLE MANAGEMENT" style="text;html=1;align=center;verticalAlign=middle;whiteSpace=wrap;rounded=0;fontSize=16;fontStyle=1" parent="1" vertex="1">
          <mxGeometry x="-90" y="150" width="120" height="30" as="geometry" />
        </mxCell>
        <mxCell id="LvfuuKePgPZG7jUSQBum-58" value="" style="endArrow=classic;html=1;rounded=0;fillColor=#f8cecc;gradientColor=#ea6b66;strokeColor=#b85450;strokeWidth=4;" parent="1" edge="1">
          <mxGeometry width="50" height="50" relative="1" as="geometry">
            <mxPoint x="20" y="160" as="sourcePoint" />
            <mxPoint x="80" y="160" as="targetPoint" />
          </mxGeometry>
        </mxCell>
        <mxCell id="LvfuuKePgPZG7jUSQBum-60" value="" style="ellipse;whiteSpace=wrap;html=1;fillColor=#d5e8d4;gradientColor=#97d077;strokeColor=#82b366;" parent="1" vertex="1">
          <mxGeometry x="216" y="153" width="20" height="15" as="geometry" />
        </mxCell>
        <mxCell id="LvfuuKePgPZG7jUSQBum-62" value="" style="endArrow=classic;html=1;rounded=0;fillColor=#f8cecc;gradientColor=#ea6b66;strokeColor=#b85450;strokeWidth=4;" parent="1" edge="1">
          <mxGeometry width="50" height="50" relative="1" as="geometry">
            <mxPoint x="147.37" y="91" as="sourcePoint" />
            <mxPoint x="227" y="151" as="targetPoint" />
            <Array as="points">
              <mxPoint x="227.37" y="91" />
            </Array>
          </mxGeometry>
        </mxCell>
        <mxCell id="LvfuuKePgPZG7jUSQBum-63" value="SYSTEM STATUS LEDS" style="text;html=1;align=center;verticalAlign=middle;whiteSpace=wrap;rounded=0;fontSize=16;fontStyle=1" parent="1" vertex="1">
          <mxGeometry x="20" y="76" width="120" height="30" as="geometry" />
        </mxCell>
        <mxCell id="LvfuuKePgPZG7jUSQBum-64" value="NEXUS 7000 SERIES SWITCHS" style="text;html=1;align=center;verticalAlign=middle;whiteSpace=wrap;rounded=0;fontSize=16;fontStyle=1" parent="1" vertex="1">
          <mxGeometry x="475" width="250" height="30" as="geometry" />
        </mxCell>
        <mxCell id="mQnNN_cuu96gOEJfzGQT-1" value="PORTA FRONTAL" style="text;html=1;align=center;verticalAlign=middle;whiteSpace=wrap;rounded=0;fontSize=16;fontStyle=1" vertex="1" parent="1">
          <mxGeometry x="460" y="410" width="60" height="30" as="geometry" />
        </mxCell>
        <mxCell id="mQnNN_cuu96gOEJfzGQT-7" value="" style="endArrow=classic;html=1;rounded=0;fillColor=#f8cecc;gradientColor=#ea6b66;strokeColor=#b85450;strokeWidth=4;" edge="1" parent="1">
          <mxGeometry width="50" height="50" relative="1" as="geometry">
            <mxPoint x="490" y="450" as="sourcePoint" />
            <mxPoint x="460" y="490" as="targetPoint" />
            <Array as="points">
              <mxPoint x="490" y="490" />
            </Array>
          </mxGeometry>
        </mxCell>
        <mxCell id="mQnNN_cuu96gOEJfzGQT-8" value="FRENTE" style="text;html=1;align=center;verticalAlign=middle;whiteSpace=wrap;rounded=0;fontSize=16;fontStyle=1" vertex="1" parent="1">
          <mxGeometry x="200" y="610" width="60" height="30" as="geometry" />
        </mxCell>
        <mxCell id="mQnNN_cuu96gOEJfzGQT-9" value="TRÃS" style="text;html=1;align=center;verticalAlign=middle;whiteSpace=wrap;rounded=0;fontSize=16;fontStyle=1" vertex="1" parent="1">
          <mxGeometry x="800" y="610" width="60" height="30" as="geometry" />
        </mxCell>
      </root>
    </mxGraphModel>
  </diagram>
</mxfile>
